<?xml version="1.0" encoding="utf-8"?>
<!-- Generator: Adobe Illustrator 25.2.1, SVG Export Plug-In . SVG Version: 6.00 Build 0)  -->
<svg version="1.1" id="Capa_1" xmlns="http://www.w3.org/2000/svg" xmlns:xlink="http://www.w3.org/1999/xlink" x="0px" y="0px"
	 viewBox="0 0 3540.2 785.4" style="enable-background:new 0 0 3540.2 785.4;" xml:space="preserve">
<style type="text/css">
	.st0{fill:#1D84C6;}
	.st1{fill:#246CA4;}
	.st2{fill:#37A0DC;}
</style>
<path class="st0" d="M391.2,166.6c60.8,0,118,23.7,161,66.7s66.7,100.2,66.7,161s-23.7,118-66.7,161S452,622,391.2,622
	s-118-23.7-161-66.7s-66.7-100.2-66.7-161s23.7-118,66.7-161S330.3,166.6,391.2,166.6 M391.2,3.2C175.1,3.2,0,178.3,0,394.3
	s175.1,391.1,391.1,391.1s391.1-175.1,391.1-391.1S607.2,3.2,391.2,3.2L391.2,3.2z"/>
<g>
	<path class="st0" d="M657.7,680.5c-154,143.5-394,139.3-543-9.4l116-114.8c85.7,85.1,223,88.4,312.7,7.5L657.7,680.5z"/>
	<path class="st1" d="M782.3,394.3c0.1,108.6-45,212.3-124.5,286.2L543.5,563.7c93.5-83.8,101.4-227.5,17.6-321
		c-2.1-2.3-4.2-4.5-6.3-6.8L671,121.1C742.4,194.1,782.4,292.2,782.3,394.3z"/>
	<path class="st2" d="M230.8,556.3L114.7,671.1C-36.8,519.8-38.4,274.8,111,121.5l114.2,116.7C140.4,328.1,142.8,469.3,230.8,556.3
		L230.8,556.3z"/>
</g>
<g>
	<g>
		<path d="M1076.2,367.1h229.9v66.1h-230.2v251h84.3v63.3H911.5v-62.9h73.4l3.9-562.9H908V58c2.3-0.1,4.5-0.3,6.7-0.3
			c134.9,0,269.8,0,404.7,0h57l3.7,165.2h-74.7l-4-100.5h-222.8L1076.2,367.1z"/>
	</g>
	<g>
		<g>
			<path d="M1902.5,302.6c-18.8-41.5-44.2-75.1-75.5-99.8c-31.8-25-70.4-41.6-115-49.3c-9.2-1.6-18.8-2.6-28-3.7
				c-4.2-0.5-8.6-1-12.9-1.5h-34.6c-3.5,0.4-6.9,0.8-10.4,1.1c-7.4,0.8-15.1,1.6-22.5,2.8c-51.2,8-95.2,26.8-130.8,55.7
				c-34.8,28.4-62.5,67.4-82.2,115.9c-13.6,33.4-21,70.6-23.3,117c-2.6,52.9,2.9,98.5,16.7,139.4c23.5,69.5,66.3,120.1,127.3,150.5
				c61.6,30.7,130.3,38.2,204.4,22.2c46-9.9,85.6-29.9,117.8-59.3c30.4-27.9,55-65.1,73-110.5c15.7-39.8,23.1-83.6,23.2-137.8
				C1929.6,388.8,1921,343.4,1902.5,302.6z M1847,452.4c-0.6,54.6-8.1,95.3-24.3,132.1c-24.8,55.9-60.4,90.4-108.8,105.5
				c-24.6,7.6-48.2,11.4-70.6,11.4c-44,0-83.6-14.7-118.2-44.1c-33.4-28.4-55.8-67.5-66.4-116.2c-16.4-75.6-12.7-143.2,11.4-206.6
				c21.4-56.1,57-93.9,105.9-112.2c64.5-24.2,125.2-19.1,180.6,15.3c31.8,19.7,55.1,50.5,71.3,93.9
				C1840.6,365.7,1846.5,402.9,1847,452.4L1847,452.4z"/>
		</g>
		<g>
			<path d="M3508.3,302.6c-18.8-41.5-44.2-75.1-75.5-99.8c-31.8-25-70.4-41.6-115-49.3c-9.2-1.6-18.8-2.6-28-3.7
				c-4.2-0.5-8.6-1-12.9-1.5h-34.6c-3.5,0.4-6.9,0.8-10.4,1.1c-7.4,0.8-15.1,1.6-22.5,2.8c-51.2,8-95.2,26.8-130.8,55.7
				c-34.8,28.4-62.5,67.4-82.2,115.9c-13.6,33.4-21,70.6-23.3,117c-2.6,52.9,2.9,98.5,16.7,139.4c23.5,69.5,66.3,120.1,127.3,150.5
				c61.6,30.7,130.3,38.2,204.3,22.2c46-9.9,85.7-29.9,117.8-59.3c30.4-27.9,55-65.1,73-110.5c15.7-39.8,23.1-83.6,23.2-137.8
				C3535.4,388.8,3526.8,343.4,3508.3,302.6z M3452.8,452.7c-0.6,54.5-8.1,95.3-24.5,132c-24.7,55.6-60.2,90-108.4,105
				c-24.7,7.7-48.4,11.6-70.9,11.6c-43.9,0-83.4-14.6-118-43.8c-33.5-28.3-55.9-67.3-66.5-116.1c-16.6-75.8-12.8-143.6,11.5-207.2
				c21.5-56.4,57.2-94,106.1-112c69.3-25.4,132.7-18.3,188.4,21.1c30.8,21.8,52.8,54.6,67.2,100.1
				C3447.6,374.5,3452.4,409.2,3452.8,452.7L3452.8,452.7z"/>
		</g>
		<g>
			<path d="M2455.1,696.4c-6.8,0-13.2,0.1-19.7-0.1c-16-0.4-28.7-6.1-37.8-16.8c-7.9-9.3-14.1-17.8-18.9-25.9
				c-15.2-25.5-30.5-51.5-45.2-76.7c-6.6-11.4-13.3-22.7-19.9-34l-1.8-3c-2.9-5-6-10.3-9.3-15.1c-16-23.3-32.8-44.6-63.8-49.5
				l-11.6-1.8l10.8-4.8c0.6-0.3,1-0.5,1.4-0.6c0.8-0.4,1.4-0.7,2.3-0.9c2.1-0.4,4.2-0.7,6.1-1c54.8-7.8,93.7-37,115.8-86.7
				c12.3-27.7,16.1-58.6,11.5-94.5c-5.3-41.8-25.3-73.7-59.3-94.9c-32.2-20-69.7-30-114.4-30.6c-59-0.8-118.9-0.7-176.9-0.7
				c-22.7,0-46.2,0-69.4,0c-0.5,0-1.1,0-1.6,0.1v53.8h65.7l-3.4,483.9h-62.2v52.9h206.6v-53.4h-67.5V488l3.7,0.2
				c7.1,0.3,14,0.6,20.9,0.9c15.9,0.6,30.9,1.2,46.2,2.3c17.5,1.2,31.8,9.5,42.6,24.6c2.3,3.2,4.7,6.5,7,9.6
				c6.1,8.3,12.4,16.8,17.8,25.9c17.2,28.7,34.5,58,51.1,86.4c9.2,15.7,18.8,32,28.3,48c3.7,6.3,7.7,12.5,11.6,18.6
				c1.6,2.5,3.2,5,4.8,7.5c14.6,23.1,36.1,35.5,63.7,36.9c17.1,0.9,34.6,1,51.5,1.1c6.3,0,12.7,0.1,19.1,0.2v-53.4
				C2458.8,696.4,2456.9,696.4,2455.1,696.4z M2177,433.7c-10.9,0.3-21.8,0.4-32.7,0.4c-7.2,0-14.3,0-21.4-0.1
				c-6.9,0-13.8-0.1-20.7-0.1c-1.4,0-2.8-0.1-3.8-0.2c-0.4,0-0.8-0.1-1.1-0.1l-3.2-0.2V214.5l2.5-0.7c0.6-0.2,1.1-0.3,1.5-0.5
				c0.8-0.3,1.6-0.6,2.6-0.5c9.4,0.1,18.9,0.2,28.1,0.3c23.2,0.2,47.2,0.4,70.9,1.4c16.9,0.7,34,5.7,50.8,14.7
				c23.5,12.6,38.6,31.9,44.8,57.1c6.2,25,5.6,49.6-1.6,73c-11.3,36.5-38.4,60.2-80.7,70.3C2202.4,432,2190.6,433.4,2177,433.7z"/>
		</g>
		<g>
			<path d="M3006.1,159.1v53.5h-36.8c-15.5,0-16.8,0.9-22.4,15.3l-67.1,172.2c-44.7,114.8-89.4,229.6-134.2,344.4
				c-0.6,1.6-1.3,3.3-2,5c-0.1,0.2-0.2,0.3-0.2,0.5h-13.8c-22.6,0-46,0-69-0.2c-0.7-0.4-1.9-1.9-2.4-3.2
				c-16.3-41.3-32.8-83.4-48.7-124.1l-25.1-64.2c-43.3-110.6-88-224.9-131.9-337.4c-2.4-6.2-6-8.6-12.5-8.4
				c-11.2,0.2-22.2,0.2-33.9,0.1c-3.3,0-6.7,0-10,0v-53.5h205.7v53.4h-64.7l1.7,4.7c23.5,66,47.7,132.7,71.2,197.2
				c31.7,87.2,64.5,177.3,95.1,265.3l3.3,9.5l3.3-9.5c30.1-87.3,62.2-177,93.1-263.7c23.2-65,47.2-132.2,70.5-198.7l1.6-4.7h-71.7
				v-53.5L3006.1,159.1L3006.1,159.1z"/>
		</g>
	</g>
</g>
</svg>
