<?xml version="1.0" encoding="UTF-8"?><svg id="a" xmlns="http://www.w3.org/2000/svg" xmlns:xlink="http://www.w3.org/1999/xlink" viewBox="0 0 102.6 171.03"><defs><style>.c{fill:url(#b);}</style><radialGradient id="b" cx="50.13" cy="87.43" fx="50.13" fy="87.43" r="91.51" gradientTransform="translate(-11.07 137.56) rotate(-90) scale(1 .7)" gradientUnits="userSpaceOnUse"><stop offset=".14" stop-color="#fff"/><stop offset=".19" stop-color="#fff" stop-opacity=".87"/><stop offset=".28" stop-color="#fff" stop-opacity=".67"/><stop offset=".37" stop-color="#fff" stop-opacity=".49"/><stop offset=".46" stop-color="#fff" stop-opacity=".34"/><stop offset=".55" stop-color="#fff" stop-opacity=".22"/><stop offset=".65" stop-color="#fff" stop-opacity=".12"/><stop offset=".75" stop-color="#fff" stop-opacity=".05"/><stop offset=".87" stop-color="#fff" stop-opacity=".01"/><stop offset="1" stop-color="#fff" stop-opacity="0"/></radialGradient></defs><path class="c" d="M50.35,4.11c.52-5.48,1.38-5.48,1.9,0l6.06,63.5c.52,5.48,5.39,10.67,10.82,11.55l29.4,4.76c5.43,.88,5.43,2.32,0,3.2l-29.4,4.76c-5.43,.88-10.3,6.08-10.82,11.55l-6.06,63.5c-.52,5.48-1.38,5.48-1.9,0l-6.06-63.5c-.52-5.48-5.39-10.67-10.82-11.55l-29.4-4.76c-5.43-.88-5.43-2.32,0-3.2l29.4-4.76c5.43-.88,10.3-6.08,10.82-11.55L50.35,4.11Z"/></svg>