<svg enable-background="new 0 0 512 512" viewBox="0 0 512 512" xmlns="http://www.w3.org/2000/svg"><path d="m255.7 446.3c-53.3.3-106.6-.4-159.8-3.3-17.3-1-34.6-2.5-50.3-11-10.5-5.7-18.6-13.6-23.7-24.8-8.6-18.6-11.3-38.2-12.9-58.2-3.4-41.3-3.6-82.6-1.8-123.8.9-21.9 1.6-44 6.8-65.5 2-8.4 4.9-16.6 8.8-24.4 9.2-18.3 25.2-27.4 44.5-31.2 16.2-3.2 32.8-3.1 49.3-3.8 55.9-2.3 111.9-3.5 167.9-2.9 43.1.5 86.3 1.6 129.4 3.8 13.3.7 26.7.9 39.4 5.6 17.2 6.4 30 17.2 36.9 34.7 6.7 16.8 9.3 34.2 10.7 52.1 3.9 48.6 4 97.2.8 145.8-1.1 16.4-2.2 32.8-6.5 48.9-9.7 37-32.8 51.5-66.7 53.8-36.2 2.4-72.5 3.7-108.8 4.2-21.3.2-42.7 0-64 0zm-52.5-102.3c48.4-26.5 96.2-52.7 144.8-79.3-48.7-26.7-96.5-52.8-144.8-79.3z" fill="#dd2c28"/><path d="m203.2 344c0-53 0-105.3 0-158.5 48.3 26.4 96.1 52.6 144.8 79.3-48.6 26.6-96.4 52.7-144.8 79.2z" fill="#fefdfd"/></svg>