<?xml version="1.0" encoding="utf-8"?>
<!-- Generator: Adobe Illustrator 22.1.0, SVG Export Plug-In . SVG Version: 6.00 Build 0)  -->
<svg version="1.1" id="Layer_1" xmlns="http://www.w3.org/2000/svg" xmlns:xlink="http://www.w3.org/1999/xlink" x="0px" y="0px"
	 viewBox="0 0 22 22" style="enable-background:new 0 0 22 22;" xml:space="preserve">
<g>
	<path d="M5.3,5.5c1,0.4,1.7,0.8,2.1,1.4c0.3,0.5,0.5,1.1,0.4,1.6C7.7,9,7.4,9,6.9,8.6c-0.5-0.4-1.2-1.1-2-2.1
		C4.1,5.4,4.3,5.1,5.3,5.5z M10.6,11.3c-0.3,0.7-0.4,1.8-0.3,3.2c0,1.4,0.1,2.7,0.1,4c0,1.3-0.1,2.3-0.3,3c-0.3,0.7-0.6,0.6-0.9-0.2
		c-0.3-0.9-0.4-1.6-0.3-2.2c0.2-0.6,0.3-1.7,0.3-3.4c0-1.7,0-2.9,0-3.8c-0.1-0.9-0.2-1.6-0.6-2.1c-0.3-0.5-0.3-0.8,0-0.7
		c0.3,0,0.7,0.1,1,0.3c0.7-0.7,1.5-1.6,2.2-2.6c0.7-1,1.1-1.8,1-2.4c-0.1-0.6,0.1-0.8,0.6-0.5c0.5,0.3,0.9,0.7,1.3,1.2
		c0.4,0.5,0.3,0.9-0.3,1c-0.5,0.2-2,1.4-4.3,3.5C10.8,10,10.9,10.5,10.6,11.3z"/>
</g>
</svg>
