<?xml version="1.0" encoding="utf-8"?>
<!-- Generator: Adobe Illustrator 22.1.0, SVG Export Plug-In . SVG Version: 6.00 Build 0)  -->
<svg version="1.1" id="Layer_1" xmlns="http://www.w3.org/2000/svg" xmlns:xlink="http://www.w3.org/1999/xlink" x="0px" y="0px"
	 viewBox="0 0 22 22" style="enable-background:new 0 0 22 22;" xml:space="preserve">
<g>
	<path d="M40.2,21c-1.3,0.1-1.6,0-2.8-1.1c-0.9-0.9-1.6-1.6-2.3-2.5c-1.6,1.9-4.6,2.9-6.8,2.8c-0.8,0-0.8-0.3-0.3-0.5
		c2.8-0.6,5-1.8,6.3-3.3c-0.6-0.8-1.1-1.4-1.6-2.1c-0.8-1-1.4-1.5-1.9-1.7c-0.5-0.2-0.6-0.6,0.1-0.6c1,0,1.1,0,2.5,1.8
		c0.6,0.7,1,1.3,1.5,1.8c0.6-1.2,1.1-3.3,0.9-3.9c-0.4-1.2-0.2-1.4,1.2-0.8c1,0.5,1,0.8,0.6,1.3c-0.1,0.1-0.5,0.9-0.8,1.9
		c-0.2,0.7-0.6,1.6-1,2.4c1.8,2,3.2,2.6,7.5,3.4c0.9,0.2,1,0.5,0.2,0.6C42.2,20.8,41.2,20.9,40.2,21z M40.9,7.6
		c-0.9,0-2.5,0-3.5,0.1C36.9,8.8,36.6,9.5,36,10c-0.3,0.3-0.5,0.1-0.4-0.3c0.2-0.5,0.5-1.3,0.7-2c-0.4,0-2,0.3-2.9,0.4
		c0,0.4,0.1,0.9,0.1,1.4c0,0.4-0.1,0.8-0.3,0.8c-0.3,0-0.5-0.3-0.5-0.7c-0.1-0.5-0.1-1-0.2-1.4c-0.6,0.1-1.2,0.2-1.5,0.3
		c-0.7,0.3-0.9,0.2-1.4-0.2c-0.5-0.3-0.5-0.5,0.2-0.6c0.4-0.1,1.1-0.1,2.5-0.3c-0.2-1.3-0.4-1.8-0.7-2.2c-0.6-0.8-0.4-1,0.4-0.8
		c1.4,0.4,1.6,0.9,1.4,1.2c-0.1,0.1-0.1,0.7-0.1,1.6c1.4-0.2,2.3-0.3,3.1-0.5c0.3-1.3,0.5-2.7,0.4-3c-0.4-0.8-0.1-1.1,1-0.7
		c1.2,0.5,1.3,0.9,0.8,1.4c-0.2,0.2-0.6,1.1-1,2c0.5-0.1,1-0.2,1.5-0.4c0.9-0.3,1.5-0.2,2,0.1C42.1,7,41.9,7.6,40.9,7.6z"/>
</g>
<g>
	<path d="M66,17.3c-1.1-1.1-2.3-2.6-4.6-5.2c-0.2,0.3-0.9,1.1-1.2,1.5c1,0.7,1.1,0.9,0.9,1.4c-0.1,0.4-0.2,2.6-0.2,3.8
		c0.5-0.4,2.4-1.4,2.9-1.7c0.3-0.2,0.4,0,0.1,0.3c-0.6,0.5-2.5,2.5-3.2,3.5c-0.6,0.8-0.8,0.8-1.4-0.2c-0.3-0.6-0.3-0.8,0.2-1.5
		c0.6-0.8,0.7-3.7,0.3-5.1c-1.4,1.9-3.2,3.5-4.2,3.8c-1.4,0.6-1.4,0.4-0.2-0.6c0.4-0.3,1.7-1.6,3-3.1c1.2-1.4,2.2-3.1,2.3-3.9
		c-0.2,0-0.4,0.1-0.7,0.1c-0.2,0.3-0.5,0.2-0.6-0.4c-0.3-1.6-0.6-2.3-0.8-2.7c-0.4-0.6-0.3-0.8,0.8-0.4C61.2,7,63,6.2,63.5,6
		c0.5-0.2,0.9-0.2,1.7,0.1c1.5,0.7,1.5,0.8,0.9,1.3c-1.2,1-1.2,1.5-1,1.7c0.4,0.4,0.3,0.6-1.1,0.8c-0.2,0-1.5,0.2-2.8,0.4
		c1,0.7,1,0.8,0.4,1.5c1.1,0.9,1.8,1.5,2.3,1.9c1.4-1,2.2-2,2.2-2.6c0-0.6,0.2-0.7,1.2,0c0.8,0.5,0.8,0.8,0.1,1.1
		c-0.3,0.1-1.1,0.6-1.6,0.9c-0.2,0.2-1,0.6-1.7,0.9c2.5,2.2,5.5,3.4,7.1,3.7c0.9,0.2,0.9,0.6,0.1,0.7C67.7,18.8,67.3,18.7,66,17.3z
		 M63.7,6.7c-0.3,0-1.2,0.2-1.6,0.3c-0.9,0.3-1.4,0.4-2.2,0.4c0.2,0.7,0.4,1.7,0.4,2.5v0c1.2-0.2,2.5-0.5,2.8-0.6
		c0.6-0.3,0.7-0.4,0.9-1.7C64.2,7,64.1,6.8,63.7,6.7z"/>
</g>
<g>
	<path d="M-31.2,18c-1-1-2.1-2.3-4.2-4.7c-0.2,0.3-0.8,1-1.1,1.4c0.9,0.7,1,0.8,0.9,1.3c-0.1,0.3-0.2,2.4-0.1,3.5
		c0.5-0.3,2.2-1.3,2.6-1.6c0.3-0.2,0.4,0,0,0.3c-0.5,0.5-2.2,2.3-3,3.2c-0.6,0.7-0.7,0.7-1.3-0.1c-0.3-0.5-0.3-0.7,0.2-1.4
		c0.6-0.7,0.7-3.4,0.2-4.7c-1.3,1.7-2.9,3.1-3.8,3.5c-1.2,0.5-1.3,0.4-0.2-0.5c0.4-0.3,1.6-1.4,2.8-2.8c1.1-1.3,2-2.8,2.1-3.6
		c-0.2,0-0.4,0-0.6,0.1c-0.2,0.3-0.4,0.1-0.5-0.4c-0.3-1.4-0.5-2.1-0.8-2.4c-0.4-0.5-0.3-0.7,0.7-0.4c1.6-0.1,3.2-0.8,3.7-1
		c0.5-0.2,0.8-0.2,1.6,0.1c1.3,0.6,1.4,0.7,0.8,1.2c-1.1,0.9-1.1,1.4-0.9,1.6c0.4,0.4,0.2,0.5-1,0.7c-0.2,0-1.3,0.2-2.5,0.4
		c0.9,0.7,0.9,0.8,0.4,1.3c1,0.8,1.7,1.4,2.1,1.8c1.2-0.9,2-1.8,2-2.4c0-0.6,0.2-0.6,1.1,0c0.7,0.5,0.7,0.8,0.1,1
		c-0.3,0.1-1,0.6-1.4,0.8c-0.2,0.1-0.9,0.5-1.5,0.8c2.3,2,5,3.1,6.5,3.4c0.9,0.2,0.8,0.5,0.1,0.6C-29.6,19.4-30,19.3-31.2,18z
		 M-30.5,5.9c-0.5,0.1-4.1,0.8-4.7,0.9c-0.9,0.2-2.1,0.4-2.5,0.3c-0.9-0.1-0.9-0.4,0.1-0.6c0.9-0.2,5-1.2,5.8-1.4
		c0.7-0.2,1.5-0.2,1.9-0.1C-29,5.3-29.1,5.6-30.5,5.9z M-33.2,8.4c-0.3,0-1.1,0.2-1.4,0.3C-35.5,8.9-36,9-36.7,9
		c0.2,0.6,0.4,1.6,0.4,2.2v0c1.1-0.1,2.3-0.4,2.6-0.6c0.6-0.2,0.6-0.4,0.8-1.6C-32.8,8.6-32.9,8.4-33.2,8.4z"/>
</g>
<g>
	<path d="M-14.3,10.2c-0.1,0.1-0.4,0.2-0.8,0.3c-0.4,0.1-1.3,0.2-2.5,0.5c0.5,0.4,0.5,0.9-0.1,1.3c0.4,0.1,0.9,0.4,1.4,0.9
		c0.5,0.5,0.9,0.8,1.2,1c1.3-1.4,2-2.4,2-2.8c0-0.5,0.2-0.6,0.5-0.4c0.3,0.2,0.6,0.5,0.8,0.8c0.2,0.3,0.2,0.6-0.3,0.8
		c-0.4,0.2-1.3,0.9-2.7,1.9c1.3,1.1,2.4,1.9,3.2,2.3c0.8,0.4,1.6,0.7,2.5,0.9c0.8,0.2,1.1,0.3,0.7,0.4c-0.4,0.1-1,0.2-1.8,0.2
		c-0.8,0.1-1.4,0.1-1.9,0c-0.5,0-1.1-0.5-1.8-1.4c-0.7-0.9-1.5-1.8-2.2-2.7c-0.8-0.9-1.3-1.4-1.7-1.6l-0.8,0.9
		c0.6,0.4,0.8,0.9,0.7,1.4c-0.1,0.5-0.1,1.3-0.1,2.2c0,0.9,0.4,1.2,1.2,0.7c0.8-0.5,1.4-0.8,1.8-0.9c0.4-0.1,0.2,0.1-0.4,0.7
		l-1.8,1.6c-0.6,0.5-1,0.9-1.3,1.3c-0.3,0.3-0.5,0.4-0.7,0.2c-0.2-0.2-0.3-0.5-0.4-0.8c-0.1-0.3,0-0.7,0.2-1.3
		C-19,18-19,16.5-19.1,14c-1.1,1.2-2,2.1-2.6,2.6c-0.6,0.5-1.2,0.9-1.9,1.1c-0.6,0.2-0.5,0,0.3-0.7c0.8-0.7,1.5-1.4,2.1-2
		c0.6-0.7,1.1-1.4,1.5-2c0.4-0.7,0.7-1.2,0.8-1.4c0.2-0.3,0.1-0.4-0.1-0.5c-0.2,0.4-0.4,0.4-0.5-0.1c-0.2-0.5-0.3-1.1-0.4-1.7
		C-20,8.5-20.1,8-20.3,7.7c-0.2-0.4-0.1-0.5,0.5-0.4c0.5,0.1,1.3,0,2.3-0.3c1-0.3,1.6-0.6,1.9-0.7c0.2-0.2,0.5-0.2,0.7-0.2
		c0.2,0.1,0.7,0.2,1.2,0.5c0.6,0.3,0.7,0.6,0.3,0.9c-0.4,0.3-0.8,1-1.2,1.9C-14.3,9.8-14.1,10-14.3,10.2z M-12,4.1
		c-0.3,0.2-0.8,0.4-1.6,0.6c-0.8,0.2-1.8,0.4-3.2,0.7c-1.4,0.3-2.3,0.4-2.9,0.5c-0.6,0-1.1,0-1.5-0.2c-0.4-0.2-0.2-0.3,0.6-0.4
		s1.8-0.3,3.1-0.6c1.3-0.3,2.4-0.6,3.3-0.9c0.9-0.3,1.6-0.3,2-0.1C-11.8,3.7-11.7,3.9-12,4.1z M-18.9,10.5c0.5-0.1,1.6-0.4,3.3-0.9
		c0.1-0.4,0.1-0.9,0.2-1.5c0.1-0.7-0.1-0.9-0.5-0.9c-0.4,0.1-1.4,0.3-3.2,0.7C-19,8.6-19,9.5-18.9,10.5z"/>
</g>
<g>
	<path d="M12.5,9.3c-0.1,0.1-0.5,0.3-1,0.3C11,9.7,10,9.9,8.5,10.2c0.6,0.5,0.5,1-0.1,1.5c0.5,0.1,1.1,0.5,1.6,1
		c0.6,0.5,1.1,0.9,1.4,1.1c1.5-1.7,2.3-2.8,2.3-3.3c0-0.6,0.2-0.7,0.5-0.4c0.4,0.3,0.7,0.6,1,1c0.3,0.4,0.2,0.7-0.3,0.9
		c-0.5,0.3-1.6,1-3.2,2.2c1.5,1.3,2.8,2.2,3.7,2.7c0.9,0.5,1.9,0.8,2.9,1c1,0.2,1.3,0.4,0.8,0.5c-0.4,0.1-1.1,0.2-2.1,0.3
		c-0.9,0.1-1.7,0.1-2.2,0.1c-0.5,0-1.2-0.6-2.1-1.6c-0.8-1.1-1.7-2.1-2.6-3.2c-0.9-1.1-1.6-1.7-2-1.9l-1,1.1
		c0.7,0.5,0.9,1.1,0.9,1.7C8,15.5,8,16.4,7.9,17.4c0,1.1,0.4,1.4,1.4,0.8c1-0.5,1.7-0.9,2.1-1c0.4-0.1,0.3,0.1-0.4,0.8L9,19.8
		c-0.7,0.6-1.1,1.1-1.5,1.5c-0.3,0.4-0.6,0.5-0.8,0.2c-0.2-0.3-0.3-0.6-0.5-0.9c-0.1-0.4-0.1-0.9,0.3-1.5c0.3-0.7,0.4-2.4,0.3-5.3
		c-1.3,1.5-2.3,2.5-3,3c-0.7,0.6-1.5,1-2.2,1.3c-0.7,0.3-0.6,0,0.4-0.8c1-0.8,1.8-1.6,2.5-2.4c0.7-0.8,1.3-1.6,1.7-2.4
		c0.5-0.8,0.8-1.4,1-1.7c0.2-0.3,0.1-0.5-0.2-0.6c-0.2,0.5-0.4,0.5-0.6-0.1c-0.2-0.6-0.3-1.3-0.5-2C5.8,7.4,5.6,6.8,5.3,6.3
		C5.1,5.9,5.3,5.8,5.9,5.9c0.6,0.1,1.5,0,2.7-0.3c1.2-0.4,1.9-0.7,2.2-0.9c0.3-0.2,0.6-0.3,0.9-0.2c0.3,0.1,0.8,0.3,1.4,0.6
		c0.7,0.3,0.8,0.7,0.3,1.1c-0.4,0.4-0.9,1.1-1.4,2.2C12.4,8.8,12.6,9.1,12.5,9.3z M7,9.7c0.6-0.1,1.9-0.4,3.8-1.1
		c0.1-0.4,0.1-1,0.2-1.8c0.1-0.8-0.1-1.1-0.5-1c-0.4,0.1-1.7,0.4-3.7,0.9C6.9,7.5,6.9,8.5,7,9.7z"/>
</g>
</svg>
