<?xml version="1.0" encoding="iso-8859-1"?>
<!-- Generator: Adobe Illustrator 22.1.0, SVG Export Plug-In . SVG Version: 6.00 Build 0)  -->
<svg version="1.1" id="Layer_1" xmlns="http://www.w3.org/2000/svg" xmlns:xlink="http://www.w3.org/1999/xlink" x="0px" y="0px"
	 viewBox="0 0 22 22" style="enable-background:new 0 0 22 22;" xml:space="preserve">
<g>
	<path d="M16.374,10.222c-1.268-0.09-3.147,0-5.289,0.247c0.087,2.153,0.065,6.82-0.11,8.525c-0.174,1.526-0.677,3.029-0.961,3.006
		c-0.153,0-0.35-0.517-0.328-1.616c0.065-2.557,0.153-7.044,0.175-9.735c-1.224,0.157-2.469,0.381-3.781,0.673
		c-0.59,0.135-1.027,0.157-1.923-0.314c-0.524-0.291-0.481-0.449,0.372-0.516c1.311-0.09,3.387-0.381,5.354-0.74
		c0-1.301-0.11-2.356-0.459-3.096C8.441,6.767,7.37,6.723,6.846,6.543C6.409,6.408,6.365,6.072,6.977,6.005
		C8.091,5.87,10.802,5.152,11.5,4.86c1.115-0.471,1.552-0.538,2.055-0.336c0.677,0.291,0.677,0.628,0.305,0.897
		c-0.415,0.269-1.573,0.695-3.737,1.122c1.093,0.561,1.202,0.83,1.071,1.323c-0.066,0.225-0.131,0.987-0.153,1.683
		c0.983-0.18,1.857-0.404,2.513-0.583c1.814-0.471,2.622-0.359,3.539,0.314C17.816,9.796,17.641,10.312,16.374,10.222z"/>
</g>
<text transform="matrix(1 0 0 1 375 667)" style="font-family:'AdobeSongStd-Light-GBpc-EUC-H'; font-size:12px;">&#x58EB;</text>
</svg>
