<?xml version="1.0" encoding="iso-8859-1"?>
<!-- Generator: Adobe Illustrator 22.1.0, SVG Export Plug-In . SVG Version: 6.00 Build 0)  -->
<svg version="1.1" id="Layer_1" xmlns="http://www.w3.org/2000/svg" xmlns:xlink="http://www.w3.org/1999/xlink" x="0px" y="0px"
	 viewBox="0 0 22 22" style="enable-background:new 0 0 22 22;" xml:space="preserve">
<g>
	<path d="M-20.056,9.1c-0.033,0.924-0.064,1.742-0.095,2.457c-0.033,0.714,0.204,0.88,0.711,0.491
		c0.505-0.386,1.121-0.789,1.848-1.206c0.726-0.416,0.521-0.045-0.616,1.117c-1.137,1.162-1.881,2.041-2.228,2.636
		c-0.348,0.596-0.663,0.624-0.948,0.089c-0.284-0.536-0.395-0.893-0.332-1.073c0.062-0.178,0.157-0.52,0.284-1.027
		c0.126-0.505,0.205-1.369,0.237-2.59c0.031-1.22-0.222-2.158-0.758-2.814c-0.538-0.655-0.111-0.893,1.279-0.714
		c1.643-1.31,2.464-2.233,2.464-2.769c0-0.594,0.489-0.594,1.469,0c0.979,0.596,1.09,0.998,0.332,1.206
		c-0.758,0.209-2.085,0.879-3.98,2.01C-20.137,7.448-20.025,8.178-20.056,9.1z M-14.607,12.539c0,1.965-0.017,3.47-0.048,4.511
		c-0.032,1.043-0.063,1.862-0.095,2.457c-0.032,0.595-0.158,1.22-0.379,1.876c-0.222,0.654-0.411,0.789-0.568,0.402
		c-0.158-0.388-0.237-1.802-0.237-4.243v-6.521c0-1.845-0.047-2.948-0.142-3.305c-0.095-0.358-0.206-0.715-0.332-1.072
		c-0.127-0.357,0.109-0.447,0.711-0.268c0.6,0.179,1.279,0.149,2.037-0.089c0.759-0.238,1.327-0.476,1.706-0.715
		c0.38-0.237,0.837-0.223,1.375,0.045c0.536,0.268,0.962,0.491,1.279,0.67c0.315,0.179,0.488,0.357,0.521,0.536
		c0.03,0.179-0.095,0.522-0.38,1.027c-0.284,0.507-0.474,1.103-0.568,1.787c-0.095,0.685-0.175,1.415-0.237,2.189
		c-0.063,0.775-0.379,1.534-0.947,2.278c-0.568,0.745-0.964,0.835-1.185,0.268c-0.223-0.565-0.648-1.041-1.279-1.43
		c-0.633-0.386-0.664-0.549-0.095-0.492c0.568,0.061,0.979,0.09,1.231,0.09c0.315,0,0.569-0.342,0.759-1.027
		c0.189-0.684,0.315-1.667,0.379-2.948c0.062-1.28-0.158-1.921-0.664-1.921c-0.442,0-1.39,0.209-2.843,0.625V12.539z"/>
</g>
<g>
	<path d="M7.826,15.359c-0.141,1.12-0.403,2.03-0.787,2.729c-0.385,0.7-0.876,1.296-1.469,1.784c-0.596,0.49-1.155,0.806-1.68,0.945
		c-0.525,0.141-0.577,0.036-0.157-0.315c0.42-0.35,0.997-0.997,1.731-1.941c0.734-0.945,1.137-2.362,1.207-4.251
		c0.069-1.89-0.053-3.026-0.367-3.412c-0.315-0.384-0.333-0.577-0.053-0.577h0.944c0.35,0,0.979-0.121,1.89-0.367
		c0.908-0.245,1.451-0.455,1.627-0.63c0.174-0.174,0.488-0.157,0.944,0.053c0.454,0.209,0.856,0.456,1.207,0.734
		c0.35,0.281,0.279,0.595-0.21,0.945c-0.49,0.351-0.876,1.33-1.154,2.938c-0.28,1.611-0.333,2.923-0.157,3.937
		c0.174,1.015,0.698,1.663,1.574,1.941c0.874,0.28,1.731,0.367,2.571,0.263c0.84-0.105,1.328-0.489,1.47-1.154
		c0.14-0.664,0.278-1.417,0.42-2.257c0.139-0.84,0.278-0.594,0.42,0.734c0.139,1.33,0.384,2.204,0.734,2.624
		c0.35,0.42,0.105,0.823-0.734,1.207s-1.979,0.541-3.411,0.473c-1.436-0.07-2.503-0.49-3.202-1.26
		c-0.7-0.77-1.049-1.784-1.049-3.044s0.104-2.588,0.314-3.988c0.21-1.399,0.297-2.239,0.263-2.519
		c-0.036-0.279-0.315-0.367-0.84-0.262c-0.524,0.104-1.173,0.228-1.941,0.367C8,12.806,7.966,14.24,7.826,15.359z M13.494,5.073
		c1.189-0.349,2.081-0.315,2.677,0.105c0.594,0.42,0.331,0.735-0.787,0.945c-1.12,0.21-2.38,0.472-3.779,0.787
		c-1.4,0.315-2.624,0.577-3.673,0.787c-1.05,0.21-1.907,0.123-2.571-0.262c-0.666-0.384-0.648-0.594,0.052-0.63
		C6.112,6.77,7.336,6.579,9.086,6.228C10.834,5.808,12.304,5.424,13.494,5.073z"/>
</g>
</svg>
