<?xml version="1.0" encoding="utf-8"?>
<!-- Generator: Adobe Illustrator 22.1.0, SVG Export Plug-In . SVG Version: 6.00 Build 0)  -->
<svg version="1.1" id="Layer_1" xmlns="http://www.w3.org/2000/svg" xmlns:xlink="http://www.w3.org/1999/xlink" x="0px" y="0px"
	 viewBox="0 0 22 22" style="enable-background:new 0 0 22 22;" xml:space="preserve">
<g>
	<path d="M48.2,7.6c-2.4,0.1-5.4,0.4-6.7,0.6c1,0.9,0.9,1.1,0.3,1.6c-0.2,0.2-1.2,1.3-3.1,3.4c1.1,0.1,2.5,0.1,3.6,0.1
		c0.8-1,1.2-1.9,1.3-2.4c0.1-0.7,0.4-0.7,1.1-0.1c1,0.8,1,1.1,0.3,1.6c-0.9,0.7-1.4,1.1-6.5,6.3c0.8-0.1,3.9-0.6,6-1
		c-0.4-0.7-0.7-1.3-0.8-1.4c-0.2-0.4-0.1-0.6,0.5-0.3c2.3,1,3.4,2.5,3.5,3.9c0.1,1.3-0.7,1.7-1.3,0.9c-0.3-0.5-1-1.5-1.5-2.5
		c-5.9,1.6-6.5,1.9-7.7,2.6c-0.7,0.4-0.9,0.3-1.2-0.7c-0.2-0.7-0.2-1,0.4-1.2c1.5-0.6,2.1-1,5.4-4.9c-2.5,0.1-3.6,0.5-4.1,0.9
		c-0.6,0.5-0.9,0.3-1.1-0.7c-0.1-0.7,0-1,0.5-1.2c1.5-0.7,2.1-1.4,3-3c0.4-0.7,0.5-1.1,0.5-1.6c-3.2,0.7-3.5,0.6-4.8,0.1
		C35.3,8.4,35.4,8,35.9,8c0.3,0,1.4-0.2,2.2-0.3c3.7-0.5,5-0.7,6.8-1.3c1.8-0.6,2.7-0.5,3.9,0.3C49.2,7.1,49.2,7.6,48.2,7.6z"/>
</g>
<g>
	<path d="M-47.1,20.2c-0.8,0.5-2.6,0.9-4,1c-1.8,0.2-3.6,0-4.6-0.4c-2.1-0.9-2.7-1.9-2.5-6c0.1-4.4,0.2-5.2-0.4-6.2
		c-0.5-1-0.2-1.2,1-0.5c2.6-0.6,3.4-1.1,4.3-1.8c0.5-0.4,0.8-0.4,2,0.2c1.6,0.9,1.7,1.1,1.1,1.5c-0.7,0.4-1.8,2.1-2.3,3.5
		c-0.1,0.4-0.1,0.5,0.4,0.6c0.3,0.1,0.4,0.5-0.3,0.6c-0.4,0.1-1,0.3-1.8,0.5c-1.3,0.4-2.2,0.5-3,0.6c-0.1,1.4-0.1,2.5,0,3.4
		c0.2,1.7,1,2.3,2.4,2.5c1,0.2,3.3,0.1,4.8-0.2c1.5-0.4,2-0.8,2.6-3.3c0.2-1,0.5-1.1,0.5,0.1c0,0.8,0.2,2.1,0.4,2.6
		C-46.3,19.7-46.4,19.8-47.1,20.2z M-54.2,7.8c-1.6,0.6-2.1,0.8-2.9,0.8c0,1.4,0,1.7-0.1,4.6c2.7-0.7,3.2-1,3.4-1.8
		c0.4-1,0.7-2.3,0.8-3C-52.9,7.4-53.2,7.4-54.2,7.8z"/>
</g>
<g>
	<path d="M69.3,14.8c-0.8-0.2-3.6-0.3-7.7-0.1c3.4,3,4.7,3.7,8.2,4.5c1.7,0.4,1.8,0.7,0.5,0.9c-0.6,0.1-2.3,0.3-2.8,0.3
		c-1,0-1.4-0.2-2.2-1c-1.1-1.2-2.8-3-3.9-4.3c-0.1,0.8-0.6,1.9-1.1,2.6c-1.1,1.5-3.6,2.4-5.2,2.5c-1.2,0.1-1.1-0.3-0.3-0.5
		c2.1-0.5,4-1.4,4.9-3.2c0.2-0.5,0.4-1.1,0.5-1.6c-2.1,0.2-4,0.5-5.2,0.7c-1.2,0.2-2,0.2-2.6-0.2c-0.8-0.5-0.8-0.8,0.5-0.7
		c1.7,0,4.4-0.1,7.4-0.3c0-0.4,0-0.7-0.1-1c-0.3-0.6,0-0.9,0.8-0.4c0.9,0.5,0.9,0.7,0.6,1.3c2.2-0.2,3.4-0.3,4.6-0.4
		c2.7-0.4,3.2-0.4,4.2,0.1C71.7,14.3,71.7,15.2,69.3,14.8z M67.1,10.8c0,1.1-0.2,1.8-0.5,2.3c-0.3,0.6-0.7,0.5-1-0.3
		c-0.3-0.7-0.3-0.9,0-1.8c0.3-0.8,0.3-4.3,0.1-5c-0.1-0.5-0.4-0.7-0.9-0.8c-0.9-0.1-2.9,0-7.4,0.7c0.1,1.4,0.1,3.7,0,5.5
		c0,0.6-0.1,1.3-0.3,1.9c-0.2,0.7-0.5,0.6-0.9-0.3c-0.2-0.4-0.2-0.6,0-2c0.3-1.9,0.2-4.6-0.3-5.1c-0.5-0.5-0.3-0.8,0.6-0.7
		c0.2,0,0.3,0.1,0.4,0.1c0.5-0.1,0.9-0.1,1.3-0.2c1.9-2.2,2.1-2.9,2-3.1c-0.2-0.4,0.1-0.6,0.7-0.5c2.5,0.4,2.3,0.9,1.5,1.3
		c-0.4,0.2-2,1.2-3.4,2.3c3.5-0.5,5.2-0.7,5.7-0.9c0.5-0.2,1-0.2,1.6,0.2c1.5,0.8,1.5,0.9,1,1.5C67.2,6.3,67.1,6.7,67.1,10.8z
		 M64,9.1c-0.6,0.1-1.4,0.2-2.1,0.3c0,0.7,0,1.2,0.1,1.7c0.1,0.7,0.1,1.1,0,1.4c-0.1,0.7-0.5,0.6-0.7,0.1c-0.2-0.3-0.2-0.5,0-1.5
		c0.1-0.4,0.1-0.8,0.1-1.3c-0.5,1.2-1.6,2.3-2.6,2.8c-0.5,0.2-0.7,0.1-0.3-0.3c1.1-1,1.7-1.7,2.1-2.5c-1.3,0.1-1.7,0.1-1.9,0.1
		C58,9.5,58,9.3,58.8,9.2c0.8,0,1.7-0.1,2.5-0.3c0-1.2-0.2-2.2-0.3-2.4C60.7,6,60.7,5.9,61.6,6c0.6,0.1,0.7,0.3,0.5,0.9
		c-0.1,0.3-0.2,1-0.2,1.9c0.5-0.1,1-0.2,1.3-0.3c0.5-0.2,0.8-0.2,1.2-0.1C65.1,8.6,64.9,8.9,64,9.1z M59.5,8.2
		c-0.5-0.3-0.6-0.4-0.8-0.7c-0.2-0.3,0-0.5,0.4-0.4c0.4,0,0.8,0.3,1,0.7C60.2,8.2,59.9,8.5,59.5,8.2z M64,11.8
		c-0.5-0.3-1-0.8-1.3-1.2c-0.3-0.3-0.1-0.4,0.3-0.3c0.9,0,1.4,0.4,1.6,1C64.7,11.8,64.3,11.9,64,11.8z M63,7.9
		c-0.2,0.1-0.4-0.1-0.3-0.3c0.3-0.3,0.6-0.8,0.7-1c0.2-0.4,0.3-0.5,0.9-0.2c0.7,0.3,0.7,0.5,0.1,0.7C64.2,7.2,63.7,7.4,63,7.9z"/>
	<path d="M91.3,19.9c-1.2,0-1.5-0.2-2.4-1.3c-1.8-2-2.8-3.4-4.4-6.4c-0.8,3.7-2.8,6.3-7.3,7.3c-0.7,0.1-0.8-0.1-0.1-0.4
		c3.4-1.5,6.1-3.9,6.5-9.1c-0.9,0.2-1.8,0.4-2.6,0.6c-1.2,0.3-1.6,0.3-2.4,0c-0.8-0.4-0.9-0.5,0.1-0.7c1.2-0.1,3.1-0.5,4.9-0.8
		c0.1-4.2-0.1-5.5-0.6-6.2c-0.8-1.1-0.1-1.2,1.3-0.7c1.1,0.4,1.3,0.7,1,1.4c-0.1,0.3-0.2,0.9-0.5,5.2c1.5-0.3,2.8-0.6,3.2-0.7
		c1.5-0.5,2.6-0.6,3.2-0.2c1.3,0.7,1.2,1.3-0.4,1.3c-1.8,0-4,0.3-6.1,0.6c0,0.5-0.1,1-0.2,1.4c1,1.7,2.1,3,3.1,4.1
		c1.9,2,4,2.9,7.4,3.7c0.9,0.2,0.9,0.6,0.1,0.6C93.4,19.9,92.1,20,91.3,19.9z"/>
	<path d="M118.7,20.3c-5,0.1-5.2,0-6-1.2c-1.1-1.4-3.5-5.2-4.6-7.7c-0.7,4.2-2.8,7-7.9,8.2c-0.7,0.2-0.9-0.2,0-0.6
		c4.3-2,6.1-4.3,6.8-9c-1.2,0.2-2.3,0.4-2.7,0.6c-1.1,0.4-1.7,0.4-2.7-0.2c-0.6-0.4-0.6-0.6,0.4-0.6c0.9,0,3.1-0.4,5.1-0.7
		c0.4-3.7,0.1-5.9-0.4-6.4c-0.6-0.6-0.3-1.2,0.9-0.7c1.7,0.7,1.8,1,1.5,1.6c-0.1,0.2-0.3,1.2-0.3,2c0,0.6-0.2,2-0.3,3.3
		c1.3-0.2,2.3-0.4,2.9-0.6c1.2-0.3,2.2-0.3,3.1,0.2c0.7,0.5,0.5,1-1.1,1c-1,0-3.1,0.2-5,0.5c0,0.2,0,0.4-0.1,0.6
		c0.9,1.7,2.7,4.2,3.9,5.4c1.9,1.9,3.9,3,6.6,3.9C119.6,20,119.6,20.3,118.7,20.3z M114.1,6.3c-0.7-0.4-1.6-1.2-2.3-1.9
		c-0.3-0.3-0.3-0.5,0.5-0.5c1.8,0,2.9,0.6,3,1.8C115.3,6.5,114.7,6.7,114.1,6.3z"/>
	<path d="M141.5,17.4c-4.3,0.6-4.4,0.5-5.8-1.2c-0.8-1-2.8-3.3-4.3-4.9c0,1.8,0.1,3.5,0.2,4.7c0.3,2.8,0.1,4.3,0,4.7
		c-0.2,0.9-0.7,0.9-1.1-0.1c-0.4-1-0.4-1.4-0.2-2.9c0.1-0.6,0.4-3.6,0.4-7.4c-2,4.8-4.5,6.7-7.3,8.2c-1,0.5-1.1,0.2-0.6-0.2
		c2.9-2,5.7-5.1,6.8-8c-1.3,0.2-2.4,0.5-3,0.7c-1,0.4-1.5,0.3-2.3-0.1c-0.5-0.3-0.4-0.6,0.4-0.6c0.4,0,3.8-0.5,6.1-0.8
		c0-5.5-0.3-6.8-0.7-7.5c-0.4-0.7-0.2-1,1-0.5c1.4,0.6,1.4,0.8,1.1,1.5c-0.3,0.7-0.5,2.1-0.6,6.4c0.5-0.1,1-0.2,1.2-0.3
		c3.3-0.9,3.9-1,4.8-0.5c0.9,0.5,0.6,1.1-0.8,1c-0.5,0-2.8,0.1-5.2,0.4c0,0.2,0,0.4,0,0.6c4.6,4.5,6.4,5.3,10.2,6.2
		C142.4,16.9,142.5,17.2,141.5,17.4z M127.7,7.9c-0.4-0.3-0.9-0.7-1.5-1.8c-0.3-0.6-0.3-0.7,0.4-0.5c1.6,0.4,1.9,0.7,2,1.8
		C128.6,8,128.3,8.2,127.7,7.9z M133.2,7.4c-0.5,0.4-0.7,0.2-0.3-0.3c1-1.2,1.6-2.4,1.5-3c-0.1-0.7,0.2-0.8,1.2-0.4
		c1.4,0.6,1.4,1,0.7,1.4C135.6,5.6,134.6,6.3,133.2,7.4z"/>
</g>
<path d="M-20.7,16.2c-0.8-0.2-3.6-0.3-7.7-0.1c3.4,3,4.7,3.7,8.2,4.5c1.7,0.4,1.8,0.7,0.5,0.9c-0.6,0.1-2.3,0.3-2.8,0.3
	c-1,0-1.4-0.2-2.2-1c-1.1-1.2-2.8-3-3.9-4.3c-0.1,0.8-0.6,1.9-1.1,2.6c-1.1,1.5-3.6,2.4-5.2,2.5c-1.2,0.1-1.1-0.3-0.3-0.5
	c2.1-0.5,4-1.4,4.9-3.2c0.2-0.5,0.4-1.1,0.5-1.6c-2.1,0.2-4,0.5-5.2,0.7c-1.2,0.2-2,0.2-2.6-0.2c-0.8-0.5-0.8-0.8,0.5-0.7
	c1.7,0,4.4-0.1,7.4-0.3c0-0.4,0-0.7-0.1-1c-0.3-0.6,0-0.9,0.8-0.4c0.9,0.5,0.9,0.7,0.6,1.3c2.2-0.2,3.4-0.3,4.6-0.4
	c2.7-0.4,3.2-0.4,4.2,0.1C-18.4,15.7-18.4,16.6-20.7,16.2z"/>
<path d="M-30.8,6.4c3.5-0.5,5.2-0.7,5.7-0.9c0.5-0.2,1-0.2,1.6,0.2c1.5,0.8,1.5,0.9,1,1.5c-0.4,0.5-0.5,0.9-0.5,5
	c0,1.1-0.2,1.8-0.5,2.3c-0.3,0.6-0.7,0.5-1-0.3c-0.3-0.7-0.3-0.9,0-1.8c0.3-0.8,0.3-4.3,0.1-5c-0.1-0.5-0.4-0.7-0.9-0.8
	c-0.9-0.1-2.9,0-7.4,0.7c0.1,1.4,0.1,3.7,0,5.5c0,0.6-0.1,1.3-0.3,1.9c-0.2,0.7-0.5,0.6-0.9-0.3c-0.2-0.4-0.2-0.6,0-2
	c0.3-1.9,0.2-4.6-0.3-5.1c-0.5-0.5-0.3-0.8,0.6-0.7c0.2,0,0.3,0.1,0.4,0.1c0.5-0.1,0.9-0.1,1.3-0.2"/>
<path d="M-26.1,10.4c-0.6,0.1-1.4,0.2-2.1,0.3c0,0.7,0,1.2,0.1,1.7c0.1,0.7,0.1,1.1,0,1.4c-0.1,0.7-0.5,0.6-0.7,0.1
	c-0.2-0.3-0.2-0.5,0-1.5c0.1-0.4,0.1-0.8,0.1-1.3c-0.5,1.2-1.6,2.3-2.6,2.8c-0.5,0.2-0.7,0.1-0.3-0.3c1.1-1,1.7-1.7,2.1-2.5
	c-1.3,0.1-1.7,0.1-1.9,0.1c-0.6-0.2-0.6-0.4,0.2-0.4c0.8,0,1.7-0.1,2.5-0.3c0-1.2-0.2-2.2-0.3-2.4c-0.4-0.6-0.3-0.7,0.6-0.6
	c0.6,0.1,0.7,0.3,0.5,0.9c-0.1,0.3-0.2,1-0.2,1.9c0.5-0.1,1-0.2,1.3-0.3c0.5-0.2,0.8-0.2,1.2-0.1C-25,9.9-25.2,10.2-26.1,10.4z"/>
<path d="M-30.6,9.5c-0.5-0.3-0.6-0.4-0.8-0.7c-0.2-0.3,0-0.5,0.4-0.4c0.4,0,0.8,0.3,1,0.7C-29.9,9.6-30.2,9.8-30.6,9.5z"/>
<path d="M-26.1,13.1c-0.5-0.3-1-0.8-1.3-1.2c-0.3-0.3-0.1-0.4,0.3-0.3c0.9,0,1.4,0.4,1.6,1C-25.4,13.1-25.8,13.3-26.1,13.1z"/>
<path d="M-27.1,9.2c-0.2,0.1-0.4-0.1-0.3-0.3c0.3-0.3,0.6-0.8,0.7-1c0.2-0.4,0.3-0.5,0.9-0.2c0.7,0.3,0.7,0.5,0.1,0.7
	C-25.9,8.5-26.3,8.7-27.1,9.2z"/>
<g>
	<path d="M13.3,13.1c-0.3,0.2-0.9,0.9-1.9,2.2c-0.9,1.3-2.2,2.5-3.8,3.8c-1.6,1.3-3.2,2.1-5,2.6c-1.8,0.5-2,0.4-0.7-0.3
		c1.3-0.6,2.6-1.5,4-2.5c1.4-1,2.7-2.3,3.9-3.9c1.3-1.6,1.8-2.7,1.8-3.3c-0.1-0.6,0.1-0.8,0.6-0.5c0.5,0.3,0.9,0.7,1.1,1
		C13.6,12.6,13.6,12.9,13.3,13.1z M6.3,9.8c0.2,0.5,0.3,1.1,0.2,1.9c-0.1,0.8-0.3,1.5-0.7,2.1c-0.4,0.6-0.7,0.6-0.9,0
		c-0.2-0.6-0.2-1.1,0-1.6c0.3-0.5,0.5-1.1,0.7-1.9C5.9,9.4,6.1,9.3,6.3,9.8z M10.3,6.1C10.1,6.3,10,7.2,10,8.8c0,1.6,0,3.1-0.2,4.1
		c-0.1,1-0.3,1.3-0.6,1c-0.3-0.3-0.5-0.6-0.6-1c-0.1-0.4-0.1-0.8,0-1.3c0.1-0.4,0.2-1.1,0.2-1.9c0-0.9,0-1.2,0-2
		C8.9,7,8.7,6.4,8.3,6C8,5.6,8,5.5,8.5,5.5C9,5.6,9.5,5.3,10,5.5C10.4,5.6,10.5,5.8,10.3,6.1z M16.1,9.6c0.3,0.5,0.4,0.9,0.3,1.3
		c-0.1,0.4-0.5,0.3-1.3-0.1c-0.8-0.4-1.5-0.9-2.2-1.5c-0.7-0.6-0.8-0.9-0.3-0.9c0.5-0.1,1.1,0,1.8,0.3C15.3,8.7,15.8,9.1,16.1,9.6z"
		/>
</g>
<path d="M9.3,6.3C7.5,6.6,6.1,6.7,5.6,6.5C4.8,6.1,4.8,5.9,5.5,5.8C6.4,5.7,9.3,5.1,10,4.9c1.1-0.3,1.8-0.5,2.4-0.4
	c1.4,0.1,1.6,0.9,0.4,1.2C12.2,5.8,10.8,6,9.9,6.2"/>
</svg>
