<?xml version="1.0" encoding="iso-8859-1"?>
<!-- Generator: Adobe Illustrator 22.1.0, SVG Export Plug-In . SVG Version: 6.00 Build 0)  -->
<svg version="1.1" id="Layer_1" xmlns="http://www.w3.org/2000/svg" xmlns:xlink="http://www.w3.org/1999/xlink" x="0px" y="0px"
	 viewBox="0 0 22 22" style="enable-background:new 0 0 22 22;" xml:space="preserve">
<g>
	<path d="M8.958,17.511c-0.584,0.75-0.762,0.722-1.194-0.083c-0.457-0.943-0.28-1.61,0.076-2.026
		c0.838-0.943,0.94-1.166,1.042-3.914C8.984,8.99,8.73,6.382,8.375,5.993C7.257,4.799,7.942,4.3,9.288,4.994
		c1.296,0.722,1.423,0.888,1.042,2.387c-0.077,0.306-0.152,0.805-0.204,1.666c2.159-1.138,3.099-1.416,3.505-1.332
		c1.067,0.25,1.067,0.666,0.356,1.027c-0.965,0.472-2.843,1.055-3.91,0.943c-0.077,1.11-0.153,2.692-0.254,4.913
		c2.717-1.305,4.063-1.86,4.8-2.137c0.457-0.167,0.686,0.083,0.153,0.444C11.143,15.346,10,16.152,8.958,17.511z"/>
</g>
</svg>
