<?xml version="1.0" encoding="iso-8859-1"?>
<!-- Generator: Adobe Illustrator 22.1.0, SVG Export Plug-In . SVG Version: 6.00 Build 0)  -->
<svg version="1.1" id="Layer_1" xmlns="http://www.w3.org/2000/svg" xmlns:xlink="http://www.w3.org/1999/xlink" x="0px" y="0px"
	 viewBox="0 0 22 22" style="enable-background:new 0 0 22 22;" xml:space="preserve">
<g>
	<path d="M-13.834,17.767c-0.601,1.201-1.01,1.146-1.474,0.246c-0.573-1.092-0.573-1.255-0.136-1.856
		c0.873-1.228,1.092-1.883,1.337-7.232c0.055-1.037-0.082-1.064-0.464-0.928c-0.3,0.109-1.392,0.518-2.729,1.092
		c-0.792,0.355-1.31,0.382-2.047-0.3c-0.737-0.655-0.655-0.846,0.491-0.819c1.528,0.055,3.985-0.792,4.612-1.638
		c0.546-0.71,0.901-0.846,1.829-0.437c1.092,0.491,1.228,0.846,0.491,1.419c-0.737,0.601-0.982,1.965-1.31,7.423
		c1.119-1.065,2.592-2.347,3.029-2.675c0.791-0.601,0.982-0.218,0.3,0.573C-11.842,14.875-13.398,16.839-13.834,17.767z"/>
</g>
<g>
	<path d="M-28.343,6.169c0.574-0.09,1.052-0.192,1.314-0.268c1.362-0.398,1.744-0.376,2.342,0.085c0.454,0.36,0.382,0.706,0,0.848
		c-0.67,0.241-1.41,0.392-3.752,0.827c-0.096,1.41,0.068,3.938-0.028,5.946c0.932-0.821,2.964-2.586,3.347-2.859
		c0.669-0.396,0.861,0.091,0.406,0.548c-2.675,2.8-4.301,4.84-4.946,6.057c-0.406,0.762-0.764,0.762-1.003-0.578
		c-0.192-1.096-0.168-1.461,0.215-1.887c1.146-1.279,0.958-3.478,1.015-7.054c-0.239,0.068-0.486,0.028-1.283-0.596
		c-0.29-0.202-0.258-0.466,0.101-0.589c0.382-0.13,0.628-0.176,1.196-0.291L-28.343,6.169z"/>
</g>
<g>
	<path d="M66.766,11.081c-0.135,0.742-0.248,0.966-0.697,1.664c-0.292,0.427-0.562,0.472-0.809,0.09
		c-0.271-0.494-0.54-0.787-0.787-0.967c-0.427-0.314-0.382-0.472-0.045-0.449c0.899,0.045,1.057-0.045,1.124-0.427
		c0.157-0.629,0.202-0.989,0.202-1.191c0-0.606-0.225-0.697-0.81-0.651c-0.337,0.022-0.988,0.112-1.775,0.247
		c-0.045,1.753-0.18,5.259-0.112,7.462c0.045,1.326-0.045,2.427-0.157,2.854c-0.247,0.966-0.584,0.966-1.012-0.226
		c-0.27-0.674-0.27-0.876,0.022-1.753c0.135-0.472,0.27-1.82,0.383-4.562c-1.642,2.72-4.001,4.428-5.462,5.013
		c-0.63,0.247-0.675-0.022-0.202-0.338c2.022-1.483,4.562-3.955,5.731-6.495c0.022-0.562,0.045-1.191,0.045-1.821
		c-1.169,0.225-1.911,0.337-2.518,0.405c0.157,0.539,0.18,0.809,0.27,1.596c0.067,0.674,0.067,0.944-0.022,1.326
		c-0.18,0.674-0.517,0.562-0.764-0.067c-0.091-0.225-0.113-0.675-0.136-0.854c-0.067-0.921-0.337-1.73-0.719-2.112
		c-0.359-0.427-0.18-0.787,0.944-0.382c0.674-0.067,1.506-0.225,2.944-0.472c0.022-0.787,0.022-1.438,0.022-2.022
		c-0.944,0.09-1.709,0.045-2.113-0.045c-0.651-0.202-0.629-0.472,0.022-0.562c0.63-0.09,1.281-0.18,2.091-0.427
		c0-1.686-0.09-2.315-0.338-2.607c-0.741-0.899-0.449-1.146,0.607-0.764c1.259,0.405,1.259,0.584,0.989,1.438
		c-0.113,0.337-0.226,0.877-0.315,1.641c1.461-0.427,1.934-0.472,2.293-0.248c0.539,0.292,0.382,0.652-0.675,0.989
		c-0.584,0.202-1.146,0.359-1.708,0.449c-0.022,0.562-0.067,1.214-0.09,2c1.102-0.225,1.956-0.45,2.136-0.562
		c0.382-0.247,0.786-0.202,1.573,0.18c0.765,0.337,0.787,0.517,0.382,0.966C67.058,9.642,66.946,10.047,66.766,11.081z
		 M65.934,16.654c-0.562-0.337-1.753-1.708-2.157-2.472c-0.203-0.359-0.112-0.428,0.359-0.27c1.326,0.382,2.27,1.371,2.405,1.865
		C66.766,16.542,66.451,17.015,65.934,16.654z"/>
</g>
<text transform="matrix(1 0 0 1 -58.0131 20.251)" style="font-family:'AdobeKaitiStd-Regular-GBpc-EUC-H'; font-size:22.4741px;">&#x523A;</text>
<g>
	<path d="M38.095,10.002c-0.697,0.404-1.236,0.562-2.203,0.472l-0.18,4.405c0.697-0.202,1.259-0.382,1.528-0.449
		c0.383-0.112,0.72-0.112,0.81,0.067c0.045,0.112-0.135,0.314-0.629,0.494c-3.507,1.349-5.777,2.405-6.339,2.81
		c-0.54,0.405-0.764,0.36-1.596-0.27c-0.719-0.562-0.472-0.989,0.068-0.967c0.337,0.022,1.393-0.202,2.248-0.449
		c-0.315-4.428-0.472-5.012-0.899-5.709c-0.382-0.607-0.157-0.764,0.81-0.494c1.056,0.314,1.168,0.472,1.079,1.281
		c-0.112,0.809-0.09,1.506,0.09,4.585c0.495-0.157,1.169-0.382,1.798-0.562c0.18-7.507,0.112-8.407-0.517-9.44
		c-0.427-0.719-0.382-1.034,0.719-0.629c1.596,0.584,1.664,0.832,1.327,1.551c-0.09,0.18-0.203,1.281-0.293,2.989
		c1.349-0.674,1.642-0.697,2.226-0.562C38.589,9.238,38.656,9.665,38.095,10.002z"/>
</g>
<g>
	<path d="M13.954,15.184c-0.167-0.263-0.382-0.669-0.645-1.123c-3.13,1.648-4.038,2.246-4.827,2.986
		c-0.454,0.431-0.598,0.358-1.004-0.406c-0.382-0.717-0.311-1.099,0.072-1.242c0.597-0.239,1.003-0.693,1.936-2.771
		c0.574-1.243,0.789-2.031,0.741-2.605c-2.342,0.574-3.297,0.598-3.895,0.358c-0.501-0.191-0.43-0.406-0.024-0.478
		c1.386-0.263,3.775-0.884,4.445-1.17c1.529-0.622,2.509-0.812,3.393-0.646c0.55,0.096,0.621,0.454,0.215,0.693
		c-0.358,0.215-1.481,0.598-3.226,1.028c0.765,0.717,0.789,0.979,0.382,1.41c-0.454,0.502-0.932,1.194-2.222,3.346
		c-0.215,0.358-0.072,0.525,0.287,0.406c0.645-0.216,2.485-0.908,3.489-1.362c-0.239-0.502-0.454-1.004-0.622-1.338
		c-0.167-0.358-0.024-0.502,0.454-0.216c1.505,0.908,2.103,1.864,2.126,2.916C15.053,15.876,14.456,16.02,13.954,15.184z"/>
</g>
<path d="M10.998,7.155c-0.47-0.328-0.892-1.196-1.29-2.181c-0.164-0.445-0.07-0.516,0.445-0.492c1.313,0.094,1.853,1.36,1.688,2.205
	C11.701,7.249,11.373,7.39,10.998,7.155z"/>
</svg>
