<?xml version="1.0" encoding="utf-8"?>
<!-- Generator: Adobe Illustrator 22.1.0, SVG Export Plug-In . SVG Version: 6.00 Build 0)  -->
<svg version="1.1" id="Layer_1" xmlns="http://www.w3.org/2000/svg" xmlns:xlink="http://www.w3.org/1999/xlink" x="0px" y="0px"
	 viewBox="0 0 22 22" style="enable-background:new 0 0 22 22;" xml:space="preserve">
<path d="M43.1,9.3c-0.3,1.2-0.9,2.7-1.4,3.9c1.9,2.1,2.2,2.6,2.2,3.2c0.1,1.7-0.7,1.9-1.6,0.1c-0.3-0.6-0.7-1.3-1.2-2.1
	c-1.5,2.8-2.8,4.2-5,5.5c-0.7,0.4-0.9,0.1-0.2-0.5c1.8-1.5,3.2-3.2,4.5-6c-0.7-0.9-1.6-2-2.8-3.3c-0.4-0.5-0.5-0.8-0.3-0.9
	c0.2-0.1,0.4,0,0.8,0.3c1.1,1.1,2,2.1,2.8,2.8c0.5-1.4,0.9-3.3,1-4.6c0.1-0.9-0.1-0.9-0.5-0.8c-4,1.2-4.6,1.2-5,0.9
	c-0.7-0.4-0.6-0.6,0.1-0.7c1.2-0.1,4.2-0.7,5.1-1.3c0.8-0.5,1-0.5,1.9,0c1.2,0.7,1.2,0.9,0.5,1.5C43.6,7.9,43.5,8,43.1,9.3z"/>
<path d="M40,10.1c-0.3-0.2-0.9-0.9-1.3-1.3c-0.3-0.4-0.3-0.7,0.3-0.7c1.2,0,1.8,0.5,1.8,1.5C40.8,10.3,40.5,10.4,40,10.1z"/>
<g>
	<path d="M4.9,19c-0.6,0.5-0.8,0.2-0.4-0.3c1.5-1.9,2.4-4.3,2.8-7C7.7,9,7.7,7.4,7.4,6.5c-0.3-0.7,0-1,1.1-0.5
		c1.6-0.3,2.7-0.6,3.2-1c0.3-0.2,0.6-0.3,1.1-0.1c1.5,0.6,1.5,0.9,1.2,1.2c-0.5,0.5-0.6,1-1.3,3.2c-0.1,0.3-0.1,0.5,0.3,0.6
		c0.5,0.2,0.4,0.7-0.4,0.8c-1.5,0.2-2.8,0.4-2.9,0.5c-0.2,0-0.6,0.1-1,0.2C7.8,15.2,6.8,17.3,4.9,19z M8.6,10.8
		c0.8-0.2,1.8-0.4,2.4-0.6c0.4-0.1,0.6-0.6,0.9-3.3c0.1-0.6-0.2-0.8-0.8-0.7c-0.6,0.2-1.4,0.3-2.3,0.5C8.9,7.8,8.8,9.4,8.6,10.8z"/>
</g>
<g>
	<path d="M28.2-3.8c-0.4,0.4-0.7,0.5-0.8-0.3c-0.1-0.8,0-1.1,0.5-1.5c0.6-0.5,1.2-1.3,1.6-2c0.3-0.5,0.6-0.5,0.6,0.2
		C30.2-6,29.8-5.2,28.2-3.8z M38.5-14.9c-1.2,0-2.5,0.1-5.9,0.5c-0.6,1.2-2.3,3.8-2.9,4.6c0.9-0.1,2.6-0.4,4.1-0.5
		c-0.1-1.3-0.2-1.9-0.4-2.4c-0.3-0.6-0.2-0.8,0.8-0.5c0.8,0.3,0.9,0.4,0.6,1.1c-0.1,0.2-0.1,0.7-0.1,1.6c0.7-0.1,1.2-0.2,1.5-0.3
		c1.3-0.3,1.6-0.4,2.3,0c0.8,0.4,0.8,0.9-0.1,0.9c-1.3,0-2.7,0.1-3.7,0.2c0,0.4,0,0.9,0,1.4c0,1.5,0.1,2.6,0.2,3.6
		c0.1,1.2-0.2,1.9-0.9,2.7c-0.3,0.4-0.6,0.3-0.8,0c-0.5-0.6-1-1.2-1.7-1.8c-0.2-0.2-0.2-0.4,0.2-0.3c1.6,0.3,1.8,0.2,1.9-0.6
		c0.1-1,0.2-1.7,0.1-3.4c0-0.6,0-1.1,0-1.6c-2.9,0.3-4,0.5-4.6,0.9c-0.6,0.4-0.9,0.4-1.2-0.2c-0.2-0.4-0.1-0.8,0.2-0.9
		c0.8-0.4,1.9-1.8,3.3-4.5c-2.5,0.5-2.8,0.5-3.6,0.1c-0.6-0.2-0.5-0.5,0.2-0.5c0.5,0,2.5-0.3,3.8-0.5c0.9-1.9,1.2-3.1,0.8-3.9
		c-0.3-0.6,0.2-0.9,1.2-0.2c1,0.6,1.1,0.9,0.7,1.3c-0.4,0.5-1,1.5-1.7,2.7c1.6-0.3,2.4-0.5,3.4-0.7c1.7-0.4,2-0.4,3.1,0.1
		C40.3-15.4,40-14.8,38.5-14.9z M39.6-4.3c-0.4-0.4-1.7-1.9-2.5-2.9c-0.4-0.4-0.3-0.5,0.2-0.4c3,0.7,3.7,2.1,3.5,3.2
		C40.8-3.5,40.4-3.5,39.6-4.3z"/>
	<path d="M59-2.8c-0.8,0.2-2.2,0.1-5.8-1.4c-2.4-1-2.7-1.1-3-1.2c-1.1-0.3-1.9-0.1-3.3,0.6c-0.3,0.1-0.7,0.1-1.2-0.4
		c-0.3-0.4-0.3-0.6,0.2-0.6c0.3,0,1.8-0.2,2.3-0.3c0.2,0,0.5-0.1,0.8-0.1c0-1-0.1-1.4-0.4-2c-0.4-0.8-0.5-1.2-0.1-2.7
		c0.1-0.3,0.1-0.4-1-0.1c-0.3,0.1-0.8,0.2-1.3,0c-0.2-0.1-0.4-0.3,0-0.4c0.6-0.1,1.7-0.6,2.2-1c0.3-0.2,0.4-0.3,1.3,0.1
		c0.7,0.3,0.7,0.4,0.3,0.8c-1,0.9-1.1,2.2-0.8,2.8C49.8-7.6,49.9-7,49.6-6c0.5,0.1,1,0.1,1.5,0.3c4.2,1.4,5.5,1.5,11.9,1.2
		c0.6,0,0.6,0.2,0.2,0.4C61.6-3.6,60.4-3.1,59-2.8z M49.5-14.7c-0.5-0.3-1.1-0.9-1.7-1.6c-0.3-0.4-0.3-0.5,0.4-0.5
		c1.5,0.1,2.3,0.6,2.3,1.7C50.4-14.7,49.9-14.4,49.5-14.7z M59.5-12c-0.5,4.3-0.8,4.8-1.9,5.8C57.4-6,57.1-6,56.9-6.5
		c-0.2-0.3-0.8-1.1-1.3-1.5c-0.2-0.2-0.2-0.3,0.3-0.2c1.5,0.3,1.5,0.2,2-0.9c0.3-0.9,0.6-2.8,0.6-3.7c0-1.1-0.1-1.2-0.8-1.2
		C57.4-14,57-14,56-13.7c-0.7,3.2-1.9,5.9-4.8,7.4c-0.5,0.2-0.5,0-0.2-0.3c2.6-2.4,3.3-4.2,3.9-6.9c-0.5,0.1-1,0.3-1.7,0.5
		c-0.7,0.2-1,0.1-1.3-0.1c-0.7-0.4-0.5-0.7,0.6-0.6c0.3,0,1.4-0.2,2.5-0.4c0.4-2.1,0.3-3.4,0-3.8c-0.4-0.7-0.3-1,1.1-0.4
		c1,0.4,1,0.6,0.6,1.4c-0.2,0.3-0.3,0.9-0.6,2.6c0.9-0.2,1.7-0.4,1.9-0.6c0.5-0.3,0.8-0.3,1.7,0.3c0.8,0.5,0.9,0.7,0.4,1.2
		C59.8-13.2,59.6-12.8,59.5-12z"/>
</g>
<path d="M12.4,15.5c-0.4-0.4-1.5-1.7-2.2-2.5c-0.3-0.4-0.2-0.5,0.2-0.4c2.6,0.6,3.3,1.9,3.1,2.8C13.4,16.2,13,16.2,12.4,15.5z"/>
</svg>
