<?xml version="1.0" encoding="iso-8859-1"?>
<!-- Generator: Adobe Illustrator 22.1.0, SVG Export Plug-In . SVG Version: 6.00 Build 0)  -->
<svg version="1.1" id="Layer_1" xmlns="http://www.w3.org/2000/svg" xmlns:xlink="http://www.w3.org/1999/xlink" x="0px" y="0px"
	 viewBox="0 0 22 22" style="enable-background:new 0 0 22 22;" xml:space="preserve">
<g>
	<path d="M11.446,9.203c-0.126,1.832-0.301,3.464-0.552,4.619c2.384,0.828,2.937,1.681,2.812,3.037
		c-0.05,0.678-0.552,0.803-0.979,0.225c-1.18-1.556-1.606-2.183-1.908-2.911c-0.703,2.811-1.707,4.568-4.418,6.25
		c-0.577,0.351-0.853,0.075-0.427-0.351c2.862-2.686,3.866-5.397,4.192-10.166c0.377-5.371,0.251-6.777-0.401-7.781
		c-0.502-0.778-0.176-1.029,0.878-0.628c1.707,0.678,1.807,1.029,1.38,1.933c-0.251,0.552-0.276,0.753-0.552,5.096"/>
</g>
<g>
	<path d="M10.207,9.121C6.893,9.874,6.642,9.824,6.039,9.598C5.211,9.297,5.262,9.046,6.09,8.945
		c0.904-0.075,2.912-0.452,4.593-0.878l0.929-0.276c1.882-0.527,2.209-0.602,2.635-0.527c0.703,0.201,0.502,0.803-0.451,1.029
		c-0.829,0.2-1.581,0.376-2.26,0.527L10.207,9.121z"/>
</g>
</svg>
