<?xml version="1.0" encoding="iso-8859-1"?>
<!-- Generator: Adobe Illustrator 22.1.0, SVG Export Plug-In . SVG Version: 6.00 Build 0)  -->
<svg version="1.1" id="Layer_1" xmlns="http://www.w3.org/2000/svg" xmlns:xlink="http://www.w3.org/1999/xlink" x="0px" y="0px"
	 viewBox="0 0 22 22" style="enable-background:new 0 0 22 22;" xml:space="preserve">
<g>
	<path d="M57.606,20.302c1.095-0.065,2.669-0.322,4.279-0.644c0.031-0.901,0.031-1.994,0.031-3.119
		c-1.996,0.321-2.574,0.192-3.088-0.161c-0.419-0.258-0.354-0.643,0.194-0.708c0.995-0.128,2.058-0.321,2.925-0.482
		c0-0.965,0-1.994,0-2.862c-2.155,0.322-2.606,0.257-3.022-0.064c-0.516-0.386-0.45-0.676,0.128-0.74
		c0.482-0.064,1.802-0.354,2.862-0.579c-0.031-1.833-0.097-2.542-0.419-3.12c-1.802,0.289-2.412,0.258-2.959,0
		c-0.835-0.386-0.739-0.707,0-0.804c1.705-0.257,4.182-0.804,6.112-1.416c0.835-0.257,2.09-0.385,2.381-0.192
		c0.642,0.418,0.482,0.773-0.516,1.351c-0.225,0.128-0.964,0.321-3.601,0.835c0.739,0.515,0.835,0.934,0.77,1.287
		c-0.063,0.225-0.128,0.932-0.191,1.544c1.446-0.483,2.024-0.547,2.637-0.289c0.513,0.225,0.642,0.707-0.225,1.061
		c-0.644,0.258-1.642,0.579-2.412,0.804c0,0.804,0,1.769-0.034,2.798c2.058-0.515,2.543-0.579,3.025-0.385
		c0.416,0.16,0.547,0.707,0.257,0.9c-0.385,0.289-1.158,0.515-3.281,0.934c-0.031,1.125-0.031,2.154-0.031,3.088
		c1.061-0.225,2.027-0.419,2.928-0.58c1.608-0.321,3.054-0.096,3.57,0.644c0.61,0.868-0.031,1.447-2.574,1.158
		c-1.092-0.161-4.436,0.128-7.943,0.804c-0.547,0.097-1.126,0.064-1.802-0.097"/>
</g>
<g>
	<path d="M46.986,19.7c-0.885-0.13-3.594,0.104-6.434,0.651c-0.443,0.078-0.912,0.052-1.46-0.078
		c0.025,1.824-0.025,3.492-0.261,4.091c-0.259,0.702-0.624,0.938-1.171-0.027c-0.261-0.442-0.418-1.433-0.157-2.943
		c0.443-2.476,0.522-9.197,0.104-11.933c-0.912,1.433-1.797,2.475-2.97,3.335c-0.469,0.338-0.704,0.052-0.39-0.338
		c2.005-2.762,3.282-4.846,4.116-7.374c0.339-0.99,0.496-2.266,0.392-2.684c-0.157-0.625,0.286-0.781,0.885-0.546
		c0.547,0.234,0.938,0.39,1.303,0.677c0.235,0.182,0.208,0.651-0.051,0.939c-0.314,0.338-0.575,0.859-1.173,2.084
		c-0.626,1.251-1.173,2.267-1.667,3.152c0.859,0.911,1.016,1.38,0.991,2.162c-0.053,2.136-0.028,5.29,0.051,8.625
		c0.887-0.053,2.162-0.261,3.466-0.522c0.025-0.73,0.025-1.615,0.025-2.527c-1.617,0.26-2.085,0.156-2.501-0.13
		c-0.339-0.209-0.286-0.521,0.157-0.574c0.806-0.104,1.667-0.26,2.37-0.39c0-0.782,0-1.615,0-2.319
		c-1.746,0.261-2.111,0.208-2.448-0.052c-0.418-0.313-0.365-0.547,0.104-0.599c0.39-0.052,1.46-0.286,2.319-0.469
		c-0.025-1.485-0.078-2.059-0.339-2.528c-1.46,0.234-1.954,0.209-2.397,0c-0.677-0.313-0.598-0.573,0-0.651
		c1.381-0.208,3.388-0.651,4.951-1.147c0.677-0.208,1.693-0.312,1.928-0.156c0.52,0.338,0.39,0.626-0.418,1.095
		c-0.182,0.104-0.781,0.26-2.917,0.677c0.598,0.417,0.677,0.756,0.624,1.043c-0.051,0.182-0.104,0.755-0.155,1.251
		c1.171-0.391,1.64-0.443,2.136-0.234c0.416,0.182,0.52,0.573-0.182,0.859c-0.522,0.209-1.33,0.469-1.954,0.651
		c0,0.651,0,1.433-0.028,2.267c1.667-0.417,2.06-0.469,2.45-0.312c0.337,0.129,0.443,0.573,0.208,0.729
		c-0.312,0.234-0.938,0.417-2.658,0.756c-0.025,0.911-0.025,1.745-0.025,2.501c0.859-0.182,1.642-0.339,2.372-0.47
		c1.303-0.26,2.474-0.077,2.891,0.522C49.565,19.466,49.045,19.934,46.986,19.7z"/>
</g>
<g>
	<path d="M-10.475,5.848c0.384-0.091,0.632-0.181,0.768-0.271C-8.556,5.08-8.036,5.034-7.742,5.17
		c0.475,0.181,0.564,0.542,0.226,0.813c-0.406,0.316-1.151,0.587-3.026,1.039c-0.045,0.791-0.067,1.22-0.09,2.597
		C-9.707,9.438-9.12,9.28-8.465,9.032c1.671-0.61,2.055-0.497,2.552-0.226c0.384,0.203,0.429,0.678-0.271,0.836
		c-1.311,0.293-2.778,0.632-4.449,0.993v0.136c3.342,4.178,4.878,5.239,7.972,6.188c0.384,0.113,0.406,0.452-0.091,0.497
		c-3.5,0.316-3.929,0.136-4.72-1.062c-1.038-1.535-2.416-3.568-3.161-4.72c0.022,3.41,0.09,5.601,0.113,6.188
		c0.112,2.056,0.09,2.417-0.316,3.274c-0.227,0.52-0.678,0.52-0.881-0.181c-0.271-0.768-0.43-1.332-0.181-2.371
		c0.294-1.084,0.339-2.438,0.406-7.52c-1.874,3.929-4.336,6.166-7.362,7.362c-0.429,0.181-0.565-0.067-0.226-0.338
		c3.297-2.529,4.811-4.088,6.526-7.069c-0.654,0.113-1.287,0.249-1.581,0.316c-0.7,0.181-1.31,0.113-1.671-0.067
		c-0.587-0.294-0.609-0.542-0.045-0.587s2.958-0.497,4.358-0.858c0.022-0.7,0.022-1.581,0-2.597
		c-1.196,0.249-1.852,0.249-2.394,0.068c-0.497-0.158-0.497-0.565-0.113-0.61c0.452-0.045,1.423-0.249,2.484-0.542"/>
</g>
<g>
	<path d="M30.852,9.896c-0.041,1.769-0.144,6.294-0.184,7.528c-0.062,1.645-0.145,2.118-0.432,2.817
		c-0.184,0.452-0.391,0.535-0.72-0.102c-0.391-0.679-0.493-1.276-0.267-1.625c0.226-0.412,0.411-1.563,0.555-3.044
		c-0.555,0.082-1.337,0.267-1.748,0.412c-1.255,0.452-1.543,0.493-2.283,0.226c-0.597-0.247-0.432-0.536,0.061-0.597
		c0.35-0.041,0.823-0.144,1.172-0.267c1.378-0.452,2.283-0.597,2.838-0.432c0.061-0.637,0.082-1.357,0.103-2.077
		c-0.37,0.061-0.679,0.124-1.07,0.205c-0.967,0.206-1.378,0.185-1.748-0.02c-0.329-0.206-0.267-0.432,0.206-0.515
		c0.37-0.061,0.925-0.184,1.481-0.329c0.37-0.082,0.761-0.082,1.131,0.082c0.021-0.699,0.021-1.399,0-2.077
		c-0.288,0.02-0.576,0.082-1.646,0.329c-0.391,0.082-0.905,0-1.213-0.246c-0.247-0.206-0.227-0.35,0.226-0.412
		c0.391-0.061,0.822-0.144,1.254-0.308c0.432-0.123,0.782-0.144,1.337,0.062c-0.102-2.036-0.205-2.715-0.493-3.085
		c-0.617-0.72-0.288-1.008,0.617-0.576c1.11,0.535,1.255,0.802,0.966,1.522C30.935,7.552,30.873,8.724,30.852,9.896z M38.461,15.12
		c-0.617,0.124-1.604,0.289-2.632,0.371c-0.802,0.061-1.111,0.041-1.686-0.206c0,1.337,0.02,2.406,0.041,2.983
		c0.082,1.748,0.021,2.591-0.226,3.167c-0.205,0.473-0.535,0.555-0.802,0.021c-0.308-0.679-0.472-1.399-0.349-1.913
		c0.308-1.172,0.494-3.002,0.452-10.283c-0.021-2.838-0.185-4.072-0.452-4.483C32.25,3.911,32.744,3.85,33.484,4.2
		c1.378,0.699,1.399,0.843,1.111,1.645c-0.247,0.638-0.308,1.357-0.37,3.044c0.658-0.123,0.966-0.247,1.809-0.597
		c0.678-0.288,1.008-0.329,1.46-0.185c0.823,0.246,0.679,0.74-0.411,1.008c-1.687,0.452-1.996,0.514-2.859,0.185
		c-0.021,0.843-0.042,1.727-0.062,2.613c0.453-0.104,0.844-0.227,1.419-0.515c0.473-0.206,1.131-0.288,1.358-0.165
		c0.493,0.267,0.328,0.72-0.618,0.946c-0.966,0.247-1.522,0.308-2.159,0.205c-0.02,0.885-0.02,1.79-0.02,2.571
		c0.637-0.061,1.275-0.226,2.715-0.678c0.782-0.247,1.357-0.247,1.851-0.021C39.201,14.483,39.222,14.955,38.461,15.12z"/>
</g>
<g>
	<path d="M75.713,20.45c-0.888,1.421-1.193,1.446-1.776,0.152c-0.355-0.812-0.279-1.218,0.381-1.929
		c0.38-0.38,0.634-1.065,0.71-1.573c0.203-1.243,0.253-1.675,0.228-4.923c0-0.837-0.126-0.888-0.482-0.761
		c-0.229,0.076-1.421,0.533-1.649,0.66c-0.71,0.38-1.167,0.38-1.954-0.127c-0.812-0.558-0.736-0.888,0.33-0.888
		s3.146-0.71,3.553-1.192c0.761-0.837,0.99-0.888,1.675-0.533c1.167,0.508,1.218,0.736,0.533,1.447
		c-0.609,0.66-0.99,1.954-1.015,6.978c0.964-0.812,2.334-1.802,2.741-2.081c0.787-0.558,1.04-0.178,0.229,0.559
		C78.784,16.619,75.891,20.172,75.713,20.45z M77.287,6.342c-0.406-0.305-1.319-1.117-2.106-2.004
		c-0.559-0.686-0.432-0.914,0.431-0.837c1.624,0.126,2.639,0.913,2.868,1.649C78.809,6.215,78.226,7.052,77.287,6.342z
		 M92.208,20.45c-1.218,0.762-3.73,1.346-5.913,1.193c-4.162-0.305-5.252-1.497-4.746-6.699c0.102-1.117,0.102-2.513-0.076-2.995
		c-0.405-1.142-0.151-1.421,1.522-0.457c2.666-0.406,2.767-0.533,3.046-1.548c0.178-0.609,0.304-1.218,0.507-2.106
		c0.178-0.837,0.025-1.472-0.431-1.345c-0.762,0.178-2.691,0.71-3.172,0.964c-0.533,0.253-1.193,0.279-1.878-0.152
		c-0.762-0.432-0.711-0.812,0.178-0.863c1.675-0.051,4.212-0.66,5.125-1.37c0.457-0.381,1.066-0.381,1.954,0.102
		c1.573,0.812,1.548,1.218,0.812,1.7c-0.609,0.355-1.143,1.117-1.649,2.893c-0.152,0.507-0.051,0.761,0.405,1.066
		c0.279,0.203,0.229,0.66-0.405,0.837c-1.168,0.304-2.869,0.608-4.467,0.761c-0.659,5.735-0.329,6.623,0.406,7.004
		c0.736,0.406,2.082,0.559,2.969,0.559c4.111-0.051,4.365-0.584,5.405-4.492c0.203-0.761,0.457-0.735,0.457,0.102
		c0,0.812,0.305,3.223,0.507,3.578C93.02,19.715,92.918,20.02,92.208,20.45z"/>
	<path d="M115.852,6.773c-1.776-0.127-5.202-0.152-8.806,0.152c1.092,0.584,1.244,1.091,0.863,1.624
		c-0.178,0.254-0.279,0.381-0.279,2.538c2.766-0.025,4.999,0.584,5.481,1.751c0.507,1.243,0.126,2.056-1.979,0.787
		c-1.041-0.635-2.132-1.346-3.502-2.284c0,2.664,0.051,6.268,0.051,9.084c0,1.903-0.102,2.513-0.457,3.248
		c-0.229,0.457-0.634,0.406-0.888-0.102c-0.686-1.294-0.812-1.775-0.457-2.994c0.33-1.065,0.66-5.455,0.559-9.794
		c-0.076-2.918-0.203-2.918-0.609-3.73c-2.132,0.229-4.517,0.559-5.38,0.812c-1.243,0.355-1.751,0.33-2.664-0.178
		C96.972,7.23,96.871,6.951,97.886,6.9c0.862-0.051,2.588-0.203,4.567-0.457c4.517-0.482,8.272-0.939,10.43-1.37
		c1.827-0.33,2.613-0.254,3.729,0.304C117.983,6.062,117.755,6.9,115.852,6.773z"/>
</g>
<path d="M16.958,20.617c-1.218,0.762-3.73,1.346-5.913,1.193c-4.162-0.305-5.252-1.497-4.746-6.699
	c0.102-1.117,0.102-2.513-0.076-2.995c-0.405-1.142-0.151-1.421,1.522-0.457c2.666-0.406,2.767-0.533,3.046-1.548
	c0.178-0.609,0.304-1.218,0.507-2.106c0.178-0.837,0.025-1.472-0.431-1.345c-0.762,0.178-2.691,0.71-3.172,0.964
	C7.163,7.879,6.502,7.904,5.818,7.473C5.056,7.041,5.107,6.661,5.996,6.61c1.675-0.051,4.212-0.66,5.125-1.37
	c0.457-0.381,1.066-0.381,1.954,0.102c1.573,0.812,1.548,1.218,0.812,1.7c-0.609,0.355-1.143,1.117-1.649,2.893
	c-0.152,0.507-0.051,0.761,0.405,1.066c0.279,0.203,0.229,0.66-0.405,0.837c-1.168,0.304-2.869,0.608-4.467,0.761
	c-0.659,5.735-0.329,6.623,0.406,7.004c0.736,0.406,2.082,0.559,2.969,0.559c4.111-0.051,4.365-0.584,5.405-4.492
	c0.203-0.761,0.457-0.735,0.457,0.102c0,0.812,0.305,3.223,0.507,3.578C17.77,19.882,17.668,20.186,16.958,20.617z"/>
<text transform="matrix(1 0 0 1 19.7495 42.6927)" style="font-family:'AdobeKaitiStd-Regular-GBpc-EUC-H'; font-size:21.4998px;">&#x4E0A;&#x5CB8;</text>
<path d="M-26.531,6.164c1.827-0.301,3.999-0.774,4.687-1.01c0.903-0.323,1.032-0.366,1.828,0.15c1.269,0.795,1.29,0.924,0.494,1.591
	c-0.215,0.172-0.58,0.795-1.505,2.902c-0.537,1.247-0.968,1.312-1.118,1.032c-0.15-0.301-0.559-0.581-0.816-0.559
	c-0.323,0.021-1.075,0.15-1.893,0.323c-0.494,1.118-1.204,2.236-2.085,3.161c0.795-0.173,2.3-0.452,2.902-0.538
	c-0.021-0.881-0.107-1.419-0.258-1.569c-0.388-0.473-0.279-0.731,0.473-0.581c1.011,0.215,1.097,0.301,0.925,1.398
	c-0.021,0.107-0.021,0.322-0.021,0.623c0.859-0.064,2.063-0.215,2.838-0.408c0.709-0.15,1.569-0.107,2.257,0.215
	c0.71,0.301,0.581,0.946-0.494,0.882c-1.011-0.043-3.311,0-4.622,0.086c0,0.537,0,1.29,0.021,2.214
	c0.021,2.236-0.129,3.978-0.452,5.117c-0.193,0.709-0.473,0.709-0.645-0.021c-0.15-0.646-0.107-3.483-0.043-4.902
	c0.043-0.881,0.043-1.655,0.043-2.3c-1.483,0.193-3.44,0.537-3.87,0.666c-0.989,0.322-1.354,0.344-1.763,0.086
	c-0.559-0.322-0.516-0.43,0.193-0.516c0.559-0.064,1.161-0.172,1.849-0.301c0.967-1.269,1.548-2.215,1.913-3.139
	c-0.279,0.043-0.58,0.107-0.86,0.172c-0.301,0.667-0.559,0.624-0.688,0.107c-0.043-0.193-0.258-1.204-0.365-1.784
	c-0.172-0.925-0.516-2.107-0.839-2.451c-0.43-0.452-0.215-0.817,0.968-0.473l0.193-0.021 M-27.24,6.766
	c0.193,0.172,0.28,0.752,0.559,3.719c0.43-0.107,0.817-0.193,1.161-0.258c0.193-0.516,0.322-1.032,0.43-1.591
	c-0.365,0.021-0.688,0-0.838-0.064c-0.473-0.194-0.495-0.258,0.107-0.43c0.323-0.086,0.602-0.15,0.86-0.193
	c0.129-0.709,0.15-1.14,0.043-1.548C-25.649,6.53-26.466,6.659-27.24,6.766z M-22.317,5.863c-0.537,0.129-1.204,0.279-1.956,0.408
	c0.516,0.28,0.623,0.452,0.494,0.925c-0.021,0.086-0.086,0.301-0.15,0.559c0.903-0.193,1.097-0.215,1.226-0.193
	c0.645,0.064,0.645,0.409,0.129,0.602c-0.344,0.129-0.946,0.279-1.548,0.366c-0.15,0.494-0.322,0.989-0.517,1.505
	c1.075-0.194,1.742-0.301,1.914-0.258c0.365,0.064,0.494,0.043,0.666-0.279c0.237-0.387,0.688-2.128,0.753-2.666
	C-21.199,5.928-21.413,5.669-22.317,5.863z"/>
</svg>
