<?xml version="1.0" encoding="utf-8"?>
<!-- Generator: Adobe Illustrator 22.1.0, SVG Export Plug-In . SVG Version: 6.00 Build 0)  -->
<svg version="1.1" id="Layer_1" xmlns="http://www.w3.org/2000/svg" xmlns:xlink="http://www.w3.org/1999/xlink" x="0px" y="0px"
	 viewBox="0 0 22 22" style="enable-background:new 0 0 22 22;" xml:space="preserve">
<g>
	<path d="M6.8,11.9v0.4c1.1,0.5,2.3,1.2,3.6,2.1c1.1-1.1,1.7-1.9,2-2.2c0.3-0.3,0.4-0.7,0.4-1.2c0-0.5,0.5-0.5,1.5,0.1
		c1,0.6,1.2,0.9,0.5,1.1c-0.6,0.2-1.9,1-3.8,2.5c2.1,1.3,3.9,2.1,5.3,2.6c1.4,0.5,2.6,0.8,3.4,0.8c0.8,0.1,0.8,0.2-0.2,0.4
		c-1,0.2-2,0.4-3.2,0.6c-1.1,0.2-2.2-0.1-3.1-1c-1-0.9-2-1.8-3.1-2.8c-1.1-1-2.3-1.9-3.4-2.6c-0.1,3.2-0.2,5.1-0.2,5.6
		c0,0.5,0.3,0.6,1,0.3c0.6-0.3,1.4-0.6,2.2-0.9c0.8-0.3,0.8-0.2,0,0.5c-0.8,0.6-1.5,1.2-2.1,1.7c-0.6,0.5-1.1,1-1.5,1.6
		C5.8,22,5.4,22,5,21.4c-0.4-0.7-0.4-1.2-0.2-1.7c0.2-0.5,0.4-1.3,0.5-2.5C5.4,16,5.5,14,5.6,11.2c0.1-2.8,0-4.5-0.3-5
		C5,5.6,5,5.4,5.3,5.4c0.4,0,0.8,0,1.2,0.1c0.5,0.1,1.1,0,2.1-0.2c0.9-0.2,1.5-0.4,1.9-0.7c0.4-0.2,0.8-0.3,1.3-0.2
		c0.5,0.1,1,0.4,1.5,0.6c0.5,0.3,0.5,0.6,0.2,0.9c-0.3,0.4-0.6,0.8-0.7,1.5c-0.2,0.6-0.4,1.3-0.6,2c-0.2,0.7-0.5,1.4-0.8,1.9
		c-0.3,0.5-0.6,0.4-0.9-0.3C9.3,11.4,8.1,11.6,6.8,11.9z M6.8,11.1c1.1-0.3,2.3-0.6,3.7-0.9c0.4-2,0.6-3.3,0.5-3.9
		c-0.1-0.6-0.4-0.8-1-0.6C9.5,5.8,8.4,6.1,6.9,6.4v1.7c0.8-0.1,1.5-0.3,1.9-0.4c0.4-0.1,0.8,0,1.2,0.2c0.4,0.2,0.1,0.5-0.8,0.8
		C8.2,9,7.5,9.1,6.9,8.9L6.8,11.1z"/>
</g>
<g>
	<path d="M-20.4,11.9v0.4c1.1,0.5,2.3,1.2,3.6,2.1c1.1-1.1,1.7-1.9,2-2.2c0.3-0.3,0.4-0.7,0.4-1.2c0-0.5,0.5-0.5,1.5,0.1
		c1,0.6,1.2,0.9,0.5,1.1c-0.6,0.2-1.9,1-3.8,2.5c2.1,1.3,3.9,2.1,5.3,2.6c1.4,0.5,2.6,0.8,3.4,0.8c0.8,0.1,0.8,0.2-0.2,0.4
		c-1,0.2-2,0.4-3.2,0.6c-1.1,0.2-2.2-0.1-3.1-1c-1-0.9-2-1.8-3.1-2.8c-1.1-1-2.3-1.9-3.4-2.6c-0.1,3.2-0.2,5.1-0.2,5.6
		c0,0.5,0.3,0.6,1,0.3c0.6-0.3,1.4-0.6,2.2-0.9c0.8-0.3,0.8-0.2,0,0.5c-0.8,0.6-1.5,1.2-2.1,1.7c-0.6,0.5-1.1,1-1.5,1.6
		c-0.4,0.6-0.8,0.6-1.2-0.1c-0.4-0.7-0.4-1.2-0.2-1.7c0.2-0.5,0.4-1.3,0.5-2.5c0.1-1.2,0.2-3.1,0.3-5.9c0.1-2.8,0-4.5-0.3-5
		c-0.3-0.6-0.3-0.8,0.1-0.8c0.4,0,0.8,0,1.2,0.1c0.5,0.1,1.1,0,2.1-0.2c0.9-0.2,1.5-0.4,1.9-0.7c0.4-0.2,0.8-0.3,1.3-0.2
		c0.5,0.1,1,0.4,1.5,0.6c0.5,0.3,0.5,0.6,0.2,0.9c-0.3,0.4-0.6,0.8-0.7,1.5c-0.2,0.6-0.4,1.3-0.6,2c-0.2,0.7-0.5,1.4-0.8,1.9
		c-0.3,0.5-0.6,0.4-0.9-0.3C-18,11.4-19.2,11.6-20.4,11.9z M-20.3,8.9l-0.1,2.2c1.1-0.3,2.3-0.6,3.7-0.9c0.4-2,0.6-3.3,0.5-3.9
		c-0.1-0.6-0.4-0.8-1-0.6c-0.6,0.1-1.6,0.4-3.1,0.7v1.7"/>
</g>
<g>
	<path d="M72.2,15.9c-2.5-0.2-3.9-0.2-6.2,0c-1.8,0.2-3.8,0.5-5,0.8c-1,0.3-1.5,0.2-2.1-0.2c-0.9-0.6-0.9-1,0.3-1
		c1.7,0,7.6-0.9,9.8-1.5c1.3-0.3,2.2-0.2,3.4,0.3C74,15,73.8,16,72.2,15.9z M65.3,8.3c-1.1,0.2-2.9,0.2-3.5-0.3
		c-0.7-0.4-0.6-0.7,0.2-0.8c0.9-0.1,2.7-0.5,3.6-0.8c2.7-0.7,3-0.8,3.9-0.5c1.1,0.4,1.5,1.3,0.1,1.6C68.8,7.7,67.6,8,65.3,8.3z"/>
</g>
<g>
	<path d="M87,10.9c-0.5,6.2-1,8.1-2.9,9.7c-0.6,0.5-0.9,0.4-1-0.2c-0.2-0.7-0.6-1.8-1.1-2.5c-0.4-0.5-0.2-0.7,0.4-0.4
		c1.4,0.7,1.8,0.6,2.1-0.2c0.8-2,1.3-6.8,1.2-9.1c-0.1-1.1-0.3-1.2-1.1-1.1C84.2,7.2,83,7.4,82,7.6c1.4,0.8,1.5,1.1,1.1,1.7
		c-0.1,0.1-0.4,1-0.5,1.5c-1.4,5.4-3.4,8.5-6.8,10c-0.6,0.2-0.7,0-0.2-0.5c3-2.5,4.3-4.8,5.1-7.4c0.7-2.5,1-4.4,0.6-5.1
		c-0.5,0.1-0.9,0.2-1.1,0.3c-1.1,0.4-1.4,0.4-2-0.1c-0.5-0.4-0.4-0.6,0.4-0.6c0.6,0,5.1-0.9,5.7-1.2c1-0.5,1.2-0.5,2.2,0.1
		c1.4,0.8,1.5,1,1,1.7C87.2,8.3,87.1,8.7,87,10.9z M78.8,14.3c-0.4,0.7-0.8,0.8-1,0c-0.1-0.4,0.1-1.1,0.3-1.8
		c0.1-0.2,0.4-1.1,0.4-1.5c0.1-0.7,0.4-0.7,0.8,0C79.6,11.6,79.5,12.9,78.8,14.3z"/>
</g>
<g>
	<path d="M-48.9,18.8c-0.2,0.7-0.6,1.2-1,1.5c-0.4,0.3-0.8,0.3-0.9-0.3c-0.1-0.5,0-1,0.7-1.9c0.3-0.5,0.6-1,0.9-1.6
		c0.2-0.4,0.3-0.4,0.5,0.1C-48.6,17.3-48.5,17.8-48.9,18.8z M-39,8.4c-0.1,3.1-0.4,5-0.8,5.5c-0.3,0.6-0.7,0.6-0.8,0.2
		c-0.2-0.7-0.3-0.8-1.2-0.6c-0.3,0.1-2.4,0.4-3.5,0.5c-0.5,0-1,0.1-1.5,0c-0.1,0.4-0.3,0.7-0.4,0.7c-0.3,0-0.3-0.1-0.3-2.5
		c0-2.7-0.1-4.4-0.2-4.9c-0.1-0.6-0.2-1-0.3-1.4c-0.3-0.6-0.3-0.8,0.4-0.6c1.4,0.1,4-0.5,6.4-1.2c0.7-0.2,0.8-0.2,1.1,0
		c0.4,0.2,0.8,0.4,1.1,0.6c0.8,0.5,0.8,0.6,0.3,1.3C-38.9,6.4-39,7-39,8.4z M-36.9,20.9c-1.7,1-5.6,1.3-7.5,0
		c-1.7-1.1-2.5-2.3-2.9-4.3c-0.1-0.5-0.1-0.6,0-0.7c0.2,0,0.2,0,0.4,0.5c0.6,1.5,1.8,2.5,2.5,2.9c1.1,0.6,2.8,1,4.5,0.6
		c0.5-0.1,0.5-0.3-0.4-2.2c-0.1-0.3,0-0.4,0.3-0.1c1,1.1,2.2,1.9,3.2,2.4C-36.4,20.2-36.5,20.6-36.9,20.9z M-40.4,6.2
		c-0.1-1-0.2-1.2-1-1.2c-0.6,0-2.5,0.2-3.3,0.4c-0.6,0.1-1.5,0.2-2,0.3c0.2,1.9,0.3,6.4,0.1,7.8c0.9-0.2,3-0.5,4.5-0.8
		c0.7-0.1,1,0,1.2,0.2c0.1,0.2,0.3,0.2,0.3-0.1c0.1-0.7,0.3-3.3,0.3-4.7C-40.3,7.3-40.4,6.3-40.4,6.2z M-42.8,17
		c-0.5-0.4-1.3-1.2-1.6-1.7c-0.2-0.3-0.1-0.5,0.2-0.4c1.5,0.2,2.1,0.8,2.2,1.6C-41.9,17.1-42.5,17.3-42.8,17z M-36.6,17.4
		c-0.6-0.3-1.3-0.7-2.7-1.9c-0.7-0.6-0.7-0.7,0.4-0.6c1.9,0.2,2.8,0.6,3.2,1.8C-35.4,17.3-35.8,17.7-36.6,17.4z"/>
</g>
<g>
	<path d="M-25.6,18.8c-0.2,0.7-0.6,1.2-1,1.5c-0.4,0.3-0.8,0.3-0.9-0.3c-0.1-0.5,0-1,0.7-1.9c0.3-0.5,0.6-1,0.9-1.6
		c0.2-0.4,0.3-0.4,0.5,0.1C-25.2,17.3-25.2,17.8-25.6,18.8z M-15.7,8.4c-0.1,3.1-0.4,5-0.8,5.5c-0.3,0.6-0.7,0.6-0.8,0.2
		c-0.2-0.7-0.3-0.8-1.2-0.6c-0.3,0.1-2.4,0.4-3.5,0.5c-0.5,0-1,0.1-1.5,0c-0.1,0.4-0.3,0.7-0.4,0.7c-0.3,0-0.3-0.1-0.3-2.5
		c0-2.7-0.1-4.4-0.2-4.9c-0.1-0.6-0.2-1-0.3-1.4c-0.3-0.6-0.3-0.8,0.4-0.6c1.4,0.1,4-0.5,6.4-1.2c0.7-0.2,0.8-0.2,1.1,0
		c0.4,0.2,0.8,0.4,1.1,0.6c0.8,0.5,0.8,0.6,0.3,1.3C-15.6,6.4-15.7,7-15.7,8.4z M-13.6,20.9c-1.7,1-5.6,1.3-7.5,0
		c-1.7-1.1-2.5-2.3-2.9-4.3c-0.1-0.5-0.1-0.6,0-0.7c0.2,0,0.2,0,0.4,0.5c0.6,1.5,1.8,2.5,2.5,2.9c1.1,0.6,2.8,1,4.5,0.6
		c0.5-0.1,0.5-0.3-0.4-2.2c-0.1-0.3,0-0.4,0.3-0.1c1,1.1,2.2,1.9,3.2,2.4C-13.1,20.2-13.2,20.6-13.6,20.9z M-17,6.2
		c-0.1-1-0.2-1.2-1-1.2c-0.6,0-2.5,0.2-3.3,0.4c-0.6,0.1-1.5,0.2-2,0.3c0.2,1.9,0.3,6.4,0.1,7.8c0.9-0.2,3-0.5,4.5-0.8
		c0.7-0.1,1,0,1.2,0.2c0.1,0.2,0.3,0.2,0.3-0.1c0.1-0.7,0.3-3.3,0.3-4.7C-17,7.3-17,6.3-17,6.2z M-20.1,8.7
		c-0.1,0.5-0.2,0.9-0.3,1.4c1.7,0.4,1.9,0.8,2,1.5c0.1,0.4-0.3,0.6-0.8,0.3c-0.3-0.3-0.9-0.9-1.4-1.5c-0.4,1-1,1.8-1.8,2.3
		c-0.4,0.2-0.4,0-0.2-0.2c1-1.1,1.4-2.3,1.5-3.6C-21.8,9.1-22.2,9-22.4,9c-0.5-0.1-0.5-0.4,0.1-0.5c0.2,0,0.8-0.2,1.4-0.4
		c0.1-0.9,0-1.6-0.2-2c-0.2-0.5-0.1-0.6,0.4-0.5c0.9,0.3,1,0.7,0.9,1c0,0.1-0.1,0.4-0.2,1.2c0.9-0.3,1.3-0.4,1.7-0.3
		c0.5,0.1,0.6,0.3,0,0.7C-18.6,8.4-19.2,8.5-20.1,8.7z M-19.5,17c-0.5-0.4-1.3-1.2-1.6-1.7c-0.2-0.3-0.1-0.5,0.2-0.4
		c1.5,0.2,2.1,0.8,2.2,1.6C-18.6,17.1-19.2,17.3-19.5,17z M-13.2,17.4c-0.6-0.3-1.3-0.7-2.7-1.9c-0.7-0.6-0.7-0.7,0.4-0.6
		c1.9,0.2,2.8,0.6,3.2,1.8C-12.1,17.3-12.5,17.7-13.2,17.4z"/>
</g>
<g>
	<path d="M-70,18.8c-0.2,0.7-0.6,1.2-1,1.5c-0.4,0.3-0.8,0.3-0.9-0.3c-0.1-0.5,0-1,0.7-1.9c0.3-0.5,0.6-1,0.9-1.6
		c0.2-0.4,0.3-0.4,0.5,0.1C-69.7,17.3-69.6,17.8-70,18.8z M-58,20.9c-1.7,1-5.6,1.3-7.5,0c-1.7-1.1-2.5-2.3-2.9-4.3
		c-0.1-0.5-0.1-0.6,0-0.7c0.2,0,0.2,0,0.4,0.5c0.6,1.5,1.8,2.5,2.5,2.9c1.1,0.6,2.8,1,4.5,0.6c0.5-0.1,0.5-0.3-0.4-2.2
		c-0.1-0.3,0-0.4,0.3-0.1c1,1.1,2.2,1.9,3.2,2.4C-57.5,20.2-57.6,20.6-58,20.9z M-63.9,17c-0.5-0.4-1.3-1.2-1.6-1.7
		c-0.2-0.3-0.1-0.5,0.2-0.4c1.5,0.2,2.1,0.8,2.2,1.6C-63.1,17.1-63.6,17.3-63.9,17z M-57.7,17.4c-0.6-0.3-1.3-0.7-2.7-1.9
		c-0.7-0.6-0.7-0.7,0.4-0.6c1.9,0.2,2.8,0.6,3.2,1.8C-56.5,17.3-56.9,17.7-57.7,17.4z"/>
</g>
<g>
	<path d="M-66.5,9.6c-1.1,0.2-2.2,0.2-2.6,0c-0.9-0.4-1-0.6-0.1-0.7c1.3-0.2,3.3-0.5,5.1-1c1.2-0.3,2.3-0.4,2.7-0.2
		c0.8,0.4,0.8,0.7-0.2,1c-0.9,0.2-2.2,0.4-4.1,0.7c0.9,0.4,1.1,0.6,0.9,0.9c-0.2,0.3-0.3,0.7-0.4,1.8c1.2-0.2,3.5-0.6,4.1-0.7
		c1.2-0.3,2.1-0.2,2.7,0.2c0.9,0.7,0.9,1.1-1,1c-2.9-0.2-8.1,0.5-10,1c-0.8,0.2-1.4,0.1-1.8-0.2c-0.7-0.5-0.6-0.8,0.3-0.7
		c0.4,0.1,2.2-0.1,4.7-0.4C-66.1,11-66.2,10.2-66.5,9.6z"/>
</g>
<g>
	<path d="M103.6,18.8c-0.2,0.7-0.6,1.2-1,1.5c-0.4,0.3-0.8,0.3-0.9-0.3c-0.1-0.5,0-1,0.7-1.9c0.3-0.5,0.6-1,0.9-1.6
		c0.2-0.4,0.3-0.4,0.5,0.1C104,17.3,104,17.8,103.6,18.8z M115.6,20.9c-1.7,1-5.6,1.3-7.5,0c-1.7-1.1-2.5-2.3-2.9-4.3
		c-0.1-0.5-0.1-0.6,0-0.7c0.2,0,0.2,0,0.4,0.5c0.6,1.5,1.8,2.5,2.5,2.9c1.1,0.6,2.8,1,4.5,0.6c0.5-0.1,0.5-0.3-0.4-2.2
		c-0.1-0.3,0-0.4,0.3-0.1c1,1.1,2.2,1.9,3.2,2.4C116.1,20.2,116,20.6,115.6,20.9z M109.7,17c-0.5-0.4-1.3-1.2-1.6-1.7
		c-0.2-0.3-0.1-0.5,0.2-0.4c1.5,0.2,2.1,0.8,2.2,1.6C110.6,17.1,110,17.3,109.7,17z M116,17.4c-0.6-0.3-1.3-0.7-2.7-1.9
		c-0.7-0.6-0.7-0.7,0.4-0.6c1.9,0.2,2.8,0.6,3.2,1.8C117.1,17.3,116.7,17.7,116,17.4z"/>
</g>
<g>
	<path d="M108.5,12.2c1.2-0.2,3.5-0.6,4.1-0.7c1.2-0.3,2.1-0.2,2.7,0.2c0.9,0.7,0.9,1.1-1,1c-2.9-0.2-8.1,0.5-10,1
		c-0.8,0.2-1.4,0.1-1.8-0.2c-0.7-0.5-0.6-0.8,0.3-0.7c0.4,0.1,2.2-0.1,4.7-0.4"/>
</g>
<path d="M-43.2,10.2c-0.5-0.4-1.3-1.2-1.6-1.7C-45,8.2-44.9,8-44.6,8.1c1.5,0.2,2.1,0.8,2.2,1.6C-42.3,10.3-42.8,10.5-43.2,10.2z"/>
<text transform="matrix(1 0 0 1 -15.3744 -6.8753)" style="font-family:'AdobeKaitiStd-Regular-GBpc-EUC-H'; font-size:12px;">分</text>
<path d="M107.1,6.3c-1.1,0.2-2.2,0.2-2.6,0c-0.9-0.4-1-0.6-0.1-0.7c1.3-0.2,3.3-0.5,5.1-1c1.2-0.3,2.3-0.4,2.7-0.2
	c0.8,0.4,0.8,0.7-0.2,1c-0.9,0.2-2.2,0.4-4.1,0.7"/>
<g>
	<path d="M-5.6-33c0,0.3,0,0.4,0.1,0.6c0.1,0.2,0.1,0.3-0.1,0.4c-0.5,0.1-1.1,0.2-1.6,0.2c0,0.7-0.1,0.9-0.2,0.9
		c-0.1,0-0.3-0.2-0.3-0.6c-0.1-1.6-0.2-2.2-0.5-2.6c-0.3-0.3-0.2-0.5,0.5-0.2c0.7,0,1.2-0.2,1.5-0.4C-6-35-5.8-35-5.4-34.7
		c0.3,0.2,0.3,0.3,0.2,0.5C-5.3-34-5.6-33.4-5.6-33z M-6.6-34.2c-0.3,0.1-0.5,0.1-0.8,0.1c0.1,0.4,0.1,1.2,0.2,1.8
		c0.8-0.2,0.9-0.2,1-0.4c0.1-0.3,0.2-0.8,0.2-1.2C-6.1-34.2-6.2-34.3-6.6-34.2z M0.9-34.1C1-31.4,1-30.5,1.1-30
		c0.1,0.8-0.1,1.8-0.6,2.4c-0.2,0.3-0.4,0.3-0.4,0C0-27.8,0-28.1-0.1-28.4C-0.2-29-0.3-29-0.7-29c-0.3,0-1.6,0.1-2.5,0.3
		c-0.3,0-0.5,0-1-0.1C-4.3-28.1-4.4-28-4.5-28c-0.2,0-0.4-0.9-0.3-1.5c0.2-0.9,0.2-1.3,0.3-3.2c0.1-1.8,0-2.7-0.2-3.1
		c-0.2-0.3-0.1-0.4,0.5-0.2c1.1-0.1,3.4-0.5,3.8-0.7c0.3-0.1,0.6-0.1,1.1,0.2c0.7,0.5,0.7,0.6,0.5,0.8C1-35.3,0.9-34.8,0.9-34.1z
		 M0.2-35.1C0.2-35.8,0-36-0.4-36c-0.3,0-1.7,0.2-2.4,0.3c-0.6,0.1-0.9,0.1-1.1,0.1c0,2.5-0.1,5-0.2,6.5c0.8-0.1,1.3-0.2,1.8-0.3
		c0.6-0.1,1-0.2,1.5-0.3c0.3,0,0.5,0,0.8,0.3c0.1,0.1,0.2,0.1,0.2,0c0.1-0.5,0.1-1.1,0.1-2.6C0.3-33.1,0.3-33.9,0.2-35.1z
		 M-0.5-33.6c-0.3,0.1-0.5,0.2-1.5,0.4c0,0.3-0.1,0.7-0.2,0.9c1.2,0.3,1.4,0.5,1.6,1c0.3,0.5,0,0.9-0.3,0.6
		c-0.3-0.4-1.1-1.1-1.3-1.4c-0.2,0.8-0.8,1.6-1.5,2c-0.3,0.1-0.4,0-0.2-0.2c0.7-0.8,1.1-1.5,1.3-2.7C-3-33-3.2-33-3.5-33.1
		c-0.2-0.1-0.1-0.2,0-0.3c0.2,0,0.6-0.2,1-0.2c0-0.7,0-1.2-0.1-1.5c-0.2-0.3-0.1-0.4,0.5-0.2c0.5,0.1,0.5,0.3,0.4,0.5
		c-0.1,0.2-0.1,0.4-0.1,0.6c0,0.1,0,0.3-0.1,0.4c0.2-0.1,0.4-0.1,0.5-0.1c0.5-0.1,0.8-0.2,1-0.1C-0.2-33.9-0.2-33.7-0.5-33.6z"/>
	<path d="M12.9-35.3c-0.8-0.1-2.5-0.1-4.2,0.1c0.5,0.3,0.6,0.5,0.4,0.8C9.1-34.4,9-34.3,9-33.3c1.3,0,2.4,0.3,2.6,0.8
		c0.2,0.6,0.1,1-0.9,0.4c-0.5-0.3-1-0.6-1.7-1.1c0,1.3,0,3,0,4.3c0,0.9,0,1.2-0.2,1.5c-0.1,0.2-0.3,0.2-0.4,0
		C8.1-28,8-28.2,8.2-28.8c0.2-0.5,0.3-2.6,0.3-4.6c0-1.4-0.1-1.4-0.3-1.8c-1,0.1-2.1,0.3-2.5,0.4c-0.6,0.2-0.8,0.2-1.3-0.1
		c-0.4-0.2-0.4-0.3,0-0.4c0.4,0,1.2-0.1,2.2-0.2c2.1-0.2,3.9-0.4,4.9-0.6c0.9-0.2,1.2-0.1,1.8,0.1C13.9-35.6,13.8-35.2,12.9-35.3z"
		/>
	<path d="M24.8-31.8c-1.2-0.1-2.7,0-4.2,0.1c0.7,0.5,0.6,0.6,0.3,0.8c-0.2,0.1-1.4,1.4-1.9,2c0.7-0.1,2.4-0.3,3.4-0.5
		c-0.2-0.4-0.5-0.7-0.6-0.9c-0.2-0.2-0.1-0.4,0.2-0.2c1.7,1.1,2,1.7,2,2.4c0,0.6-0.4,0.8-0.7,0.2c-0.2-0.4-0.4-0.7-0.6-1.1
		c-2.7,0.5-3.6,0.8-4.3,1.3c-0.3,0.2-0.4,0.1-0.6-0.3c-0.2-0.4-0.2-0.6,0.1-0.7c0.4-0.1,0.7-0.2,1-0.5c0.8-0.9,1.3-1.7,1.4-2.3
		c-1.2,0.2-2.4,0.4-3.3,0.6c-0.4,0.1-0.5,0.1-0.9-0.1c-0.4-0.2-0.4-0.4-0.2-0.4c1,0,2.9-0.3,4.7-0.5l0-1.8c-1.1,0.2-1.4,0.2-1.9,0
		c-0.3-0.1-0.3-0.3,0-0.3c0.5,0,1.2-0.2,1.9-0.3c0-1.7-0.1-2.4-0.3-2.7c-0.2-0.2-0.2-0.6,0.8-0.2c0.6,0.3,0.7,0.4,0.5,0.8
		c-0.1,0.2-0.2,0.8-0.2,1.9c0.4-0.1,0.7-0.2,1-0.3c0.3-0.1,0.8-0.1,1,0c0.4,0.2,0.3,0.4-0.7,0.7c-0.2,0.1-0.6,0.1-1.3,0.3l-0.1,1.9
		c1.4-0.2,2.6-0.3,2.9-0.4c0.8-0.2,1.3-0.1,1.6,0.2C26.3-32,26.1-31.7,24.8-31.8z"/>
	<path d="M36-27.5c-0.2,0.3-0.3,0.3-0.4,0c-0.1-0.3-0.2-0.7-0.4-1.1c-0.1-0.4-0.2-0.4-0.7-0.4c-0.5,0-2.6,0.1-3.4,0.2
		c-0.5,0.1-0.9,0-1.4-0.1c-0.2,0.9-0.4,0.9-0.5,0.6c-0.3-0.7-0.3-1-0.1-1.5c0.1-0.3,0.3-2.1,0.3-2.8c0-2.2-0.1-2.6-0.2-2.9
		c-0.2-0.4-0.1-0.6,0.5-0.4c0.4,0,0.7,0,1.2-0.1c3-0.3,3.8-0.4,4.2-0.5c0.4-0.1,0.5-0.1,1.1,0.3c0.6,0.4,0.6,0.5,0.4,0.9
		c-0.2,0.3-0.2,0.6-0.2,1.5c0.1,2.1,0.1,2.9,0.2,3.7C36.6-29,36.4-28.3,36-27.5z M35.5-35.1c-0.1-0.7-0.1-0.8-0.9-0.8
		c-0.6,0-3.2,0.2-3.9,0.3c-0.3,0.1-0.6,0.1-0.8,0c0,2.1-0.1,5.4-0.2,6.2c0.6,0,1.9,0,4.4-0.4c0.5-0.1,0.9,0,1.2,0.5
		c0.2,0.3,0.3,0.3,0.4-0.2C35.8-30.1,35.8-33.3,35.5-35.1z M34-31c-0.2-0.2-0.9-1-1.6-1.8c-0.4,1-1.1,1.9-2.2,2.5
		c-0.3,0.2-0.4,0-0.1-0.2c0.8-0.7,1.4-1.5,1.8-2.6c0.2-0.5,0.3-1.4,0.2-1.6c-0.2-0.6-0.1-0.6,0.5-0.4c0.5,0.2,0.5,0.3,0.4,0.7
		c0,0.1-0.2,0.5-0.3,0.8c0,0.2-0.1,0.5-0.2,0.7c1.6,0.6,2.1,1,2.1,1.6C34.6-30.8,34.3-30.6,34-31z"/>
	<path d="M43.7-35.3c-0.3,0.3-0.6,0.6-0.9,0.8c0.4,0.9,0.6,3.4,0.6,4.6c0,0.8-0.3,1.6-0.7,2c-0.3,0.2-0.3,0.2-0.4-0.1
		c-0.2-0.6-0.3-0.7-0.7-1.1c-0.1-0.1-0.1-0.3,0.2-0.2c0.7,0.2,0.9,0.1,0.9-0.4c0.1-0.8,0.1-2,0.1-2.8c-0.6,1.4-1.7,2.4-2.9,3
		c-0.2,0.1-0.3,0-0.1-0.2c1.3-1,2.1-2.1,2.8-3.7c0-0.2-0.1-0.4-0.2-0.6c-0.9,0.7-1.6,1.2-2.2,1.3C40-32.7,40-32.9,40.2-33
		c0.9-0.6,1.5-1,2-1.6c-0.2-0.4-0.6-0.7-1.2-1.2c-0.1-0.1-0.1-0.2-0.1-0.3c0,0,0.2,0,0.3,0c0.6,0.4,1,0.7,1.3,1
		c0.7-0.7,0.9-1.3,0.9-1.7c0-0.5,0.2-0.6,0.8,0.1c0.4,0.4,0.4,0.6,0.2,0.7C44.1-35.7,43.9-35.6,43.7-35.3z M50.1-29.6
		c-0.8,0.6-3.1,0.7-4,0.3c-1.2-0.5-1.3-0.9-1.2-3.3c0.1-1.8,0-2.2-0.1-2.5c-0.2-0.4-0.1-0.5,0.6-0.2c0.6,0,1.3-0.3,1.5-0.4
		c0.5-0.4,0.6-0.4,1.1-0.1c0.6,0.3,0.6,0.5,0.4,0.7C48.3-35,48-34.6,48-34.4c-0.3,1.1-0.5,1.7-0.9,1.9c-0.3,0.2-0.4,0.2-0.5,0
		c-0.1-0.3-0.2-0.4-0.5-0.8c-0.1-0.2-0.1-0.3,0.1-0.2c0.3,0.1,0.6,0.1,0.7-0.1c0.2-0.5,0.3-1,0.4-1.4c0.1-0.3,0-0.4-0.3-0.4
		c-0.3,0-0.6,0.1-1.1,0.3c-0.1,0-0.2,0.1-0.4,0.1c0,0.4,0,0.9-0.1,1.6c-0.2,2.6-0.1,3.2,0.9,3.4c0.8,0.2,2.2,0,2.9-0.4
		c0.3-0.1,0.4-0.6,0.6-1.4c0.1-0.4,0.3-0.5,0.3,0c0,0.5,0.2,1.4,0.3,1.6C50.5-29.9,50.4-29.8,50.1-29.6z"/>
</g>
<path d="M110.6,11.5c-0.2-0.3-1.1-1.3-2-2.3c-0.5,1.2-1.4,2.4-2.8,3.1c-0.4,0.2-0.5,0-0.1-0.3c1-0.9,1.8-2,2.2-3.2
	c0.2-0.6,0.4-1.8,0.2-2.1C108,6,108.2,6,108.9,6.3c0.7,0.3,0.7,0.4,0.5,0.8c0,0.1-0.3,0.7-0.3,1c-0.1,0.3-0.2,0.6-0.3,0.9
	c2,0.8,2.6,1.3,2.6,2.1C111.4,11.7,111.1,11.9,110.6,11.5z"/>
<text transform="matrix(1 0 0 1 64.0383 -8.0716)" style="font-family:'AdobeKaitiStd-Regular-GBpc-EUC-H'; font-size:17.9438px;">怎么</text>
</svg>
