<?xml version="1.0" encoding="utf-8"?>
<!-- Generator: Adobe Illustrator 22.1.0, SVG Export Plug-In . SVG Version: 6.00 Build 0)  -->
<svg version="1.1" id="Layer_1" xmlns="http://www.w3.org/2000/svg" xmlns:xlink="http://www.w3.org/1999/xlink" x="0px" y="0px"
	 viewBox="0 0 22 22" style="enable-background:new 0 0 22 22;" xml:space="preserve">
<g>
	<path d="M11,5.8c1.4-0.3,2.3-0.5,2.6-0.6C13.9,5,14.3,5,14.8,5.2c0.5,0.2,1,0.4,1.3,0.6c0.3,0.2,0.4,0.5,0.2,0.7
		c-0.2,0.3-0.5,0.9-0.8,1.8c0.3-0.1,0.8-0.1,1.4-0.2c0.6-0.1,1-0.1,1.4,0c0.3,0.1,0.6,0.3,0.9,0.7c0.2,0.4,0.1,0.5-0.5,0.5
		c-0.6,0-1.7,0-3.4,0.1c-0.1,0.6-0.3,1.4-0.4,2.3c0.6,0.7,0.8,1,0.5,1c-0.3,0-0.7,0.1-1.1,0.1c-0.4,0-1.6,0.1-3.5,0.2
		c0,1.5,0,2.8,0.1,3.8c0.1,1,0,1.9-0.1,2.6c-0.1,0.7-0.5,1.3-1,1.8c-0.5,0.5-0.9,0.4-1.1-0.1C8.4,20.6,7.9,20,7,19.5
		c-0.9-0.6-0.9-0.8-0.2-0.6c0.7,0.2,1.3,0.2,1.8,0.2c0.5,0,0.8-0.4,0.9-1.2c0.1-0.8,0.2-2.3,0.2-4.5c-1.7,0.3-2.8,0.4-3.3,0.5
		c-0.5,0.1-1,0-1.6-0.4c-0.6-0.4-0.5-0.5,0.2-0.5c0.7,0,1.5,0,2.3-0.1c0.8-0.1,1.6-0.2,2.5-0.3v-2.5c-0.7,0.1-1.4,0.2-2.3,0.3
		c-0.9,0.1-1.5,0.2-2,0.3c-0.5,0.1-0.9,0-1.3-0.2c-0.4-0.2-0.6-0.4-0.7-0.5C3.2,9.8,3.5,9.8,4,9.8c0.5,0,1.2-0.1,2.1-0.1
		c0.9-0.1,2-0.2,3.4-0.4c-0.1-1.1-0.4-1.7-0.7-2C7.7,7.4,6.9,7.5,6.6,7.6C6.2,7.6,5.8,7.5,5.3,7.2C4.8,6.8,4.9,6.7,5.7,6.7
		s2.3-0.3,4.6-0.8 M10.8,8c-0.1,0.2-0.1,0.5-0.1,0.8c1.2-0.1,2.3-0.2,3.2-0.3c0.1-1.2,0.1-1.9-0.2-2c-0.2-0.2-0.7-0.2-1.4-0.1
		C11.7,6.6,10.8,6.8,9.7,7C10.5,7.4,10.9,7.8,10.8,8z M13.6,12l0.2-2.4l-3.1,0.3v2.5C12.3,12.2,13.3,12.1,13.6,12z"/>
</g>
</svg>
