<?xml version="1.0" encoding="iso-8859-1"?>
<!-- Generator: Adobe Illustrator 22.1.0, SVG Export Plug-In . SVG Version: 6.00 Build 0)  -->
<svg version="1.1" id="Layer_1" xmlns="http://www.w3.org/2000/svg" xmlns:xlink="http://www.w3.org/1999/xlink" x="0px" y="0px"
	 viewBox="0 0 22 22" style="enable-background:new 0 0 22 22;" xml:space="preserve">
<g>
	<path d="M6.338,15.587c-0.304,0.583-0.532,0.888-1.014,1.293c-0.406,0.305-0.735,0.178-0.812-0.405
		c-0.102-0.786-0.076-1.04,0.457-1.852c0.253-0.406,0.659-1.345,0.913-2.105c0.203-0.583,0.406-0.481,0.583,0.025
		C6.896,13.583,6.82,14.649,6.338,15.587z M5.01,6.559c2.67-0.203,7.406-1.04,8.539-1.522c0.971-0.406,1.463-0.38,3.035,0.533
		c0.988,0.558,0.963,0.913,0.202,1.293c-0.862,0.431-1.42,0.888-2.308,1.8c-1.04,1.065-1.166,0.964-0.634-0.431
		c0.761-1.927,0.432-2.054-0.782-1.902c-1.942,0.304-3.399,0.558-5.18,0.862c-0.89,0.152-2.104,0.152-3.48-0.025 M10.599,20.558
		c-0.406,0.583-0.761,0.532-1.065-0.229c-0.228-0.559-0.963-1.674-1.496-2.358c-0.482-0.635-0.431-0.888,0.305-0.584
		c1.395,0.584,1.598,0.508,1.674-0.177c0.102-1.623,0.076-2.917-0.051-5.072c-0.102-1.369-0.279-2.131-0.609-2.714
		c-0.38-0.634-0.024-0.887,1.319-0.228c0.888,0.431,0.989,0.558,0.71,1.471c-0.229,0.761-0.178,3.905,0.051,5.883
		C11.613,18.275,11.385,19.442,10.599,20.558z M16.33,16.475c-0.634-0.736-1.775-2.334-2.714-3.627
		c-0.481-0.659-0.278-0.761,0.355-0.532c2.612,0.913,3.626,2.308,3.829,3.575C18.055,17.387,17.471,17.768,16.33,16.475z"/>
</g>
</svg>
