<?xml version="1.0" encoding="iso-8859-1"?>
<!-- Generator: Adobe Illustrator 22.1.0, SVG Export Plug-In . SVG Version: 6.00 Build 0)  -->
<svg version="1.1" id="Layer_1" xmlns="http://www.w3.org/2000/svg" xmlns:xlink="http://www.w3.org/1999/xlink" x="0px" y="0px"
	 viewBox="0 0 22 22" style="enable-background:new 0 0 22 22;" xml:space="preserve">
<g>
	<path d="M11.134,13.733c-0.049,0.17,0,0.291,0.421,0.775c0.272,0.315,0.148,0.679-0.644,0.728c-0.495,0.024-2.004,0.17-3.711,0.364
		c-0.025,1.259-0.692,1.236-0.841,0.436c-0.544-2.763-0.792-3.442-1.237-3.926c-0.421-0.461-0.05-0.848,1.212-0.436
		c1.311-0.097,3.118-0.484,3.662-0.8c0.395-0.242,0.742-0.194,1.633,0.243c0.915,0.436,0.915,0.702,0.47,1.09
		C11.654,12.593,11.431,12.981,11.134,13.733z M8.66,9.322C7.745,9.443,7.102,9.37,6.434,9.031c-0.47-0.242-0.445-0.485,0.025-0.533
		c0.742-0.073,1.905-0.266,2.424-0.412c1.683-0.436,2.053-0.436,2.573-0.243c0.594,0.218,0.669,0.872,0.074,1.018
		C10.961,9.007,10.293,9.104,8.66,9.322z M9.527,11.842c-0.396,0.024-1.41,0.194-2.697,0.46c0.149,0.752,0.247,1.454,0.346,2.618
		c0.817-0.097,1.361-0.217,2.226-0.484c0.347-0.122,0.445-0.291,0.693-1.988C10.145,12.036,9.946,11.818,9.527,11.842z
		 M15.934,13.223c0.099,1.818,0.074,5.236-0.074,6.181c-0.124,0.775-0.445,1.623-0.99,2.205c-0.421,0.46-0.767,0.46-1.039,0.024
		c-0.594-0.897-0.891-1.236-2.127-2.278c-0.718-0.582-0.618-0.703,0.198-0.534c2.053,0.437,2.276,0.339,2.425-0.388
		c0.346-1.745,0.321-8.192-0.025-12.214c-0.074-0.897-0.198-0.969-1.287-0.872c-1.138,0.097-2.004,0.218-4.378,0.679
		c-0.445,0.121-0.916,0-1.311-0.291C6.632,5.25,6.756,5.057,7.423,5.057c1.459,0,5.121-0.703,5.839-1.067
		c0.717-0.363,0.94-0.339,2.029,0.243c1.409,0.775,1.484,0.969,0.989,1.551C15.612,6.559,15.562,7.189,15.934,13.223z"/>
</g>
</svg>
