<?xml version="1.0" encoding="iso-8859-1"?>
<!-- Generator: Adobe Illustrator 22.1.0, SVG Export Plug-In . SVG Version: 6.00 Build 0)  -->
<svg version="1.1" id="Layer_1" xmlns="http://www.w3.org/2000/svg" xmlns:xlink="http://www.w3.org/1999/xlink" x="0px" y="0px"
	 viewBox="0 0 22 22" style="enable-background:new 0 0 22 22;" xml:space="preserve">
<g>
	<path d="M8.245,8.817c-1.178-0.246-1.203-0.446,0-0.58c0.627-0.067,1.454-0.223,2.106-0.446c0.025-2.989-0.1-4.083-0.526-4.663
		c-0.477-0.669-0.201-0.892,0.927-0.535c1.354,0.424,1.454,0.647,1.204,1.338c-0.175,0.513-0.276,1.294-0.401,3.48
		c1.604-0.491,2.006-0.468,2.407-0.29c0.802,0.357,0.802,0.647-0.651,0.982c-0.878,0.201-1.454,0.334-1.831,0.446
		c-0.05,0.848-0.125,1.74-0.2,2.521c0.301-0.067,0.602-0.156,0.927-0.223c1.58-0.379,1.905-0.379,2.708-0.111
		c0.602,0.201,0.551,0.468-0.752,0.714c-1.354,0.268-1.805,0.334-2.983,0.557c-0.075,0.491-0.125,0.804-0.2,1.094
		c2.507,1.405,2.858,1.963,2.833,3.146c-0.025,1.182-0.602,1.316-1.103,0.401c-0.626-1.115-0.953-1.673-1.855-3.034
		c-0.802,3.168-1.88,4.484-4.237,5.822c-0.677,0.38-0.828,0.246-0.176-0.356c1.905-1.763,3.059-3.948,3.535-6.894
		c-0.526,0.09-1.153,0.201-1.956,0.312c-1.028,0.156-1.229,0.134-1.78-0.111c-0.602-0.268-0.552-0.357,0.226-0.446
		c1.404-0.156,2.407-0.335,3.635-0.603c0.1-0.736,0.175-1.606,0.2-2.565C9.273,8.951,8.922,8.951,8.245,8.817z"/>
</g>
<text transform="matrix(1 0 0 1 375 667)" style="font-family:'AdobeSongStd-Light-GBpc-EUC-H'; font-size:12px;">&#x7236;</text>
<text transform="matrix(1 0 0 1 375 667)" style="font-family:'AdobeSongStd-Light-GBpc-EUC-H'; font-size:12px;">&#x7236;</text>
<text transform="matrix(1 0 0 1 375 667)" style="font-family:'AdobeSongStd-Light-GBpc-EUC-H'; font-size:12px;">&#x7236;</text>
</svg>
