<?xml version="1.0" encoding="iso-8859-1"?>
<!-- Generator: Adobe Illustrator 22.1.0, SVG Export Plug-In . SVG Version: 6.00 Build 0)  -->
<svg version="1.1" id="Layer_1" xmlns="http://www.w3.org/2000/svg" xmlns:xlink="http://www.w3.org/1999/xlink" x="0px" y="0px"
	 viewBox="0 0 22 22" style="enable-background:new 0 0 22 22;" xml:space="preserve">
<path d="M-3.568,3.898c-0.104,0.445-0.135,0.88-0.187,3.887c-0.052,2.72-0.183,4.054-0.393,5.257
	c-0.497,2.799-2.118,6.042-5.205,7.219c-0.471,0.156-0.549-0.079-0.157-0.419c3.034-2.851,4.106-4.891,4.394-10.147
	c0.13-2.514,0.173-4.806,0.001-5.755c-0.79,0.415-1.709,0.816-2.82,1.452c-0.621,0.359-1.129,0.221-1.562-0.58
	C-9.722,4.396-9.704,4.092-9.12,4.119c0.602,0.028,1.449-0.138,2.371-0.414c0.791-0.221,1.412-0.553,1.769-1.023
	c0.264-0.36,0.602-0.47,1.167,0.028C-3.21,3.29-3.247,3.484-3.568,3.898z"/>
<g>
	<path d="M-31.533,11.237c-0.067,1.883-0.135,0.775-0.112,5.347c0,2.354,0,2.488-0.247,3.385c-0.179,0.673-0.627,0.65-0.919,0.09
		c-0.403-0.784-0.426-1.211-0.157-2.466c0.202-1.031,0.493-5.581,0.471-10.603c0-1.793-0.292-3.542-0.583-4.012
		c-0.403-0.583-0.045-0.896,0.986-0.358c1.031,0.538,1.166,0.829,0.919,1.457c-0.157,0.381-0.269,5.098-0.336,6.623"/>
</g>
<g>
	<path d="M39.097,12.497c1.64,0.531,1.94,0.97,2.01,1.57c0.069,0.739-0.37,0.971-0.878,0.416c-0.763-0.831-1.248-1.34-2.079-1.94
		c-0.069,0.878-0.093,2.911-0.093,4.967c0,0.785-0.277,2.311-0.462,2.61c-0.277,0.462-0.485,0.462-0.716-0.069
		c-0.255-0.577-0.439-1.293-0.231-2.032c0.185-0.624,0.37-2.356,0.462-3.535c0.185-2.079,0.208-2.749,0.046-3.442
		c-1.94,2.818-3.442,4.112-5.359,5.221c-0.577,0.347-0.809,0.185-0.139-0.393c1.756-1.571,4.251-4.528,5.938-7.277
		c0.393-0.624,0.254-0.716-0.485-0.508c-0.624,0.185-1.824,0.578-2.379,0.762c-1.179,0.416-1.317,0.393-2.033-0.115
		c-0.646-0.462-0.602-0.716,0.23-0.693c0.646,0.023,1.941-0.185,2.98-0.462c1.178-0.3,2.01-0.647,2.402-0.947
		c0.323-0.254,0.578-0.277,1.294,0.208c0.624,0.416,0.624,0.693,0.323,0.901c-0.531,0.324-0.785,0.531-1.409,1.456
		c-0.369,0.508-0.716,0.993-1.039,1.432c0.554,0.485,0.716,1.063,0.67,1.571c0.254,0.069,0.462,0.116,0.646,0.208
		c0.785-0.947,1.271-1.802,1.433-2.333c0.139-0.485,0.323-0.601,0.9-0.046c0.555,0.555,0.462,0.739,0.186,0.855
		C40.944,11.019,39.812,11.827,39.097,12.497z M39.166,4.781c-0.485-0.277-1.433-1.086-2.08-1.709
		c-0.393-0.393-0.393-0.531,0.394-0.578c1.755-0.115,2.379,0.462,2.656,1.617C40.298,4.734,39.767,5.127,39.166,4.781z
		 M49.861,13.49c-1.132-0.601-2.656-1.825-4.967-3.835c0,1.779,0.047,5.591,0.139,8.756c0.069,2.148-0.508,3.118-0.878,3.118
		c-0.393,0-0.854-1.316-0.601-2.771c0.277-1.525,0.439-4.021,0.416-9.103c-0.023-5.175-0.162-6.284-0.531-7.046
		c-0.37-0.716-0.023-0.924,0.971-0.393c1.132,0.601,1.34,1.017,1.108,1.594c-0.277,0.693-0.601,3.073-0.624,5.544
		c4.736,1.271,5.706,2.171,5.892,3.396C50.901,13.56,50.578,13.883,49.861,13.49z"/>
</g>
<path d="M-31.32,10.497c1.64,0.531,1.94,0.97,2.01,1.57c0.069,0.739-0.37,0.971-0.878,0.416c-0.763-0.831-1.248-1.34-2.079-1.94
	v-0.347c0.254,0.069,0.462,0.116,0.646,0.208"/>
<path d="M-31.621,10.821"/>
<g>
	<path d="M-19.7,11.237c-0.067,1.883-0.135,0.775-0.112,5.347c0,2.354,0,2.488-0.247,3.385c-0.179,0.673-0.627,0.65-0.919,0.09
		c-0.403-0.784-0.426-1.211-0.157-2.466c0.202-1.031,0.493-5.581,0.471-10.603c0-1.793-0.292-3.542-0.583-4.012
		c-0.403-0.583-0.045-0.896,0.986-0.358s1.166,0.829,0.919,1.457c-0.157,0.381-0.269,5.098-0.336,6.623"/>
</g>
<path d="M-19.787,10.821c0.785-0.947,1.271-1.802,1.433-2.333c0.139-0.485,0.323-0.601,0.9-0.046
	c0.555,0.555,0.462,0.739,0.186,0.855c-0.37,0.139-1.502,0.947-2.218,1.617c1.64,0.531,1.94,0.97,2.01,1.57
	c0.069,0.739-0.37,0.971-0.878,0.416c-0.763-0.831-1.248-1.34-2.079-1.94v-0.347C-20.18,10.682-19.972,10.729-19.787,10.821"/>
<g>
	<path d="M25.642,7.923c0.09,2.336,0.09,3.379,0,5.533c0.794-0.476,1.224-0.748,2.109-1.27c0-1.655-0.137-3.244-0.318-3.652
		c-0.34-0.703-0.068-0.839,0.748-0.363c0.885,0.522,0.999,0.794,0.704,1.27c-0.113,0.181-0.135,0.43-0.113,1.111
		c0.044,2.087-0.046,3.719-0.205,4.717c-0.318,2.132-1.52,4.264-3.446,5.692c-0.342,0.249-0.545,0.023-0.137-0.363
		c0.657-0.703,2.245-3.288,2.563-5.08c0.113-0.703,0.181-1.746,0.203-2.811c-1.769,1.746-2.221,2.245-2.404,2.585
		c-0.543,0.975-0.77,0.997-1.043,0.612c-0.589-0.861-0.567-1.338-0.066-1.724c0.362-0.272,0.543-1.043,0.543-3.062
		c0-0.93-0.068-1.769-0.159-2.381c-0.066-0.522-0.34-1.27-0.567-1.678c-0.384-0.726-0.227-0.862,0.84-0.318
		c0.408,0.204,0.635,0.34,0.726,0.453c1.383-1.474,2.358-3.197,2.268-3.56c-0.227-0.772-0.022-0.93,1.178-0.409
		c1.067,0.454,1.067,0.658,0.681,0.976C28.953,4.884,28.545,5.269,25.642,7.923z"/>
</g>
<path d="M71.113,10.04c0.088,1.126,0.088,2.34-0.022,3.776c0.972-0.486,2.208-1.082,3.268-1.523c0.089-2.319,0-3.886-0.419-4.659
	c-0.31-0.53-0.045-0.729,0.729-0.331c0.905,0.486,1.037,0.795,0.905,1.258c-0.045,0.155-0.089,0.839-0.089,1.501
	c0,3.18-0.354,5.896-1.126,7.242c-0.972,1.656-2.009,2.782-3.599,3.577c-0.685,0.353-0.795,0.11-0.11-0.486
	c2.34-2.031,3.488-4.173,3.688-7.661c-1.921,1.214-3.6,2.605-4.019,3.157c-0.441,0.574-0.53,0.574-0.861-0.11
	c-0.309-0.597-0.243-0.994,0.177-1.392c0.485-0.485,0.729-1.037,0.685-2.229c-0.089-2.473-0.375-3.246-0.972-4.173
	c-0.397-0.574-0.331-0.729,0.928-0.508c3.333-2.495,3.907-3.621,3.819-4.128c-0.089-0.486,0.133-0.574,1.457-0.133
	c1.126,0.375,1.104,0.795,0.53,1.06c-0.221,0.088-1.236,0.707-1.546,0.949c-1.28,0.927-2.517,1.767-3.731,2.407
	c0.133,0.64,0.221,1.325,0.287,2.031"/>
<g>
	<path d="M11.387,11.153c0.437-1.287,0.85-3.083,0.971-4.249c0.073-0.801-0.048-0.825-0.485-0.704
		c-3.69,1.093-4.249,1.141-4.71,0.85C6.556,6.661,6.604,6.467,7.284,6.419c1.117-0.073,3.884-0.68,4.758-1.189
		c0.704-0.437,0.947-0.461,1.796,0.024c1.117,0.631,1.117,0.85,0.485,1.433c-0.413,0.388-0.461,0.558-0.825,1.724
		c-0.292,1.092-0.801,2.476-1.287,3.641l-0.583,1.093c-1.408,2.622-2.622,3.933-4.709,5.098c-0.655,0.389-0.85,0.073-0.194-0.485
		c1.675-1.384,2.986-2.985,4.224-5.583"/>
</g>
</svg>
