<?xml version="1.0" encoding="iso-8859-1"?>
<!-- Generator: Adobe Illustrator 22.1.0, SVG Export Plug-In . SVG Version: 6.00 Build 0)  -->
<svg version="1.1" id="Layer_1" xmlns="http://www.w3.org/2000/svg" xmlns:xlink="http://www.w3.org/1999/xlink" x="0px" y="0px"
	 viewBox="0 0 22 22" style="enable-background:new 0 0 22 22;" xml:space="preserve">
<g>
	<path d="M11.667,15.737c0.877-0.31,2.271-0.697,2.813-0.8c0.723-0.129,0.853,0.104,0.232,0.413
		c-4.647,2.194-6.377,3.124-6.764,3.382c-0.568,0.413-0.853,0.491-1.885-0.619c-0.543-0.568-0.413-1.007,0.31-1.007
		c1.059,0,2.375-0.284,4.054-0.904 M10.169,6.238C8.956,6.47,8,6.418,7.638,6.212C7.096,5.876,7.148,5.644,7.69,5.566
		c0.774-0.104,2.943-0.723,3.537-0.981c0.981-0.439,1.833-0.517,2.53-0.284c0.903,0.31,0.697,0.8,0.258,0.956
		c-0.542,0.206-2.22,0.645-3.201,0.852"/>
</g>
<path d="M10.449,7.504c-0.069,0.134-0.306,0.694-0.711,1.68c1.017-0.12,1.786-0.347,2.306-0.68c0.231-0.146,0.436-0.22,0.615-0.22
	s0.471,0.137,0.876,0.41c0.404,0.273,0.607,0.497,0.607,0.67c0,0.173-0.098,0.36-0.295,0.56s-0.416,0.683-0.659,1.45
	c-0.242,0.766-0.659,2.29-1.248,4.57l-0.901,0.14c0.381-1.426,0.658-2.526,0.832-3.3c-0.913,0.027-1.725,0.127-2.436,0.3
	c-0.71,0.173-1.196,0.367-1.456,0.58c-0.26,0.214-0.459,0.32-0.598,0.32C7.127,13.984,7,13.75,7,13.284
	c0-0.187,0.026-0.363,0.078-0.53c0.052-0.167,0.119-0.27,0.199-0.31c0.404-0.239,0.722-0.64,0.954-1.2
	c0.231-0.56,0.497-1.37,0.797-2.43c0.3-1.06,0.451-1.823,0.451-2.29c0-0.16-0.018-0.3-0.052-0.42l0.797-0.16
	c0.335,0.4,0.503,0.69,0.503,0.87C10.727,6.994,10.634,7.224,10.449,7.504 M11.939,12.464c0.289-1.36,0.434-2.196,0.434-2.51
	c0-0.313-0.162-0.47-0.485-0.47c-0.128,0-0.278,0.02-0.451,0.06c-0.694,0.16-1.329,0.22-1.907,0.18
	c-0.474,1.307-0.786,2.233-0.936,2.78c1.213-0.333,1.953-0.5,2.219-0.5C11.079,12.004,11.455,12.157,11.939,12.464z"/>
</svg>
