<?xml version="1.0" encoding="iso-8859-1"?>
<!-- Generator: Adobe Illustrator 22.1.0, SVG Export Plug-In . SVG Version: 6.00 Build 0)  -->
<svg version="1.1" id="Layer_1" xmlns="http://www.w3.org/2000/svg" xmlns:xlink="http://www.w3.org/1999/xlink" x="0px" y="0px"
	 viewBox="0 0 22 22" style="enable-background:new 0 0 22 22;" xml:space="preserve">
<g>
	<path d="M15.773,20.017c-1.182,0.352-2.782,0.553-4.531,0.553c-2.29,0-4.087-0.402-4.9-1.056c-1.551-1.257-1.601-2.714,0.123-6.057
		c0.837-1.659,2.585-4.524,3.546-5.756c0.542-0.679,0.493-0.729-0.296-0.528C8.903,7.376,7.992,7.602,7.155,7.803
		c-0.64,0.151-1.207,0.1-1.65-0.176C4.964,7.275,5.013,7.074,5.678,7.024c0.419-0.025,1.108-0.201,2.241-0.502
		c1.206-0.327,2.88-1.131,3.397-1.508c0.616-0.503,0.764-0.478,1.896,0.201c1.182,0.704,1.182,1.081,0.418,1.382
		c-0.812,0.327-1.748,1.156-2.585,2.036c-1.478,1.558-2.709,3.393-3.768,5.755c-1.206,2.664-0.935,4.248,1.625,4.474
		c1.625,0.151,4.087,0.025,5.442-0.553c1.083-0.452,1.452-1.08,2.092-3.669c0.222-0.956,0.468-0.855,0.517,0.075
		c0.074,1.231,0.247,2.639,0.543,3.292C17.767,18.61,17.325,19.565,15.773,20.017z"/>
</g>
</svg>
