<?xml version="1.0" encoding="iso-8859-1"?>
<!-- Generator: Adobe Illustrator 22.1.0, SVG Export Plug-In . SVG Version: 6.00 Build 0)  -->
<svg version="1.1" id="Layer_1" xmlns="http://www.w3.org/2000/svg" xmlns:xlink="http://www.w3.org/1999/xlink" x="0px" y="0px"
	 viewBox="0 0 22 22" style="enable-background:new 0 0 22 22;" xml:space="preserve">
<g>
	<path d="M14.477,10.821c-0.236,0.822-0.541,1.691-0.823,2.184c-0.423,0.705-0.987,0.682-1.081,0.142
		c-0.094-0.564-0.164-0.611-0.728-0.564c-0.423,0.023-0.94,0.07-1.456,0.117c0.023,2.115-0.023,4.369-0.141,6.366
		c-0.07,1.269-0.141,1.786-0.352,2.256c-0.4,0.917-0.611,0.917-0.705,0.047c-0.047-0.399-0.117-1.785-0.094-2.584
		c0.094-1.691,0.141-3.875,0.117-5.943c-0.775,0.094-1.574,0.188-2.326,0.306c0,0.376-0.117,0.423-0.353,0.399
		c-0.469-0.023-0.54-0.423-0.728-2.067C5.551,9.224,5.105,6.969,4.494,6.17C4.118,5.677,4.353,5.324,5.668,5.723
		c2.208-0.023,6.366-0.705,7.658-1.174c0.516-0.188,0.657-0.165,1.08,0c0.377,0.164,1.175,0.728,1.528,1.033
		C16.427,6.006,16.45,6.1,15.981,6.71C15.463,7.415,15.135,8.19,14.477,10.821z M9.192,9.623c-0.799,0.117-1.316,0.094-1.644,0
		C7.031,9.529,7.031,9.294,7.571,9.153c0.587-0.164,1.127-0.282,1.621-0.4C9.145,7.063,9.075,6.475,8.769,6.076
		C8.017,6.193,6.937,6.311,6.068,6.381c0.329,1.644,0.611,4.205,0.775,6.178c0.939-0.164,1.715-0.305,2.372-0.399
		C9.216,11.268,9.216,10.421,9.192,9.623z M12.809,5.536c-0.986,0.047-1.926,0.117-3.076,0.376c0.705,0.4,0.869,0.634,0.728,1.057
		c-0.094,0.282-0.141,0.517-0.117,1.55c0.775-0.164,1.362-0.211,1.761-0.141c0.728,0.141,0.775,0.587,0.117,0.728
		c-0.728,0.164-1.339,0.282-1.878,0.352c0.023,0.799,0.047,1.644,0.047,2.513c0.963-0.117,1.479-0.141,1.644-0.094
		c0.61,0.259,0.681,0.141,0.869-0.516c0.517-1.903,0.987-3.852,0.987-5.027C13.89,5.817,13.491,5.512,12.809,5.536z"/>
</g>
</svg>
