<?xml version="1.0" encoding="utf-8"?>
<!-- Generator: Adobe Illustrator 22.1.0, SVG Export Plug-In . SVG Version: 6.00 Build 0)  -->
<svg version="1.1" id="Layer_1" xmlns="http://www.w3.org/2000/svg" xmlns:xlink="http://www.w3.org/1999/xlink" x="0px" y="0px"
	 viewBox="0 0 22 22" style="enable-background:new 0 0 22 22;" xml:space="preserve">
<g>
	<path d="M-8.8,20.4c-5.1,0.1-5.4-0.1-6.3-1.4c-0.8-1.1-2.1-3.4-3.5-6.2c-0.8,3.7-2.8,6.6-6.5,7.4c-0.8,0.2-0.8-0.1-0.2-0.5
		c1.8-0.9,4.1-3.1,4.8-5.2c0.4-1.2,0.6-1.7,0.8-3.3c-0.6,0.1-1.2,0.2-1.8,0.4c-1.1,0.2-1.6,0.2-2,0c-0.8-0.3-0.7-0.6,0.1-0.7
		c0.6-0.1,2.3-0.4,3.8-0.6c0-0.6,0.1-1.4,0.1-2.4c0-0.7-0.1-1.8-0.3-2.4c-0.3-0.7-0.1-1,1-0.6c1.2,0.4,1.4,0.7,1.1,1.2
		c-0.1,0.3-0.4,1.3-0.4,1.9c0,0.8-0.1,1.4-0.1,2c1-0.2,1.9-0.5,2.4-0.6c1.4-0.5,2.1-0.5,2.9-0.1c0.9,0.5,0.9,1.1-0.9,1.1
		c-0.9,0-2.6,0.2-4.5,0.6c0,0.3-0.1,0.6-0.1,0.9c1,1.5,2.1,3,2.7,3.5c1.9,1.9,2.2,2.4,7.2,4.4C-7.6,20-7.8,20.3-8.8,20.4z
		 M-13.7,7.8c-0.6-0.3-1.2-0.8-1.9-1.5c-0.4-0.4-0.4-0.6,0.4-0.7c1.6-0.1,2.5,0.6,2.5,1.5C-12.7,7.9-13.1,8.1-13.7,7.8z"/>
</g>
<g>
	<path d="M53.8,10.9c-0.2,2-0.7,3.6-1.1,4.6c-1.3,2.8-3.5,4.9-6.5,6.2c-0.7,0.3-0.9,0.1,0-0.5c3.2-2.2,5-4.6,5.7-6.8
		c0.9-2.8,0.9-6,0.5-7c-0.3-0.8-0.1-0.9,0.9-0.7c1,0.3,1.2,0.5,0.9,1.1C54,8.1,54,8.7,53.8,10.9z M57.4,7.1
		c-0.1,0.8-0.1,1.7-0.2,3.2c-0.1,3.1-0.2,3.6-0.4,4.3c-0.2,0.5-0.5,0.6-0.9,0c-0.3-0.5-0.4-1.1-0.2-1.9c0.2-0.8,0.5-5.6,0.3-7.3
		c-0.1-0.6-0.4-0.9-1.4-0.8c-1,0.2-2.6,0.5-3.9,0.7c0.2,2.9,0.1,7.1,0,8.1c-0.1,1.4-0.5,1.5-0.9,0.8c-0.4-0.6-0.4-0.8-0.1-1.9
		c0.1-0.7,0.3-2.7,0.1-5.6c0-0.7-0.2-1.3-0.4-1.6c-0.3-0.6-0.2-0.8,1.1-0.4c1.6-0.2,3.9-0.8,4.6-1.1c0.6-0.3,0.9-0.3,1.7,0.2
		c1.4,0.8,1.5,1.1,1.1,1.6C57.6,5.7,57.4,6.2,57.4,7.1z M60.6,21.3c-1.6,0.5-3.4,0.5-4.8,0.3c-1.4-0.2-2.2-1.2-2.3-2.7
		c0-0.9,0-1.8,0-2.8c0-0.5,0-1.1,0-1.5c-0.1-0.7,0.1-0.8,0.9-0.3c0.6,0.3,0.7,0.6,0.4,1.4c-0.2,0.8-0.4,2.5-0.3,3.1
		c0.1,1.2,1.2,1.8,3.2,1.5c2.4-0.3,2.8-0.8,3.2-3.1c0.2-1.1,0.4-1.2,0.5-0.2c0.2,1.5,0.4,2.4,0.6,3.1C62.1,20.6,62,20.9,60.6,21.3z"
		/>
</g>
<g>
	<path d="M9.1,6.9c1.3-0.3,2.4-0.6,3.1-0.9c1-0.5,1.2-0.4,2.3,0.2c1.4,0.8,1.4,1.2,0.7,1.9c-0.3,0.3-0.7,1.3-0.9,2.4
		c-0.3,1.4-0.8,3.2-1.3,4c-0.4,0.5-0.7,0.5-0.8,0c-0.1-0.5-0.4-0.6-3.2,0c0,2.8,0.5,3.9,1.5,4.2c1.2,0.4,4.2,0.2,4.9-0.2
		c0.7-0.4,1.1-1.3,1.9-3.6c0.2-0.7,0.4-0.7,0.4,0.1c0,1.5,0.2,2.6,0.4,3.1c0.3,0.7,0.1,1.3-1.5,2.2c-1.6,0.8-5.6,0.9-6.7,0.1
		c-1.7-1.1-1.9-2.3-1.9-5.6c-0.9,0.2-1.8,0.3-2.5,0.4c0,0.4-0.2,0.8-0.3,0.8c-0.4,0-0.5-0.6-0.6-1.7c-0.3-2.2-0.7-5-1.2-5.7
		c-0.6-1-0.5-1.4,1-0.8C5.3,7.7,6.7,7.4,8,7.2 M8.1,11.3c-0.5,0.1-1,0.1-1.4,0.1c-0.9-0.1-1-0.6-0.1-0.7c0.3,0,0.9-0.2,1.4-0.3
		c0-0.9,0-1.8,0-2.5C6.5,8.2,5.6,8.3,4.8,8.4c0.3,0.7,0.5,2.3,0.8,6.1c1-0.2,1.8-0.3,2.5-0.5C8,13.3,8,12.4,8.1,11.3z M11.2,7.1
		c-0.9,0.2-1.5,0.4-2.2,0.5c0,0.6,0,1.3,0,2.4C9.4,9.9,9.8,9.8,10,9.7c0.4-0.2,1.3-0.2,1.6,0c0.4,0.2,0.4,0.4-0.4,0.8
		c-0.6,0.2-1.4,0.5-2.1,0.6c0,1.3,0,2,0,2.7c2.2-0.5,2.5-0.5,2.7-0.5c0.2,0,0.5-0.1,0.5-0.5c0.3-1.4,0.7-3.6,0.7-5
		C13,6.9,12.8,6.7,11.2,7.1z"/>
</g>
</svg>
