<?xml version="1.0" encoding="iso-8859-1"?>
<!-- Generator: Adobe Illustrator 22.1.0, SVG Export Plug-In . SVG Version: 6.00 Build 0)  -->
<svg version="1.1" id="Layer_1" xmlns="http://www.w3.org/2000/svg" xmlns:xlink="http://www.w3.org/1999/xlink" x="0px" y="0px"
	 viewBox="0 0 22 22" style="enable-background:new 0 0 22 22;" xml:space="preserve">
<g>
	<path d="M-10.875,19.883c-1.423-2.159-1.89-2.92-2.577-4.49c-0.638,2.674-2.895,5.104-5.717,6.159
		c-0.859,0.318-1.08,0.049-0.098-0.565c2.552-1.546,4.417-4.146,4.933-6.551c-0.687,0.147-1.374,0.343-1.939,0.515
		c-1.595,0.442-1.915,0.49-2.601,0.197c-0.662-0.27-0.589-0.49,0.147-0.54c0.147-0.025,1.03-0.172,2.208-0.369
		c-0.123-1.718-0.662-3.779-1.178-4.49c-0.442-0.638-0.27-0.908,1.08-0.369c1.006-0.098,1.939-0.278,2.822-0.426
		c0.147-2.473,0.122-3.216-0.294-3.997c-0.343-0.632-0.27-0.799,0.982-0.446c1.595,0.446,1.571,0.502,1.153,1.116
		c-0.147,0.223-0.638,2.528-0.712,3.197c1.031-0.149,1.718-0.449,1.915-0.547C-9.893,7.859-9.698,7.834-8.937,8.3
		c1.252,0.81,1.203,1.055,0.736,1.497c-0.417,0.393-0.613,0.712-1.571,3.239c2.896-0.54,3.338-0.466,4.074-0.049
		c0.982,0.589,0.81,1.129-0.761,1.031c-0.515-0.025-4.171-0.025-6.748,0.245l-0.049,0.197c3.313,4.638,4.466,5.251,7.877,6.551
		c0.687,0.246,0.613,0.59,0.025,0.614C-9.329,21.87-9.624,21.723-10.875,19.883z M-16.225,9.994
		c0.221,0.908,0.319,1.717,0.515,4.122c0.515-0.098,0.957-0.221,1.472-0.294c0.197-1.227,0.343-2.847,0.417-4.196
		C-14.801,9.822-15.415,9.945-16.225,9.994z M-10.777,9.282c-0.541,0-1.228,0.049-1.915,0.147c-0.123,1.743-0.269,3.043-0.441,4.221
		c0.982-0.172,1.766-0.319,2.135-0.393c0.319-1.08,0.712-2.626,0.785-3.411C-10.163,9.503-10.36,9.282-10.777,9.282z"/>
</g>
<g>
	<path d="M10.523,7.441c-0.065,0.225-0.129,0.561-0.191,1.008c0.576-0.127,1.103-0.24,1.585-0.336c0.479-0.096,0.847,0,1.103,0.288
		c0.256,0.288,0.112,0.497-0.432,0.624c-0.544,0.129-1.297,0.322-2.255,0.576v2.402c1.344-0.32,2.576-0.544,3.696-0.673
		c1.12-0.127,1.873-0.096,2.258,0.097c0.385,0.191,0.688,0.432,0.912,0.72c0.224,0.288-0.256,0.417-1.441,0.384
		c-1.185-0.031-2.129-0.015-2.831,0.048c-0.705,0.065-1.57,0.16-2.593,0.288c-0.065,3.01-0.114,4.979-0.144,5.906
		c-0.035,0.926-0.144,1.711-0.338,2.352c-0.191,0.64-0.382,0.848-0.576,0.625c-0.191-0.225-0.288-0.88-0.288-1.968v-6.723
		c-2.242,0.45-3.618,0.705-4.129,0.769c-0.513,0.065-1.057-0.063-1.633-0.384s-0.384-0.496,0.576-0.529
		c0.961-0.031,2.69-0.271,5.186-0.72V9.89c-0.767,0.129-1.392,0.178-1.873,0.144C6.633,10.003,6.248,9.875,5.96,9.65
		c-0.288-0.224-0.24-0.351,0.144-0.384c0.385-0.032,1.345-0.207,2.881-0.528c0-1.088-0.129-1.791-0.384-2.112
		C7.961,6.69,7.449,6.754,7.066,6.817C6.681,6.881,6.263,6.785,5.816,6.529C5.368,6.274,5.543,6.082,6.345,5.953
		c0.8-0.127,1.791-0.336,2.977-0.624c1.184-0.288,2.08-0.528,2.689-0.72c0.609-0.192,1.202-0.128,1.778,0.192
		c0.576,0.321,0.35,0.624-0.673,0.912C12.09,6,11.099,6.241,10.138,6.433C10.458,6.881,10.585,7.217,10.523,7.441z"/>
</g>
</svg>
