<?xml version="1.0" encoding="iso-8859-1"?>
<!-- Generator: Adobe Illustrator 22.1.0, SVG Export Plug-In . SVG Version: 6.00 Build 0)  -->
<svg version="1.1" id="Layer_1" xmlns="http://www.w3.org/2000/svg" xmlns:xlink="http://www.w3.org/1999/xlink" x="0px" y="0px"
	 viewBox="0 0 22 22" style="enable-background:new 0 0 22 22;" xml:space="preserve">
<g>
	<path d="M12.641,19.171c1.008-0.145,1.756-0.217,2.242-0.217s1,0.145,1.539,0.433c0.541,0.288,0.811,0.576,0.811,0.864
		c0,0.307-0.225,0.459-0.676,0.459c-0.09,0-0.189-0.009-0.297-0.027c-1.152-0.197-2.35-0.297-3.592-0.297s-2.643,0.086-4.199,0.257
		c-1.559,0.171-2.697,0.328-3.417,0.473c-0.72,0.144-1.233,0.216-1.54,0.216c-0.306,0-0.63-0.112-0.972-0.338
		c-0.343-0.225-0.513-0.4-0.513-0.526s0.346-0.207,1.039-0.243c0.693-0.035,1.635-0.116,2.822-0.243
		c0.09-3.547,0.135-6.526,0.135-8.939c0-2.413-0.152-3.871-0.459-4.375C5.439,6.45,5.377,6.274,5.377,6.139s0.112-0.203,0.337-0.203
		c0.226,0,0.6,0.099,1.121,0.297c1.116,0.108,2.539-0.198,4.268-0.918c0.18-0.072,0.324-0.108,0.432-0.108
		c0.252,0,0.717,0.18,1.391,0.54c0.676,0.36,1.014,0.667,1.014,0.918c0,0.108-0.082,0.27-0.244,0.486
		c-0.16,0.216-0.291,0.478-0.391,0.783c-0.1,0.307-0.186,0.82-0.256,1.54c-0.072,0.72-0.145,1.99-0.217,3.808L12.641,19.171z
		 M11.264,19.359c0.197-5.726,0.297-9.605,0.297-11.64c0-0.432-0.062-0.725-0.189-0.878c-0.125-0.153-0.423-0.229-0.891-0.229
		c-0.469,0-0.955,0.054-1.459,0.162S8.172,6.936,7.983,6.936c-0.189,0-0.445-0.045-0.77-0.135c0.071,0.378,0.107,0.896,0.107,1.553
		s-0.01,1.49-0.027,2.498c1.26-0.396,2.049-0.594,2.363-0.594s0.572,0.054,0.77,0.162c0.198,0.108,0.298,0.234,0.298,0.378
		c0,0.234-0.343,0.415-1.026,0.541c-0.685,0.126-1.175,0.189-1.473,0.189c-0.297,0-0.607-0.081-0.932-0.243
		c-0.018,1.513-0.045,2.8-0.08,3.862c1.458-0.342,2.291-0.514,2.498-0.514s0.418,0.059,0.635,0.176
		c0.216,0.117,0.324,0.229,0.324,0.338c0,0.18-0.311,0.333-0.932,0.459c-0.622,0.126-1.095,0.189-1.418,0.189
		c-0.324,0-0.693-0.09-1.107-0.271l-0.108,4.321L11.264,19.359z"/>
</g>
</svg>
