<?xml version="1.0" encoding="iso-8859-1"?>
<!-- Generator: Adobe Illustrator 22.1.0, SVG Export Plug-In . SVG Version: 6.00 Build 0)  -->
<svg version="1.1" id="Layer_1" xmlns="http://www.w3.org/2000/svg" xmlns:xlink="http://www.w3.org/1999/xlink" x="0px" y="0px"
	 viewBox="0 0 22 22" style="enable-background:new 0 0 22 22;" xml:space="preserve">
<g>
	<path d="M7.486,7.214c0,0.814-0.028,1.819-0.082,3.013c1.738-0.163,3.108-0.326,4.113-0.489c1.004-0.163,1.899-0.352,2.688-0.57
		c0.786-0.216,1.411-0.149,1.873,0.204c0.46,0.354,0.244,0.625-0.652,0.814c-0.896,0.19-1.697,0.326-2.401,0.407
		c-0.706,0.082-1.25,0.15-1.629,0.204c0.542,0.489,0.732,0.896,0.57,1.221c-0.163,0.326-0.244,1.331-0.244,3.014
		s-0.055,3.244-0.163,4.682c-0.109,1.438-0.299,2.158-0.57,2.158c-0.272,0-0.421-0.991-0.448-2.973c-0.027-1.98-0.027-3.623,0-4.926
		c0.027-1.304-0.068-2.334-0.284-3.095c-1.032,0.055-1.983,0.055-2.851,0c-0.109,1.086-0.299,2.104-0.57,3.054
		c-0.272,0.95-0.761,1.887-1.466,2.81c-0.706,0.924-1.561,1.602-2.565,2.035c-1.005,0.436-1.032,0.272-0.082-0.488
		c0.949-0.76,1.71-1.682,2.28-2.769c0.57-1.085,0.937-2.266,1.099-3.542c0.163-1.275,0.23-2.375,0.204-3.298
		C6.277,7.757,6.142,7.105,5.898,6.725C5.654,6.346,5.694,6.169,6.02,6.195C6.346,6.223,6.684,6.305,7.038,6.44"/>
</g>
<path d="M10.079,7.218C8.69,7.437,7.917,7.437,7.342,7.119C6.786,6.802,6.866,6.603,7.303,6.543C7.897,6.464,8.69,6.286,10.714,5.77
	c1.27-0.317,1.964-0.297,2.539,0.04c0.576,0.357,0.477,0.595,0.021,0.793C12.896,6.762,11.746,6.98,10.079,7.218z"/>
</svg>
