<?xml version="1.0" encoding="iso-8859-1"?>
<!-- Generator: Adobe Illustrator 22.1.0, SVG Export Plug-In . SVG Version: 6.00 Build 0)  -->
<svg version="1.1" id="Layer_1" xmlns="http://www.w3.org/2000/svg" xmlns:xlink="http://www.w3.org/1999/xlink" x="0px" y="0px"
	 viewBox="0 0 22 22" style="enable-background:new 0 0 22 22;" xml:space="preserve">
<g>
	<path d="M10.66,15.978c-0.189,0.43-0.284,1.409-0.284,2.938c2.085-0.184,3.506-0.336,4.265-0.459
		c0.758-0.122,1.422,0.046,1.99,0.505s0.394,0.704-0.521,0.734c-0.917,0.031-1.864,0.031-2.843,0
		c-0.98-0.03-2.355,0.062-4.123,0.275c-1.77,0.215-2.971,0.413-3.602,0.597c-0.632,0.184-1.327,0.062-2.085-0.367
		c-0.758-0.428-0.758-0.643,0-0.643c0.82,0,2.748-0.184,5.781-0.551c-0.063-2.264-0.128-3.473-0.189-3.627
		c-0.063-0.151-0.412-0.197-1.043-0.138c-0.632,0.062-1.201-0.029-1.706-0.275c-0.507-0.243-0.459-0.397,0.142-0.459
		c0.6-0.06,1.294-0.168,2.085-0.321c0.789-0.151,1.706-0.366,2.749-0.643c1.042-0.275,1.8-0.29,2.274-0.046
		c0.474,0.246,0.41,0.491-0.189,0.734c-0.602,0.245-1.691,0.491-3.271,0.734C10.66,15.214,10.85,15.551,10.66,15.978z
		 M15.493,11.112c0.759,0.674,1.09,1.301,0.995,1.882c-0.095,0.582-0.601,0.551-1.516-0.092c-0.917-0.643-2.545-1.699-4.882-3.167
		c-0.506,0.551-1.122,1.133-1.848,1.744c-0.727,0.613-1.691,1.148-2.891,1.607c-1.201,0.459-1.09,0.184,0.332-0.826
		c1.421-1.01,2.637-2.188,3.649-3.535c1.01-1.345,1.578-2.325,1.706-2.938C10.217,5.911,9.364,6.14,8.48,6.476
		c-0.886,0.337-1.628,0.337-2.228,0C5.651,6.14,5.746,5.94,6.537,5.879c0.789-0.06,1.768-0.26,2.938-0.597
		c1.168-0.336,1.848-0.597,2.037-0.78s0.458-0.198,0.806-0.046c0.347,0.153,0.711,0.383,1.09,0.688
		c0.379,0.307,0.363,0.566-0.047,0.78c-0.412,0.215-0.854,0.643-1.327,1.285s-1.027,1.363-1.658,2.158
		C13.029,9.858,14.735,10.439,15.493,11.112z"/>
</g>
</svg>
