<?xml version="1.0" encoding="iso-8859-1"?>
<!-- Generator: Adobe Illustrator 22.1.0, SVG Export Plug-In . SVG Version: 6.00 Build 0)  -->
<svg version="1.1" id="Layer_1" xmlns="http://www.w3.org/2000/svg" xmlns:xlink="http://www.w3.org/1999/xlink" x="0px" y="0px"
	 viewBox="0 0 22 22" style="enable-background:new 0 0 22 22;" xml:space="preserve">
<g>
	<path d="M15.872,21.207c-0.608,0.579-0.724,0.579-1.13-0.174c-0.405-0.782-1.129-1.768-1.681-2.405
		c-0.318-0.348-0.289-0.58,0.174-0.435c1.71,0.464,1.913,0.406,1.942-0.318c0.116-3.825-0.29-8.636-0.666-10.752
		c-0.145-0.753-0.493-1.304-1.566-1.217c-0.869,0.087-2.115,0.261-3.419,0.493c1.159,0.609,1.363,0.956,1.247,1.593
		c-0.029,0.203-0.058,0.58-0.058,1.13c1.419-0.522,1.942-0.522,2.231-0.348c0.609,0.377,0.377,0.637-0.058,0.811
		c-0.637,0.261-1.216,0.464-2.173,0.667c0,0.782,0,1.593,0.029,2.521c1.884-0.521,2.144-0.579,2.492-0.492
		c0.608,0.115,0.435,0.579-0.058,0.811c-0.55,0.26-1.39,0.579-2.434,0.811c0.029,2.116-0.087,3.216-0.348,4.492
		c-0.145,0.898-0.666,0.956-0.782,0.029c-0.087-0.608-0.087-1.276-0.029-4.288c-0.869,0.115-1.681,0.029-2.202-0.116
		c-0.493-0.174-0.348-0.435,0.029-0.522c0.406-0.058,1.304-0.26,2.173-0.463c0.029-0.985,0.029-1.797,0.029-2.55
		c-0.869,0.174-1.594,0.203-2.145-0.029c-0.463-0.173-0.319-0.435,0.029-0.493c0.609-0.087,1.217-0.203,2.087-0.464
		C9.497,7.703,9.352,6.979,8.946,6.486L6.164,6.979c-0.058,4.52-0.29,8.027-0.551,10.2c-0.348,2.724-0.724,2.869-1.159,1.942
		c-0.377-0.724-0.406-2.173-0.087-3.419c0.348-1.479,0.551-5.158,0.464-6.52C4.802,8.312,4.744,7.268,4.484,6.776
		C4.136,6.167,4.426,5.877,5.672,6.312c2.347-0.232,6.115-0.927,7.215-1.42c0.841-0.406,1.334-0.464,2.493,0.145
		c1.39,0.695,1.448,0.956,1.101,1.681c-0.29,0.551-0.232,3.275-0.029,5.042c0.26,2.145,0.492,4.086,0.55,5.13
		C17.09,18.338,16.683,20.367,15.872,21.207z"/>
</g>
</svg>
