<?xml version="1.0" encoding="iso-8859-1"?>
<!-- Generator: Adobe Illustrator 22.1.0, SVG Export Plug-In . SVG Version: 6.00 Build 0)  -->
<svg version="1.1" id="Layer_1" xmlns="http://www.w3.org/2000/svg" xmlns:xlink="http://www.w3.org/1999/xlink" x="0px" y="0px"
	 viewBox="0 0 22 22" style="enable-background:new 0 0 22 22;" xml:space="preserve">
<g>
	<path d="M-14.315,8.423c0.979-0.289,1.813-0.272,2.504,0.054c0.689,0.327,0.742,0.636,0.162,0.926
		c-0.581,0.291-2.068,0.545-4.463,0.762c0.507,0.364,0.816,0.672,0.924,0.926c0.11,0.255-0.018,0.8-0.381,1.634
		c-0.364,0.835-0.799,1.869-1.307,3.103c1.161,1.161,2.304,2.142,3.43,2.939c1.125,0.8,2.376,1.38,3.756,1.742
		c1.379,0.363,1.705,0.615,0.981,0.762c-0.727,0.145-1.707,0.219-2.94,0.219c-1.234,0-2.087-0.201-2.558-0.6
		c-0.473-0.398-0.908-0.852-1.307-1.361c-0.399-0.507-1.143-1.377-2.232-2.613c-0.944,1.236-1.924,2.178-2.94,2.832
		c-1.017,0.653-2.178,1.07-3.484,1.252c-1.307,0.181-1.47,0.055-0.49-0.381s2.014-1.051,3.103-1.851
		c1.089-0.797,2.069-1.813,2.94-3.048c-1.379-1.596-2.341-2.595-2.885-2.994c-0.545-0.398-0.527-0.581,0.054-0.545
		c0.58,0.037,0.98,0.2,1.197,0.49l2.177,2.068c0.725-1.233,1.125-2.303,1.198-3.213c0.072-0.906-0.018-1.341-0.272-1.306
		c-0.255,0.038-0.49,0.055-0.707,0.055c-0.219,0-0.835-0.036-1.851-0.109c-0.8,0.8-1.597,1.453-2.395,1.96
		c-0.8,0.509-0.89,0.381-0.272-0.381c0.616-0.762,1.143-1.47,1.579-2.123c0.435-0.653,0.871-1.451,1.307-2.396
		c0.435-0.942,0.599-1.633,0.49-2.068c-0.109-0.435,0.09-0.58,0.599-0.435c0.507,0.146,0.996,0.381,1.47,0.708
		c0.471,0.327,0.471,0.708,0,1.143c-0.474,0.436-1.217,1.38-2.232,2.831C-16.911,9.04-15.295,8.713-14.315,8.423z"/>
</g>
<g>
	<path d="M9.527,5.543c1.027-0.228,2.225-0.57,3.536-0.941c1.113-0.314,2.11-0.399,2.824,0c0.799,0.399,0.712,0.856-1.341,1.198
		c-1.369,0.228-2.88,0.57-5.304,1.055C8.9,8.11,8.558,9.307,8.129,10.392c1.226-0.086,3.109-0.542,3.993-1.112
		c0.542-0.371,0.827-0.428,1.912,0.085c1.027,0.457,1.027,0.799,0.542,1.226c-0.314,0.257-0.514,0.599-1.17,2.596
		c-0.57,1.597-0.827,2.225-1.226,2.965c2.482,2.111,4.792,3.223,8.015,3.879c0.485,0.085,0.485,0.627,0.085,0.712
		c-1.141,0.257-2.966,0.486-3.965,0.486c-0.827,0-1.055-0.172-1.768-0.884c-1.341-1.341-2.51-2.511-3.109-3.166
		c-1.341,1.539-3.508,2.567-6.047,2.937c-0.769,0.114-0.827-0.314-0.028-0.627c1.94-0.771,4.05-1.825,5.191-3.28
		c-1.825-2.025-2.881-2.767-3.621-3.052c-1.198,2.367-2.709,4.135-4.307,5.333c-0.969,0.713-1.313,0.457-0.542-0.399
		c2.623-2.937,4.706-6.816,5.618-10.98C6.561,7.283,5.449,7.283,5.05,7.055C4.365,6.684,4.393,6.456,5.449,6.342
		c0.57-0.057,1.425-0.2,2.481-0.428 M7.302,12.416c0.912,0.142,1.283,0.314,1.711,0.771c0.771,0.77,1.512,1.483,2.11,2.053
		c0.486-1.056,0.885-2.738,0.913-3.708c0.028-0.941-0.142-1.027-1.426-0.742c-1.056,0.257-1.825,0.371-2.681,0.114
		C7.731,11.447,7.53,11.931,7.302,12.416z"/>
</g>
</svg>
