<?xml version="1.0" encoding="iso-8859-1"?>
<!-- Generator: Adobe Illustrator 22.1.0, SVG Export Plug-In . SVG Version: 6.00 Build 0)  -->
<svg version="1.1" id="Layer_1" xmlns="http://www.w3.org/2000/svg" xmlns:xlink="http://www.w3.org/1999/xlink" x="0px" y="0px"
	 viewBox="0 0 22 22" style="enable-background:new 0 0 22 22;" xml:space="preserve">
<g>
	<path d="M-13.422,7.55c-0.187,0.48-0.187,0.64,0.454,1.041c0.347,0.213,0.32,0.613-0.133,0.72
		c-2.294,0.534-3.388,0.774-4.161,0.854c-0.026,1.36-0.133,3.947-0.267,5.628c1.094-0.827,3.121-2.347,3.627-2.667
		c0.72-0.48,0.987-0.08,0.374,0.533c-2.347,2.348-4.561,4.774-4.748,5.068c-0.773,1.333-1.093,1.333-1.627,0.08
		c-0.4-0.961-0.427-1.334,0.054-1.707c0.453-0.32,0.8-0.641,0.907-1.228c0.267-1.44,0.267-5.014,0.026-5.734
		c-0.427-1.227-0.187-1.574,1.36-0.773c2.828-0.454,2.934-0.614,3.121-1.787c0.213-1.28,0.32-2.214,0.347-2.801
		c0.027-0.507-0.133-0.533-1.36,0.107c-1.734,0.88-2.881,0.987-3.708,0.4c-0.8-0.533-0.72-0.907,0.56-0.907
		c0.88,0,3.441-0.693,4.241-1.36c0.693-0.56,0.907-0.613,2.347-0.107c1.201,0.427,1.201,0.907,0.374,1.44
		C-12.275,4.776-12.808,5.87-13.422,7.55z"/>
</g>
<g>
	<path d="M34.645,14.594c0.351-0.731,0.614-1.551,0.819-2.574c0.322-1.609,0.234-1.755-0.438-1.697
		c-0.41,0.029-1.287,0.351-1.58,0.556c-0.556,0.439-0.907,0.41-1.112,0c-0.234-0.438-0.087-0.936,0.468-1.404
		c0.526-0.38,1.024-1.316,2.077-4.446c0.234-0.731,0.117-0.819-1.375-0.059c-0.878,0.468-1.287,0.468-1.931,0.146
		c-1.316-0.644-1.316-0.965,0-0.995c0.76-0.029,2.516-0.526,3.188-1.17c0.731-0.702,1.141-0.731,2.252,0.087
		c1.141,0.819,1.199,1.083,0.352,1.609c-0.381,0.205-1.463,1.492-2.984,4.271c-0.498,0.819-0.439,0.936,0.438,0.585
		c1.024-0.38,1.346-0.351,2.106,0.029c1.316,0.672,1.375,1.023,0.673,1.755c-0.263,0.292-0.438,0.614-0.906,2.019
		c-0.264,0.789-0.526,1.375-0.849,1.96 M35.289,16.173c-1.521,2.136-4.358,4.183-6.23,4.563c-1.17,0.233-1.199,0.059,0.585-1.023
		c1.609-0.966,3.481-2.574,4.476-4.242"/>
</g>
<path d="M37.072,18.858c-1.508-1.742-3.079-3.631-4.247-5.096c-0.297-0.361-0.191-0.552,0.255-0.319
	c4.565,2.357,4.756,2.803,5.011,4.417C38.282,19.048,37.645,19.537,37.072,18.858z"/>
<g>
	<path d="M55.108,16.963c-3.276,3.247-5.294,4.271-7.605,5.031c-0.585,0.176-0.673-0.117-0.087-0.497
		c1.666-1.024,3.948-2.926,5.206-4.417c1.229-1.521,1.521-2.369,1.404-2.809c-0.117-0.468,0.409-0.731,1.229-0.263
		c1.784,1.023,1.989,1.316,1.053,1.901C56.103,16.026,55.898,16.173,55.108,16.963z M63.854,8.188
		c-0.176,0.38-0.205,0.731,0.176,0.965c0.556,0.38,0.468,0.848-0.293,0.965c-1.608,0.263-5.879,0.877-8.19,1.111
		c-0.088,1.199-0.906,0.761-1.199-0.468c-1.023-4.68-1.404-5.5-2.105-6.26c-0.878-0.965-0.557-1.697,1.872-0.731
		c2.076,0.059,6.932-1.082,8.453-1.667c0.702-0.263,1.111-0.205,2.779,0.614c1.784,0.878,1.813,1.375,0.965,1.989
		C65.639,5.204,64.849,6.052,63.854,8.188z M59.379,3.888c-2.925,0.585-3.92,0.731-4.621,0.76c0.204,1.492,0.468,3.803,0.73,5.646
		c1.639-0.175,4.388-0.673,5.792-1.082c0.819-0.234,1.111-0.731,1.667-4.709C63.064,3.625,62.45,3.303,59.379,3.888z M67.072,20.941
		c-2.077-2.399-4.241-5.002-5.851-7.021c-0.409-0.497-0.263-0.761,0.352-0.439c6.289,3.247,6.552,3.861,6.903,6.085
		C68.739,21.204,67.862,21.877,67.072,20.941z"/>
	<path d="M97.139,4.297C94.652,4.18,91.786,4.355,87.076,4.97c-0.673,1.316-1.346,2.574-2.135,3.773
		c0.116,0.029,0.263,0.088,0.38,0.176c1.813-0.234,3.803-0.644,5.148-1.112c0.702-0.322,1.141-0.322,2.34,0.234
		c1.199,0.527,1.346,0.849,0.965,1.638c-0.263,0.526-0.351,1.229-0.233,2.779c0.175,2.281,0.468,6.406,0.556,7.547
		c0.146,1.696-0.264,3.071-0.995,4.124c-0.73,1.024-1.17,1.054-1.521,0.205c-0.352-0.849-1.199-2.135-1.696-2.633
		c-0.585-0.644-0.557-0.906,0.204-0.702c1.639,0.527,1.872,0.381,1.989-0.438c0.264-1.784,0.117-8.863-0.673-10.969
		c-0.233-0.585-1.287-0.731-2.516-0.438c-1.638,0.468-2.311,0.556-3.306,0.526c0,0.877,0,1.872-0.028,2.925
		c1.491-0.264,2.398-0.468,2.954-0.644c0.526-0.146,0.994-0.088,1.287-0.029c0.965,0.176,0.906,0.878,0.059,1.053
		c-1.404,0.352-2.867,0.439-4.3,0.264c-0.029,1.053-0.088,2.135-0.146,3.159c1.579-0.264,2.486-0.438,3.13-0.585
		c0.818-0.234,1.082-0.205,1.375-0.146c0.965,0.205,0.877,0.849,0.029,1.141c-1.521,0.409-3.247,0.497-4.593,0.205
		c-0.117,1.638-0.322,3.042-0.526,3.686c-0.731,2.457-1.375,2.75-1.755,1.696c-0.234-0.644-0.322-1.375,0.058-2.281
		c0.966-2.282,1.2-5.295,1.258-8.22c0.029-1.053,0-1.755-0.087-2.165c-2.75,3.919-6.026,6.728-8.746,7.957
		c-0.907,0.38-1.083,0.029-0.088-0.702c4.124-3.101,8.015-7.605,9.828-11.847c-3.452,0.468-4.738,0.644-5.47,0.848
		c-1.463,0.41-2.019,0.205-3.042-0.38c-0.79-0.438-0.702-0.731,0.204-0.731c0.41,0,2.077-0.088,3.861-0.293
		c1.813-0.175,3.423-0.351,4.855-0.526c1.054-2.72,1.199-4.183,0.79-4.768c-0.497-0.877-0.088-1.258,1.434-0.585
		c1.491,0.644,2.019,1.17,1.375,1.755c-0.322,0.322-0.79,1.258-1.756,3.334c2.341-0.292,4.476-0.614,7.196-1.141
		c2.662-0.439,3.101-0.468,4.563,0.205C100.707,3.537,100.21,4.473,97.139,4.297z"/>
</g>
<g>
	<path d="M10.35,10.223c3.041,1.684,3.441,2.463,3.441,3.468c0,1.081-0.472,1.206-1.084,0.528c-0.755-0.83-1.722-2.086-2.522-3.317
		c-0.99,3.292-1.745,4.373-3.772,5.931c-0.707,0.553-0.919,0.251-0.33-0.377c1.674-1.784,2.735-3.945,3.419-7.313L9.498,8.418
		C7.188,9.021,6.245,9.046,5.655,8.795C5.16,8.594,5.232,8.368,5.632,8.292c1.367-0.276,3.725-0.93,4.385-1.231
		c1.509-0.653,2.476-0.854,3.348-0.678c0.542,0.1,0.613,0.478,0.212,0.729c-0.354,0.226-1.461,0.628-3.183,1.081
		c0,0,0.792,0.33,0.817,0.579C11.269,9.353,10.511,9.12,10.35,10.223z"/>
</g>
</svg>
