<?xml version="1.0" encoding="iso-8859-1"?>
<!-- Generator: Adobe Illustrator 22.1.0, SVG Export Plug-In . SVG Version: 6.00 Build 0)  -->
<svg version="1.1" id="Layer_1" xmlns="http://www.w3.org/2000/svg" xmlns:xlink="http://www.w3.org/1999/xlink" x="0px" y="0px"
	 viewBox="0 0 22 22" style="enable-background:new 0 0 22 22;" xml:space="preserve">
<g>
	<path d="M46.826,11.237c-0.067,1.883-0.135,0.775-0.112,5.347c0,2.354,0,2.488-0.247,3.385c-0.179,0.673-0.627,0.65-0.919,0.09
		c-0.403-0.784-0.426-1.211-0.157-2.466c0.202-1.031,0.493-5.581,0.471-10.603c0-1.793-0.292-3.542-0.583-4.012
		c-0.403-0.583-0.045-0.896,0.986-0.358s1.166,0.829,0.919,1.457c-0.157,0.381-0.269,5.098-0.336,6.623"/>
</g>
<path d="M46.939,10.821c1.028-0.947,1.664-1.802,1.877-2.333c0.182-0.485,0.423-0.601,1.179-0.046
	c0.727,0.555,0.605,0.739,0.243,0.855c-0.485,0.139-1.967,0.947-2.905,1.617c2.148,0.531,2.542,0.97,2.633,1.57
	c0.091,0.739-0.485,0.971-1.15,0.416c-0.999-0.831-1.635-1.34-2.723-1.94v-0.347C46.425,10.682,46.698,10.729,46.939,10.821"/>
<path d="M-7.568,3.898c-0.104,0.445-0.135,0.88-0.187,3.887c-0.052,2.72-0.183,4.054-0.393,5.257
	c-0.497,2.799-2.118,6.042-5.205,7.219c-0.471,0.156-0.549-0.079-0.157-0.419c3.034-2.851,4.106-4.891,4.394-10.147
	c0.13-2.514,0.173-4.806,0.001-5.755c-0.79,0.415-1.709,0.816-2.82,1.452c-0.621,0.359-1.129,0.221-1.562-0.58
	c-0.226-0.415-0.207-0.719,0.377-0.692c0.602,0.028,1.449-0.138,2.371-0.414c0.791-0.221,1.412-0.553,1.769-1.023
	c0.264-0.36,0.602-0.47,1.167,0.028C-7.21,3.29-7.247,3.484-7.568,3.898z"/>
<g>
	<path d="M31.381,35.949c-0.188,2-0.282,2.329-0.564,3.199c-0.235,0.729-0.659,1.06-0.871,1.06c-0.211,0-0.329-0.095-0.705-1.083
		c-0.212-0.494-0.4-0.611-0.659-0.611c-0.636,0-1.482,0.117-2.142,0.235c-0.847,0.164-1.529,0.235-2.494,0.259
		c0.094,0.8,0,1.035-0.165,1.059c-0.424,0.047-0.8-0.683-0.918-2.141c-0.141-1.671-0.541-3.036-1.153-3.718
		c-0.541-0.636-0.282-1.083,1.341-0.541c2.165-0.33,5.2-0.871,6.683-1.247c0.611-0.188,0.753-0.212,1.388,0.164
		c1.177,0.612,1.247,1.153,0.918,1.342C31.781,34.066,31.476,34.866,31.381,35.949z M29.734,29.619
		c-0.165,0.259-0.142,0.471,0.094,0.683c0.306,0.282,0.212,0.471-0.4,0.494c-0.494,0.023-2.446,0.329-4.329,0.636
		c-0.235,0.423-0.847,0.117-1.035-0.989c-0.141-0.8-0.471-1.458-0.824-1.812c-0.518-0.447-0.541-1.012,1.224-0.471
		c1.789-0.094,3.789-0.588,4.47-0.94c0.354-0.165,0.542-0.235,1.365,0.141c0.988,0.471,0.965,0.918,0.471,1.177
		C30.487,28.677,29.97,29.243,29.734,29.619z M26.275,36.325c-0.918,0.118-1.271,0.07-1.459,0c-0.471-0.165-0.353-0.447,0.118-0.518
		c0.518-0.047,0.988-0.117,1.341-0.188c-0.023-1.082-0.095-1.529-0.447-1.882c-0.894,0.141-1.859,0.306-2.541,0.423
		c0.282,1.766,0.494,3.177,0.588,4.259c0.895-0.047,1.647-0.117,2.447-0.282L26.275,36.325z M27.499,25.642
		c-1.789,0.306-2.377,0.282-3.153,0.023c-0.564-0.188-0.471-0.4,0.188-0.494c1.224-0.211,2.094-0.423,3.105-0.729
		c1.647-0.518,2.354-0.659,2.941-0.376c0.471,0.188,0.447,0.611,0.07,0.8C30.063,25.172,29.781,25.266,27.499,25.642z M28.11,28.231
		c-0.635,0.094-1.835,0.259-3.412,0.564c0.165,0.588,0.306,1.294,0.447,2.023c1.223-0.165,2.4-0.377,2.824-0.471
		c0.446-0.094,0.541-0.282,0.776-1.646C28.816,28.348,28.628,28.16,28.11,28.231z M29.146,33.243c-0.329,0-1.294,0.141-2.446,0.329
		c0.658,0.494,0.729,0.753,0.658,0.965c-0.094,0.259-0.141,0.564-0.188,0.895c0.988-0.283,1.295-0.307,1.647-0.212
		c0.659,0.164,0.706,0.353,0.353,0.494c-0.729,0.235-1.482,0.423-2.023,0.518l-0.07,1.765c1.459-0.306,1.788-0.259,2.235,0.023
		c0.376,0.259,0.471,0.235,0.611-0.636c0.095-0.635,0.307-2.47,0.307-3.341C30.229,33.408,29.852,33.219,29.146,33.243z
		 M34.98,32.889c0.048,1.601-0.094,2.589-0.282,3.06c-0.164,0.423-0.423,0.423-0.682,0.047c-0.259-0.354-0.307-0.823-0.212-2.471
		c0.047-0.823,0.094-1.6,0.023-2.354c-0.094-1.553-0.259-2.259-0.588-2.823c-0.4-0.635-0.354-0.988,0.87-0.541
		c0.847,0.306,1.105,0.659,0.895,1.247C34.863,29.407,34.887,30.231,34.98,32.889z M38.534,32.866
		c0.047,1.529,0.164,3.765,0.259,5.224c0.117,1.765-0.142,3.035-1.106,4.094c-0.423,0.447-0.729,0.589-0.988-0.117
		c-0.259-0.729-1.035-2.023-1.67-2.611c-0.589-0.518-0.307-0.683,0.353-0.4c1.6,0.706,1.788,0.611,1.859-0.188
		c0.376-4,0.234-9.93-0.024-13.247c-0.07-0.824-0.211-1.6-0.518-2.071c-0.494-0.635-0.117-0.941,0.895-0.494
		c1.482,0.612,1.576,0.824,1.271,1.835C38.393,26.301,38.369,27.714,38.534,32.866z"/>
</g>
<path d="M-9.084,10.392c-1.789,0.306-2.377,0.282-3.153,0.023c-0.564-0.188-0.471-0.4,0.188-0.494
	c1.224-0.211,2.094-0.423,3.105-0.729"/>
<g>
	<path d="M-20.691,7.923c0.09,2.336,0.09,3.379,0,5.533c0.794-0.476,1.224-0.748,2.109-1.27c0-1.655-0.137-3.244-0.318-3.652
		c-0.34-0.703-0.068-0.839,0.748-0.363c0.885,0.522,0.999,0.794,0.704,1.27c-0.113,0.181-0.135,0.43-0.113,1.111
		c0.044,2.087-0.046,3.719-0.205,4.717c-0.318,2.132-1.52,4.264-3.446,5.692c-0.342,0.249-0.545,0.023-0.137-0.363
		c0.657-0.703,2.245-3.288,2.563-5.08c0.113-0.703,0.181-1.746,0.203-2.811c-1.769,1.746-2.221,2.245-2.404,2.585
		c-0.543,0.975-0.77,0.997-1.043,0.612c-0.589-0.861-0.567-1.338-0.066-1.724c0.362-0.272,0.543-1.043,0.543-3.062
		c0-0.93-0.068-1.769-0.159-2.381c-0.066-0.522-0.34-1.27-0.567-1.678c-0.384-0.726-0.227-0.862,0.84-0.318
		c0.408,0.204,0.635,0.34,0.726,0.453c1.383-1.474,2.358-3.197,2.268-3.56c-0.227-0.772-0.022-0.93,1.178-0.409
		c1.067,0.454,1.067,0.658,0.681,0.976C-17.38,4.884-17.788,5.269-20.691,7.923z"/>
</g>
<g>
	<path d="M31.785,5.143c-1.28,0.927-2.517,1.767-3.731,2.407c0.133,0.64,0.221,1.325,0.287,2.031c1.567,0,1.987,0.132,2.142,0.685
		c0.154,0.596-0.177,0.883-0.641,0.707c-0.198-0.066-0.949-0.596-1.479-1.016c0.088,1.126,0.088,2.34-0.022,3.776
		c0.972-0.486,2.208-1.082,3.268-1.523c0.089-2.319,0-3.886-0.419-4.659c-0.31-0.53-0.045-0.729,0.729-0.331
		c0.905,0.486,1.037,0.795,0.905,1.258c-0.045,0.155-0.089,0.839-0.089,1.501c0,3.18-0.354,5.896-1.126,7.242
		c-0.972,1.656-2.009,2.782-3.599,3.577c-0.685,0.353-0.795,0.11-0.11-0.486c2.34-2.031,3.488-4.173,3.688-7.661
		c-1.921,1.214-3.6,2.605-4.019,3.157c-0.441,0.574-0.53,0.574-0.861-0.11c-0.309-0.597-0.243-0.994,0.177-1.392
		c0.485-0.485,0.729-1.037,0.685-2.229c-0.089-2.473-0.375-3.246-0.972-4.173c-0.397-0.574-0.331-0.729,0.928-0.508
		c3.333-2.495,3.907-3.621,3.819-4.128c-0.089-0.486,0.133-0.574,1.457-0.133c1.126,0.375,1.104,0.795,0.53,1.06
		C33.111,4.282,32.095,4.9,31.785,5.143z M41.523,10.266c-0.221,3.047-0.508,4.106-1.281,5.012
		c-0.463,0.508-0.772,0.464-0.971,0.089c-0.31-0.618-0.663-1.126-1.104-1.502c-0.508-0.419-0.331-0.529,0.089-0.441
		c1.104,0.265,1.324,0.265,1.567-0.53c0.375-1.125,0.662-3.599,0.574-5.276c-0.022-0.442-0.266-0.552-0.729-0.53
		c-0.53,0.022-1.325,0.155-1.767,0.265c-0.508,0.132-1.082,0.199-1.59,0.221c0.133,4.195,0.154,6.956,0.11,10.752
		c-0.022,2.208-0.133,3.312-0.31,3.931c-0.154,0.508-0.375,0.529-0.529,0.044c-0.199-0.552-0.31-2.164-0.287-4.085
		c0.022-1.7-0.022-5.166-0.133-7.926c-0.066-1.678-0.177-2.605-0.419-3.003c-0.354-0.596-0.177-0.817,1.06-0.375
		c1.391,0.066,3.312-0.442,4.04-0.928c0.508-0.309,0.751-0.331,1.524,0.155c1.191,0.75,1.236,1.038,0.816,1.457
		C41.765,7.991,41.655,8.499,41.523,10.266z M38.52,10.972c-0.287-0.088-1.259-0.839-1.546-1.148
		c-0.287-0.31-0.265-0.486,0.331-0.442c1.392,0.088,1.877,0.309,1.921,1.17C39.248,10.95,38.984,11.126,38.52,10.972z"/>
</g>
<path d="M-20.771,9.498c1.567,0,1.987,0.132,2.142,0.685c0.154,0.596-0.177,0.883-0.641,0.707c-0.198-0.066-0.949-0.596-1.479-1.016
	"/>
<path d="M-34.048,5.226c-1.28,0.927-2.517,1.767-3.731,2.407c0.133,0.64,0.221,1.325,0.287,2.031c1.567,0,1.987,0.132,2.142,0.685
	c0.154,0.596-0.177,0.883-0.641,0.707c-0.198-0.066-0.949-0.596-1.479-1.016c0.088,1.126,0.088,2.34-0.022,3.776
	c0.972-0.486,2.208-1.082,3.268-1.523c0.089-2.319,0-3.886-0.419-4.659c-0.31-0.53-0.045-0.729,0.729-0.331
	c0.905,0.486,1.037,0.795,0.905,1.258c-0.045,0.155-0.089,0.839-0.089,1.501c0,3.18-0.354,5.896-1.126,7.242
	c-0.972,1.656-2.009,2.782-3.599,3.577c-0.685,0.353-0.795,0.11-0.11-0.486c2.34-2.031,3.488-4.173,3.688-7.661
	c-1.921,1.214-3.6,2.605-4.019,3.157c-0.441,0.574-0.53,0.574-0.861-0.11c-0.309-0.597-0.243-0.994,0.177-1.392
	c0.485-0.485,0.729-1.037,0.685-2.229c-0.089-2.473-0.375-3.246-0.972-4.173c-0.397-0.574-0.331-0.729,0.928-0.508
	c3.333-2.495,3.907-3.621,3.819-4.128c-0.089-0.486,0.133-0.574,1.457-0.133c1.126,0.375,1.104,0.795,0.53,1.06
	C-32.723,4.366-33.738,4.984-34.048,5.226z"/>
<g>
	<path d="M11.387,11.153c0.437-1.287,0.85-3.083,0.971-4.249c0.073-0.801-0.048-0.825-0.485-0.704
		c-3.69,1.093-4.249,1.141-4.71,0.85C6.556,6.661,6.604,6.467,7.284,6.419c1.117-0.073,3.884-0.68,4.758-1.189
		c0.704-0.437,0.947-0.461,1.796,0.024c1.117,0.631,1.117,0.85,0.485,1.433c-0.413,0.388-0.461,0.558-0.825,1.724
		c-0.292,1.092-0.801,2.476-1.287,3.641l-0.583,1.093c-1.408,2.622-2.622,3.933-4.709,5.098c-0.655,0.389-0.85,0.073-0.194-0.485
		c1.675-1.384,2.986-2.985,4.224-5.583"/>
</g>
<path d="M10.323,11.436c-0.333-0.103-1.46-0.973-1.794-1.332C8.196,9.745,8.222,9.54,8.914,9.591
	c1.615,0.103,2.178,0.359,2.229,1.358C11.168,11.41,10.861,11.615,10.323,11.436z"/>
</svg>
