<?xml version="1.0" encoding="iso-8859-1"?>
<!-- Generator: Adobe Illustrator 22.1.0, SVG Export Plug-In . SVG Version: 6.00 Build 0)  -->
<svg version="1.1" id="Layer_1" xmlns="http://www.w3.org/2000/svg" xmlns:xlink="http://www.w3.org/1999/xlink" x="0px" y="0px"
	 viewBox="0 0 22 22" style="enable-background:new 0 0 22 22;" xml:space="preserve">
<g>
	<path d="M37.704,5.178c-0.586,0.27-1.037,0.587-3.63,3.427c0.451,0.661,0.902,1.982,1.082,2.766
		c0.271,1.175,0.406,2.937,0.316,5.018c-0.068,1.786-0.722,3.401-1.398,4.136c-0.429,0.465-0.812,0.392-1.037-0.146
		c-0.248-0.588-0.835-1.396-1.827-2.105c-0.316-0.22-0.18-0.538,0.203-0.44c2.008,0.539,2.435,0.367,2.661-1.224
		c0.225-1.493,0.225-2.301,0.045-4.259c-0.18-1.982-0.721-3.035-1.737-4.014c-0.338-0.318-0.203-0.955,1.353-0.073
		c1.015-1.64,1.421-2.276,2.255-3.598c0.225-0.367-0.023-0.563-0.609-0.417c-0.745,0.171-1.984,0.514-3.338,1.028
		c-0.767,0.293-1.286,0.269-1.647-0.049c-0.766-0.685-0.744-0.905-0.135-0.905c0.835,0,2.007-0.123,3.089-0.343
		c1.241-0.245,1.624-0.392,2.504-0.856c0.564-0.294,0.834-0.367,1.984,0.636C38.652,4.468,38.607,4.762,37.704,5.178z"/>
</g>
<g>
	<path d="M-17.717,6.008c-0.137-1.794-0.23-2.047-0.739-2.668c-0.484-0.621,0.07-0.897,0.856-0.667
		c1.778,0.552,2.034,0.874,1.755,1.494c-0.141,0.281-0.272,0.86-0.341,1.527l-0.479,5.325c-0.154,1.554-0.249,3.731-0.402,6.257
		c0.968-0.916,2.242-2.021,2.619-2.302c0.685-0.517,0.85-0.188,0.26,0.493c-1.676,1.927-3.021,3.618-3.399,4.416
		c-0.519,1.033-0.872,0.987-1.274,0.211c-0.496-0.939-0.496-1.08-0.119-1.597c0.756-1.057,0.825-3.208,1.037-7.812"/>
</g>
<g>
	<path d="M9.802,13.079c-0.47,3.515-1.782,5.891-4.331,7.846c-0.52,0.371-0.743,0.074-0.198-0.52
		c1.856-2.029,3.044-4.579,3.416-8.984c0.272-3.292-0.025-5.742-0.42-6.583C7.871,4.02,8.168,3.798,9.678,4.392
		c1.089-0.173,1.98-0.446,2.574-0.891c0.495-0.371,0.916-0.371,1.757,0.173c1.064,0.693,1.188,0.916,0.717,1.312
		c-0.371,0.372-0.52,1.064-0.569,2.426c-0.074,2.079-0.025,8.093,0.025,9.083c0.074,1.461-0.52,2.822-0.99,3.515
		c-0.52,0.743-0.816,0.792-1.089,0.124c-0.322-0.693-0.965-1.608-1.411-2.055c-0.446-0.445-0.322-0.594,0.248-0.445
		c1.411,0.396,1.658,0.297,1.732-0.445c0.223-2.252,0.347-10.395,0.223-12.078c-0.025-0.47-0.322-0.619-0.718-0.544
		C11.212,4.788,10.619,4.912,10,4.937c0.024,1.361,0.049,2.648,0.024,3.762 M10.024,9.342c0,1.164-0.074,2.178-0.148,2.995"/>
</g>
<path d="M11.602,12.554c-0.271-0.271-0.96-1.323-1.354-2.08c-0.296-0.593-0.074-0.837,0.468-0.648
	c1.551,0.459,1.896,1.025,2.019,2.052C12.858,12.905,12.218,13.283,11.602,12.554z"/>
</svg>
