<?xml version="1.0" encoding="iso-8859-1"?>
<!-- Generator: Adobe Illustrator 22.1.0, SVG Export Plug-In . SVG Version: 6.00 Build 0)  -->
<svg version="1.1" id="Layer_1" xmlns="http://www.w3.org/2000/svg" xmlns:xlink="http://www.w3.org/1999/xlink" x="0px" y="0px"
	 viewBox="0 0 22 22" style="enable-background:new 0 0 22 22;" xml:space="preserve">
<g>
	<path d="M11.292,11.047c0.538-0.923,0.895-1.585,1.071-1.988c0.176-0.402,0.273-0.741,0.292-1.016
		c0.018-0.393,0.153-0.589,0.403-0.589s0.552,0.206,0.904,0.619c0.352,0.413,0.528,0.747,0.528,1.001
		c0,0.255-0.158,0.53-0.473,0.825c-0.631,0.609-2.198,2.592-4.702,5.95c2.318-0.785,3.584-1.179,3.797-1.179
		c0.213,0,0.394,0.045,0.542,0.133c0.148,0.089,0.223,0.212,0.223,0.368c0,0.157-0.121,0.275-0.362,0.354
		c-3.246,1.159-5.128,1.964-5.647,2.416c-0.223,0.196-0.417,0.294-0.584,0.294s-0.338-0.191-0.515-0.574s-0.264-0.717-0.264-1.002
		c0-0.284,0.139-0.476,0.417-0.574c0.76-0.274,1.46-0.8,2.1-1.576c0.64-0.775,1.256-1.683,1.85-2.724"/>
</g>
<path d="M12.537,5.41C10.982,7.23,9.793,8.051,7.974,9C7.525,9.237,7.34,8.947,7.815,8.577c1.45-1.081,2.533-2.271,3.324-3.272
	c0.872-1.16,1.24-1.873,1.268-2.428c0.026-0.58,0.421-0.844,1.055-0.053c0.713,0.871,0.529,1.213,0.185,1.479
	C13.276,4.54,13.04,4.777,12.537,5.41z"/>
</svg>
