<?xml version="1.0" encoding="iso-8859-1"?>
<!-- Generator: Adobe Illustrator 22.1.0, SVG Export Plug-In . SVG Version: 6.00 Build 0)  -->
<svg version="1.1" id="Layer_1" xmlns="http://www.w3.org/2000/svg" xmlns:xlink="http://www.w3.org/1999/xlink" x="0px" y="0px"
	 viewBox="0 0 22 22" style="enable-background:new 0 0 22 22;" xml:space="preserve">
<g>
	<path d="M-16.606,9.843c-1.829,2.286-3.345,3.393-4.62,3.923c-0.578,0.24-0.674,0.096-0.168-0.386
		c1.612-1.516,3.609-3.706,4.812-5.823c1.468-2.526,1.685-3.272,1.54-4.042c-0.12-0.65,0.217-0.891,1.155-0.096
		c1.035,0.842,1.107,1.444,0.674,1.877c-0.385,0.385-0.674,0.746-1.179,1.54c-0.554,0.842-1.083,1.588-1.612,2.262"/>
</g>
<path d="M-14.917,7.167c-0.649,0.529-0.736,4.106-1.025,8.919c0.987-0.938,2.286-2.07,2.671-2.358
	c0.698-0.529,0.867-0.192,0.266,0.505c-1.709,1.974-3.08,3.706-3.466,4.524c-0.529,1.059-0.89,1.011-1.299,0.216
	c-0.506-0.962-0.506-1.106-0.121-1.636c0.771-1.083,0.841-3.286,1.058-8.003"/>
<g>
	<path d="M-7.964,10.891C-7.04,5.253-7.04,3.552-7.526,2.216c-0.17-0.389,0.123-0.607,0.681-0.292
		c0.56,0.219,0.997,0.487,1.409,0.875c0.269,0.242,0.293,0.461,0.026,0.996c-0.123,0.219-0.34,1.068-1.605,6.852l-0.17,0.778
		c-0.17,0.826-0.364,1.798-0.582,2.77c-0.073,0.438-0.049,0.51,0.194,0.632c0.485,0.267,0.948,0.559,1.361,0.851l0.849,0.656
		c0.997,0.899,1.628,1.822,1.581,2.503c-0.049,0.778-0.56,0.971-0.973,0.316c-0.315-0.462-0.801-1.118-1.359-1.749l-0.657-0.778
		c-0.414-0.487-0.924-0.996-1.264-1.288c-0.534-0.437-0.607-0.632-0.437-1.41c0.123-0.801,0.267-1.53,0.39-2.211"/>
</g>
<g>
	<path d="M33.562,11.361c-0.34,0.453-0.34,0.623,0.255,1.133c2.891,2.466,3.487,3.911,3.344,5.81
		c-0.171,1.841-1.133,1.956-1.472,0.312c-0.455-2.296-1.531-4.534-2.722-5.639c-0.907-0.821-0.907-0.992-0.17-1.899
		c1.36-1.643,3.117-6.262,2.806-7.736c-0.228-1.049-0.058-1.276,1.218-0.681c1.472,0.708,1.359,1.049,0.452,2.749
		C35.857,8.074,34.837,9.802,33.562,11.361z"/>
</g>
<g>
	<path d="M-32.057,6.008c-0.137-1.794-0.23-2.047-0.739-2.668c-0.484-0.621,0.07-0.897,0.856-0.667
		c1.778,0.552,2.034,0.874,1.755,1.494c-0.141,0.281-0.272,0.86-0.341,1.527l-0.479,5.325c-0.154,1.554-0.249,3.731-0.402,6.257
		c0.968-0.916,2.242-2.021,2.619-2.302c0.685-0.517,0.85-0.188,0.26,0.493c-1.676,1.927-3.021,3.618-3.399,4.416
		c-0.519,1.033-0.872,0.987-1.274,0.211c-0.496-0.939-0.496-1.08-0.119-1.597c0.756-1.057,0.825-3.208,1.037-7.812"/>
</g>
<path d="M-33.331,10.651c-0.346-0.106-1.517-1.011-1.863-1.383c-0.346-0.373-0.319-0.585,0.399-0.532
	c1.677,0.106,2.262,0.372,2.314,1.41C-32.453,10.625-32.772,10.837-33.331,10.651z"/>
<g>
	<path d="M9.802,13.079c-0.47,3.515-1.782,5.891-4.331,7.846c-0.52,0.371-0.743,0.074-0.198-0.52
		c1.856-2.029,3.044-4.579,3.416-8.984c0.272-3.292-0.025-5.742-0.42-6.583C7.871,4.02,8.168,3.798,9.678,4.392
		c1.089-0.173,1.98-0.446,2.574-0.891c0.495-0.371,0.916-0.371,1.757,0.173c1.064,0.693,1.188,0.916,0.717,1.312
		c-0.371,0.372-0.52,1.064-0.569,2.426c-0.074,2.079-0.025,8.093,0.025,9.083c0.074,1.461-0.52,2.822-0.99,3.515
		c-0.52,0.743-0.816,0.792-1.089,0.124c-0.322-0.693-0.965-1.608-1.411-2.055c-0.446-0.445-0.322-0.594,0.248-0.445
		c1.411,0.396,1.658,0.297,1.732-0.445c0.223-2.252,0.347-10.395,0.223-12.078c-0.025-0.47-0.322-0.619-0.718-0.544
		C11.212,4.788,10.619,4.912,10,4.937c0.024,1.361,0.049,2.648,0.024,3.762 M10.024,9.342c0,1.164-0.074,2.178-0.148,2.995"/>
</g>
</svg>
