<?xml version="1.0" encoding="utf-8"?>
<!-- Generator: Adobe Illustrator 22.1.0, SVG Export Plug-In . SVG Version: 6.00 Build 0)  -->
<svg version="1.1" id="Layer_1" xmlns="http://www.w3.org/2000/svg" xmlns:xlink="http://www.w3.org/1999/xlink" x="0px" y="0px"
	 viewBox="0 0 22 22" style="enable-background:new 0 0 22 22;" xml:space="preserve">
<g>
	<path d="M9.7,18c-1.1,0.1-1.9,0.1-2.4-0.2C7,19.5,6.7,19.8,6.2,19c-0.5-0.8-0.6-1.5-0.5-2.1c0.1-0.5,0.2-2.1,0.3-4.6
		c0-2.5-0.2-4.1-0.6-4.9C5,6.8,5,6.5,5.5,6.6C6,6.7,6.4,6.8,6.7,6.9C7.1,7.1,7.9,7,9.1,6.8c1.2-0.2,2.1-0.5,2.7-0.9
		c0.6-0.3,1.2-0.4,1.8-0.2C14.2,6,14.6,6.2,15,6.5c0.3,0.3,0.4,0.6,0.1,1.1c-0.3,0.4-0.5,1-0.5,1.8v2.8c0,1.2,0.1,2.3,0.3,3.5
		c0.2,1.2,0,2.4-0.4,3.7c-0.4,1.3-0.8,1.5-1.2,0.6c-0.3-0.9-0.6-1.6-0.7-2.2C11.8,17.9,10.8,17.9,9.7,18z M7.3,17.1
		c1.3-0.1,2.4-0.3,3.1-0.5c0.7-0.2,1.5-0.1,2.5,0.4c0.2,0.3,0.3-0.5,0.2-2.4C13,12.8,13,11.1,13,9.7s-0.2-2.2-0.5-2.4
		c-0.3-0.2-0.9-0.2-1.7-0.1c-0.8,0.1-2,0.3-3.6,0.5v4.5c0.7-0.2,1.4-0.4,2.3-0.7c0.8-0.2,1.5-0.2,2.1,0.2c0.5,0.4,0.3,0.7-0.9,0.9
		c-1.1,0.2-2.2,0.4-3.4,0.5C7.3,13.2,7.3,17.1,7.3,17.1z"/>
</g>
</svg>
