<?xml version="1.0" encoding="utf-8"?>
<!-- Generator: Adobe Illustrator 22.1.0, SVG Export Plug-In . SVG Version: 6.00 Build 0)  -->
<svg version="1.1" id="Layer_1" xmlns="http://www.w3.org/2000/svg" xmlns:xlink="http://www.w3.org/1999/xlink" x="0px" y="0px"
	 viewBox="0 0 22 22" style="enable-background:new 0 0 22 22;" xml:space="preserve">
<g>
	<path d="M10.6,6.6c1.5-0.3,2.7-0.6,3.5-0.8c0.8-0.3,1.5-0.3,2-0.1c0.5,0.2,0.6,0.5,0.4,0.7c-0.3,0.3-0.7,0.5-1.3,0.6
		c-0.6,0.1-2.3,0.4-5.1,0.9c-0.7,2.3-1.6,4.3-2.6,6.2c-1,1.8-2.1,3.2-3.2,4.1c-1.1,0.9-2,1.5-2.5,1.7s-0.3-0.1,0.6-1
		c1-0.9,2-2.2,3.1-3.9c1.1-1.7,2.2-4,3.2-6.9C6.6,8.2,5.4,8.2,5,7.9C4.6,7.7,4.8,7.6,5.6,7.5C6.3,7.3,7.5,7.2,9.1,7 M13.2,15.5
		c1.2,0.7,2.1,1.5,2.8,2.3c0.7,0.8,1,1.6,0.9,2.5c-0.1,0.8-0.3,1.1-0.8,0.8c-0.4-0.3-1.1-1.2-2.1-2.6c-2,0.5-3.4,0.9-4.3,1.2
		c-0.9,0.3-1.6,0.6-2.1,1c-0.6,0.4-0.9,0.4-1.2,0.2c-0.2-0.2-0.4-0.6-0.5-1C5.7,19.4,6,19,6.7,18.7c0.7-0.3,1.6-1.5,2.7-3.5
		S11,12,11,11.4c-0.1-0.6,0.1-0.8,0.5-0.6c0.4,0.1,0.8,0.4,1.3,0.7c0.5,0.3,0.6,0.6,0.2,0.8c-0.3,0.2-1,1-1.9,2.4
		c-1,1.4-1.7,2.4-2.1,3c-0.4,0.6-0.3,0.8,0.6,0.7c0.8-0.1,2.2-0.3,4.1-0.6C12.1,15.6,12,14.8,13.2,15.5z"/>
</g>
</svg>
