<?xml version="1.0" encoding="utf-8"?>
<!-- Generator: Adobe Illustrator 22.1.0, SVG Export Plug-In . SVG Version: 6.00 Build 0)  -->
<svg version="1.1" id="Layer_1" xmlns="http://www.w3.org/2000/svg" xmlns:xlink="http://www.w3.org/1999/xlink" x="0px" y="0px"
	 viewBox="0 0 22 22" style="enable-background:new 0 0 22 22;" xml:space="preserve">
<g>
	<path d="M17,20.3c-1,0.1-2.4,0.1-3.1,0.1c-1.4,0-1.8-0.2-2.6-1.3c-0.5-0.8-1.3-2-2.1-3.4c-1.6,2.2-4.1,3.8-5.5,4.1
		c-1.1,0.2-1.1-0.1-0.4-0.4c1.9-1,4-2.8,5.2-4.9C8,13.6,7.5,12.8,7.1,12c-0.7-1.3-1.4-2-1.8-2.2C4.7,9.4,4.8,8.9,5.5,9
		c0.9,0.1,1.5,0.5,1.9,1.4c0.2,0.4,0.8,1.5,1.7,2.8c0.8-1.8,1.2-3.7,1.4-5.7c0-0.6,0-0.6-0.7-0.5C9,7.3,8.4,7.4,7.9,7.6
		c-0.7,0.2-1.3,0.2-1.8,0C5.6,7.3,5.6,7.1,6.4,6.9c1.2-0.2,3.1-0.8,3.8-1.5C10.7,5,11,5,12.2,5.6c1.2,0.6,1.3,1.1,0.7,1.6
		c-0.5,0.4-0.9,1.2-1.2,2.4c-0.4,1.8-1,3.6-1.7,4.9c2.1,2.9,3.1,3.8,7.1,5.1C17.6,19.9,17.6,20.3,17,20.3z"/>
</g>
</svg>
