<?xml version="1.0" encoding="iso-8859-1"?>
<!-- Generator: Adobe Illustrator 22.1.0, SVG Export Plug-In . SVG Version: 6.00 Build 0)  -->
<svg version="1.1" id="Layer_1" xmlns="http://www.w3.org/2000/svg" xmlns:xlink="http://www.w3.org/1999/xlink" x="0px" y="0px"
	 viewBox="0 0 22 22" style="enable-background:new 0 0 22 22;" xml:space="preserve">
<g>
	<path d="M14.67,13.164c-0.367,0.574-0.681,1.22-0.969,1.985c-0.236,0.623-0.262,0.91,0.235,1.221
		c0.341,0.191,0.367,0.359-0.078,0.455c-0.786,0.191-2.566,0.479-3.875,0.598c0,0.909-0.183,1.699-0.498,1.699
		c-0.183,0-0.419-0.336-0.471-1.244c-0.131-2.034-0.288-3.47-0.655-4.786c-1.23,3.11-2.54,4.977-3.823,6.005
		c-0.786,0.599-0.943,0.312-0.393-0.312c1.204-1.363,2.514-3.708,3.247-6.125c0.89-3.062,0.943-5.862,0.628-6.843
		C7.757,5.005,7.94,4.646,9.59,5.627c1.519-0.191,2.828-0.526,3.404-0.981c0.445-0.335,0.733-0.383,1.754,0.12
		c1.178,0.574,1.205,0.742,0.419,1.22c-0.393,0.239-0.838,0.909-1.152,1.507c-0.393,0.742-0.393,0.837,0.026,1.125
		c0.498,0.335,0.367,0.502,0,0.598c-0.55,0.144-1.964,0.407-2.775,0.526c-0.759,0.12-1.283,0.096-1.964,0
		c-0.157,0.885-0.367,1.818-0.733,2.775l0.786,0.407c1.205-0.096,2.147-0.287,2.933-0.742c0.471-0.263,0.628-0.263,1.571,0.096
		c0.393,0.144,0.654,0.311,0.785,0.431 M12.418,5.723C11.632,5.866,10.664,6.01,9.59,6.177c-0.026,1.077-0.079,2.082-0.236,3.11
		c1.178-0.048,2.645-0.335,3.011-0.598c0.393-0.335,0.655-1.388,0.733-2.56C13.125,5.723,12.994,5.627,12.418,5.723z M12.13,13.068
		c-0.628,0.072-1.571,0.239-2.461,0.383c0.131,1.028,0.183,2.177,0.262,3.325c0.759-0.071,1.519-0.191,1.911-0.358
		c0.681-0.287,0.76-0.383,0.917-1.794C12.942,13.092,12.706,12.996,12.13,13.068z"/>
</g>
</svg>
