<?xml version="1.0" encoding="iso-8859-1"?>
<!-- Generator: Adobe Illustrator 22.1.0, SVG Export Plug-In . SVG Version: 6.00 Build 0)  -->
<svg version="1.1" id="Layer_1" xmlns="http://www.w3.org/2000/svg" xmlns:xlink="http://www.w3.org/1999/xlink" x="0px" y="0px"
	 viewBox="0 0 22 22" style="enable-background:new 0 0 22 22;" xml:space="preserve">
<g>
	<path d="M41.935,14.279c-0.165-0.276-0.377-0.703-0.637-1.181c-3.088,1.734-3.984,2.362-4.762,3.142
		c-0.448,0.452-0.59,0.377-0.99-0.428c-0.377-0.754-0.307-1.156,0.07-1.307c0.59-0.251,0.99-0.729,1.91-2.915
		c0.565-1.307,0.777-2.136,0.73-2.739c-2.311,0.603-3.253,0.628-3.843,0.377c-0.495-0.201-0.424-0.427-0.023-0.503
		c1.367-0.276,3.725-0.93,4.385-1.231c1.509-0.653,2.476-0.854,3.348-0.678c0.542,0.1,0.613,0.478,0.212,0.729
		c-0.354,0.226-1.461,0.628-3.183,1.081c0.755,0.754,0.778,1.031,0.378,1.483c-0.448,0.528-0.92,1.256-2.192,3.518
		c-0.213,0.377-0.071,0.553,0.282,0.428c0.637-0.227,2.452-0.955,3.442-1.433c-0.236-0.527-0.448-1.056-0.613-1.407
		c-0.165-0.377-0.023-0.528,0.448-0.227c1.485,0.955,2.074,1.96,2.098,3.066C43.02,15.009,42.43,15.159,41.935,14.279z
		 M39.294,4.906c-1.249,0.176-1.909,0.05-2.286-0.125c-0.378-0.176-0.354-0.377,0-0.503c0.565-0.201,1.909-0.628,2.239-0.754
		c1.014-0.452,1.839-0.452,2.239-0.301c0.472,0.176,0.59,0.578,0.189,0.829C41.274,4.303,39.812,4.831,39.294,4.906z M51.506,8.248
		c-0.259,1.081-0.471,1.608-0.73,1.91c-0.26,0.327-0.472,0.352-0.66,0.201c-0.448-0.377-1.061-0.327-2.994,0.201
		c-1.132,4.222-3.301,7.464-7.025,9.123c-0.4,0.176-0.519-0.101-0.094-0.427c2.828-1.96,5.162-5.253,6.152-8.419
		c-0.424,0.101-0.872,0.201-1.367,0.276c0,0.427-0.094,0.478-0.283,0.502c-0.117,0.025-0.424-0.402-0.542-1.005
		c-0.637-3.317-0.73-3.77-1.202-4.448c-0.495-0.653-0.472-0.93,0.684-0.653c0.4-0.05,0.778-0.125,1.132-0.201
		c1.65-2.488,2.004-3.845,1.792-4.473c-0.213-0.628,0.117-0.955,1.32-0.427c1.272,0.553,1.391,0.804,0.73,1.282
		c-0.425,0.302-1.297,1.256-3.159,3.468c2.099-0.478,4.008-1.156,4.573-1.408c0.472-0.226,0.66-0.226,1.722,0.176
		c1.391,0.578,1.579,0.829,1.084,1.482C52.214,5.986,51.836,6.891,51.506,8.248z M46.579,5.408
		c-0.754,0.176-1.697,0.352-2.594,0.478c0.213,1.156,0.448,2.488,0.755,4.674c0.542-0.1,1.085-0.226,1.579-0.352
		c0.142-0.628,0.26-1.332,0.354-2.036c-0.708,0.151-1.203,0.125-1.462,0.05c-0.378-0.125-0.307-0.352,0.07-0.427
		s1.037-0.276,1.462-0.427C46.839,6.539,46.791,5.911,46.579,5.408z M55.137,19.432c-0.919,0.478-3.89,1.181-5.823,0.679
		c-1.626-0.428-2.286-1.433-2.381-3.016c-0.047-0.83,0.023-1.784,0.165-2.891c0.118-0.879,0.212-1.784,0.188-2.161
		c-0.047-1.156,0.071-1.307,0.59-1.03c0.589,0.302,0.637,0.528,0.307,1.407c-0.236,0.653-0.59,2.664-0.52,4.423
		c0.048,1.308,0.708,1.76,1.934,1.91c1.32,0.151,2.758-0.05,3.843-0.503c1.344-0.577,1.532-1.03,1.886-2.764
		c0.236-1.081,0.425-0.98,0.566,0c0.094,0.754,0.235,1.307,0.447,1.985C56.622,18.326,56.245,18.879,55.137,19.432z M49.809,4.629
		c-0.519,0.075-1.202,0.251-2.664,0.653c0.802,0.302,0.825,0.427,0.613,1.684c0.967-0.402,1.226-0.427,1.556-0.352
		c0.401,0.151,0.543,0.502,0.188,0.653c-0.377,0.151-0.989,0.352-1.886,0.653c-0.118,0.779-0.235,1.533-0.33,1.985
		c1.179-0.301,2.264-0.452,2.429-0.377c0.259,0.126,0.424,0.05,0.565-0.578c0.118-0.527,0.235-1.784,0.307-2.664
		C50.729,4.73,50.492,4.529,49.809,4.629z M52.402,15.386c-0.071-0.176-0.188-0.377-0.283-0.604
		c-1.084,0.428-2.239,1.105-2.711,1.559c-0.495,0.478-0.684,0.502-0.943-0.101c-0.165-0.428-0.165-0.704,0-0.88
		c0.825-0.829,1.604-3.317,1.58-3.82c-0.048-0.653,0.047-0.653,0.754-0.402c0.59,0.201,0.707,0.578,0.377,0.98
		c-0.542,0.604-1.154,1.608-1.484,2.362c-0.165,0.377-0.048,0.578,0.259,0.478c0.637-0.201,1.391-0.452,1.957-0.679
		c-0.542-1.181-0.472-1.281,0.117-1.005c0.873,0.402,1.368,1.257,1.297,2.036C53.228,16.164,52.826,16.315,52.402,15.386z"/>
</g>
<g>
	<path d="M-23.899,14.279c-0.165-0.276-0.377-0.703-0.637-1.181c-3.088,1.734-3.984,2.362-4.762,3.142
		c-0.448,0.452-0.59,0.377-0.99-0.428c-0.377-0.754-0.307-1.156,0.07-1.307c0.59-0.251,0.99-0.729,1.91-2.915
		c0.565-1.307,0.777-2.136,0.73-2.739c-2.311,0.603-3.253,0.628-3.843,0.377c-0.495-0.201-0.424-0.427-0.023-0.503
		c1.367-0.276,3.725-0.93,4.385-1.231c1.509-0.653,2.476-0.854,3.348-0.678c0.542,0.1,0.613,0.478,0.212,0.729
		c-0.354,0.226-1.461,0.628-3.183,1.081c0.755,0.754,0.778,1.031,0.378,1.483c-0.448,0.528-0.92,1.256-2.192,3.518
		c-0.213,0.377-0.071,0.553,0.282,0.428c0.637-0.227,2.452-0.955,3.442-1.433c-0.236-0.527-0.448-1.056-0.613-1.407
		c-0.165-0.377-0.023-0.528,0.448-0.227c1.485,0.955,2.074,1.96,2.098,3.066C-22.814,15.009-23.404,15.159-23.899,14.279z
		 M-26.539,4.906c-1.249,0.176-1.909,0.05-2.286-0.125c-0.378-0.176-0.354-0.377,0-0.503c0.565-0.201,1.909-0.628,2.239-0.754
		c1.014-0.452,1.839-0.452,2.239-0.301c0.472,0.176,0.59,0.578,0.189,0.829C-24.559,4.303-26.021,4.831-26.539,4.906z
		 M-14.327,8.248c-0.259,1.081-0.471,1.608-0.73,1.91c-0.26,0.327-0.472,0.352-0.66,0.201c-0.448-0.377-1.061-0.327-2.994,0.201
		c-1.132,4.222-3.301,7.464-7.025,9.123c-0.4,0.176-0.519-0.101-0.094-0.427c2.828-1.96,5.162-5.253,6.152-8.419
		c-0.424,0.101-0.872,0.201-1.367,0.276c0,0.427-0.094,0.478-0.283,0.502c-0.117,0.025-0.424-0.402-0.542-1.005
		c-0.637-3.317-0.73-3.77-1.202-4.448c-0.495-0.653-0.472-0.93,0.684-0.653c0.4-0.05,0.778-0.125,1.132-0.201
		c1.65-2.488,2.004-3.845,1.792-4.473c-0.213-0.628,0.117-0.955,1.32-0.427c1.272,0.553,1.391,0.804,0.73,1.282
		c-0.425,0.302-1.297,1.256-3.159,3.468c2.099-0.478,4.008-1.156,4.573-1.408c0.472-0.226,0.66-0.226,1.722,0.176
		c1.391,0.578,1.579,0.829,1.084,1.482C-13.619,5.986-13.997,6.891-14.327,8.248z M-19.254,5.408
		c-0.754,0.176-1.697,0.352-2.594,0.478c0.213,1.156,0.448,2.488,0.755,4.674c0.542-0.1,1.085-0.226,1.579-0.352
		c0.142-0.628,0.26-1.332,0.354-2.036c-0.708,0.151-1.203,0.125-1.462,0.05c-0.378-0.125-0.307-0.352,0.07-0.427
		s1.037-0.276,1.462-0.427C-18.994,6.539-19.042,5.911-19.254,5.408z M-10.697,19.432c-0.919,0.478-3.89,1.181-5.823,0.679
		c-1.626-0.428-2.286-1.433-2.381-3.016c-0.047-0.83,0.023-1.784,0.165-2.891c0.118-0.879,0.212-1.784,0.188-2.161
		c-0.047-1.156,0.071-1.307,0.59-1.03c0.589,0.302,0.637,0.528,0.307,1.407c-0.236,0.653-0.59,2.664-0.52,4.423
		c0.048,1.308,0.708,1.76,1.934,1.91c1.32,0.151,2.758-0.05,3.843-0.503c1.344-0.577,1.532-1.03,1.886-2.764
		c0.236-1.081,0.425-0.98,0.566,0c0.094,0.754,0.235,1.307,0.447,1.985C-9.211,18.326-9.588,18.879-10.697,19.432z M-16.025,4.629
		c-0.519,0.075-1.202,0.251-2.664,0.653c0.802,0.302,0.825,0.427,0.613,1.684c0.967-0.402,1.226-0.427,1.556-0.352
		c0.401,0.151,0.543,0.502,0.188,0.653c-0.377,0.151-0.989,0.352-1.886,0.653c-0.118,0.779-0.235,1.533-0.33,1.985
		c1.179-0.301,2.264-0.452,2.429-0.377c0.259,0.126,0.424,0.05,0.565-0.578c0.118-0.527,0.235-1.784,0.307-2.664
		C-15.105,4.73-15.341,4.529-16.025,4.629z M-13.431,15.386c-0.071-0.176-0.188-0.377-0.283-0.604
		c-1.084,0.428-2.239,1.105-2.711,1.559c-0.495,0.478-0.684,0.502-0.943-0.101c-0.165-0.428-0.165-0.704,0-0.88
		c0.825-0.829,1.604-3.317,1.58-3.82c-0.048-0.653,0.047-0.653,0.754-0.402c0.59,0.201,0.707,0.578,0.377,0.98
		c-0.542,0.604-1.154,1.608-1.484,2.362c-0.165,0.377-0.048,0.578,0.259,0.478c0.637-0.201,1.391-0.452,1.957-0.679
		c-0.542-1.181-0.472-1.281,0.117-1.005c0.873,0.402,1.368,1.257,1.297,2.036C-12.606,16.164-13.007,16.315-13.431,15.386z"/>
</g>
<text transform="matrix(0.9382 0 0 1 58.333 20.1855)" style="font-family:'AdobeKaitiStd-Regular-GBpc-EUC-H'; font-size:25.1241px;">&#x89C4;&#x5B9A;</text>
<g>
	<path d="M10.35,12.057c3.041,1.684,3.441,2.463,3.441,3.468c0,1.081-0.472,1.206-1.084,0.528c-0.755-0.83-1.722-2.086-2.522-3.317
		c-0.99,3.292-1.745,4.373-3.772,5.931c-0.707,0.553-0.919,0.251-0.33-0.377c1.674-1.784,2.735-3.945,3.419-7.313l-0.003-0.725
		c-2.311,0.603-3.253,0.628-3.843,0.377c-0.495-0.201-0.424-0.427-0.023-0.503c1.367-0.276,3.725-0.93,4.385-1.231
		c1.509-0.653,2.476-0.854,3.348-0.678c0.542,0.1,0.613,0.478,0.212,0.729c-0.354,0.226-1.461,0.628-3.183,1.081
		c0,0,0.792,0.33,0.817,0.579C11.269,11.187,10.511,10.953,10.35,12.057z"/>
</g>
<path d="M10.535,6.305C9.286,6.481,8.626,6.356,8.249,6.18c-0.378-0.176-0.354-0.377,0-0.503c0.565-0.201,1.909-0.628,2.239-0.754
	c1.014-0.452,1.839-0.452,2.239-0.301c0.472,0.176,0.59,0.578,0.189,0.829C12.516,5.702,11.054,6.23,10.535,6.305z"/>
<text transform="matrix(1 0 0 1 12.7497 35.9163)" style="font-family:'JCkg'; font-size:12px;">&#xCC60;</text>
</svg>
