<?xml version="1.0" encoding="utf-8"?>
<!-- Generator: Adobe Illustrator 22.1.0, SVG Export Plug-In . SVG Version: 6.00 Build 0)  -->
<svg version="1.1" id="Layer_1" xmlns="http://www.w3.org/2000/svg" xmlns:xlink="http://www.w3.org/1999/xlink" x="0px" y="0px"
	 viewBox="0 0 22 22" style="enable-background:new 0 0 22 22;" xml:space="preserve">
<path d="M-22,19c-0.5-1-0.6-2.1-0.2-3.4c0.3-1.3,0.5-3.2,0.4-5.7c0-2.5-0.1-4.2-0.3-5.1c-0.1-0.9-0.4-1.6-0.7-2.2
	C-23,2-22.9,1.8-22.4,2c0.6,0.2,1.1,0.3,1.5,0.3c0.4,0,1.2,0,2.2-0.2c1-0.2,2-0.4,3.1-0.6c1-0.3,1.8-0.6,2.2-0.9
	c0.4-0.3,1-0.4,1.8-0.1c0.7,0.3,1.4,0.7,1.9,1.1c0.5,0.4,0.5,1,0.1,1.9c-0.5,0.8-0.7,2.9-0.6,6.2c0.1,3.3,0.1,5.7,0.2,7.2
	c0,1.5-0.2,2.8-0.8,3.9c-0.6,1.1-1,1.1-1.3-0.2c-0.3-1.2-0.5-2.1-0.7-2.5c-0.2-0.4-0.6-0.7-1.2-0.7c-0.6,0-1.7,0.1-3.2,0.3
	c-1.5,0.2-2.7,0.3-3.4,0.2C-21.1,19.6-21.5,20-22,19z M-20.7,17.1c1.9-0.1,3.4-0.3,4.6-0.8c1.2-0.4,2.1-0.4,2.5,0.2
	c0.4,0.6,0.8,0.8,1.2,0.7c0.3-0.1,0.5-1.7,0.5-4.8s0-5.5-0.1-7.3c-0.1-1.8-0.4-2.8-0.9-2.9c-0.6-0.2-3.1,0.3-7.8,1.3
	c0.2,2,0.3,4.1,0.3,6.2c0.8,0,1.8-0.3,3-0.8c1.2-0.5,2.2-0.5,3,0c0.8,0.5,0.2,1-1.8,1.3c-2,0.4-3.4,0.4-4.2,0.1
	C-20.6,12.6-20.7,14.8-20.7,17.1z"/>
<path d="M-30.6,10.3c-0.5-1.1-1.1-1.8-1.6-2c-0.5-0.3-0.6-0.5-0.4-0.5c0.2-0.1,0.6,0,1.2,0.1c0.7-1,1.1-2,1.4-2.9
	c0.3-0.9,0.3-1.4,0-1.3c-0.2,0-0.7,0.2-1.5,0.6c-0.7,0.4-1.3,0.7-1.8,1c-0.5,0.3-1,0.2-1.7-0.5c-0.7-0.6-0.7-0.9,0.1-0.8
	c0.8,0.1,1.6,0,2.6-0.3c1-0.3,1.7-0.6,2.1-1c0.4-0.3,0.8-0.4,1.3-0.1c0.5,0.3,0.9,0.6,1.3,1c0.4,0.4,0.3,0.7-0.4,1.1
	C-28.5,5-29.6,6.1-31.1,8c0.8,0.5,1.3,1,1.5,1.5l0.3,0.9c0.2,1.3,0.3,3,0.2,5c-0.1,2-0.5,3.4-1.2,4.2c-0.7,0.8-1.2,0.8-1.4,0.2
	c-0.2-0.6-0.7-1.2-1.4-1.6c-0.7-0.4-0.7-0.6,0-0.5c0.7,0.1,1.2,0.1,1.6,0.1c0.5,0,0.8-0.6,1-1.9c0.2-1.3,0.2-2.8,0-4.7"/>
<g>
	<path d="M44.2,13.5c-0.6,0.6-1.5,1.3-2.8,2.1c-1.3,0.8-2,1.4-2.3,1.7c-0.2,0.3-0.7,0.2-1.3-0.5c-0.6-0.6-0.6-0.9-0.2-0.9
		c0.6,0,1.3-0.2,2.2-0.7c0.9-0.5,2-1,3.3-1.6C44.5,12.9,44.8,12.9,44.2,13.5z M39.4,11.8c-0.4-0.4-0.2-0.6,0.4-0.6
		c0.6,0,1.1,0.2,1.6,0.4c0.5,0.2,0.7,0.7,0.5,1.3c-0.1,0.6-0.5,0.7-1.2,0.3C40.2,12.7,39.8,12.2,39.4,11.8z M46.6,4
		c0.8,0.6,0.7,1-0.3,1.1c-1,0.1-2.2,0.4-3.6,0.8c-0.3,1-0.5,1.8-0.6,2.3c-0.1,0.6,0.1,0.8,0.8,0.6c0.7-0.1,1.2-0.4,1.6-0.6
		c0.4-0.3,0.8-0.3,1.1-0.2c0.3,0.1,0.7,0.4,1.1,0.6c0.4,0.3,0.4,0.6,0.2,0.8c-0.3,0.3-0.4,1.3-0.3,3.1c0.1,1.8,0,3.3-0.2,4.6
		c-0.2,1.3-0.7,2.3-1.5,2.9c-0.8,0.6-1.2,0.7-1.4,0.2c-0.1-0.5-0.6-1.1-1.4-1.7c-0.8-0.6-0.8-0.9,0-0.7c0.8,0.2,1.4,0.3,1.8,0.3
		c0.4,0,0.8-0.4,1-1.3c0.2-0.9,0.4-1.9,0.4-3.2c0-1.2,0-2.3-0.1-3.1c-0.1-0.8-0.4-1.3-0.8-1.3c-0.5,0-1.1,0.1-1.9,0.3
		c-0.8,0.2-1.4,0.5-1.6,0.7c-0.3,0.2-0.5,0.1-0.7-0.3C40,9.6,40,9.2,40.4,8.8c0.4-0.4,0.7-1,0.8-1.7c0.2-0.8,0.1-1.4-0.3-1.8
		c-0.4-0.4-0.2-0.5,0.5-0.4c0.7,0.2,1.4,0.2,2.1-0.1s1.4-0.4,1.9-0.5"/>
</g>
<path d="M27,12.2c-0.4-0.4-0.2-0.6,0.4-0.6c0.6,0,1.1,0.2,1.6,0.4c0.5,0.2,0.7,0.7,0.5,1.3c-0.1,0.6-0.5,0.7-1.2,0.3
	C27.8,13.1,27.4,12.6,27,12.2z"/>
<path d="M32.7,3.5c0.8,0.6,0.7,1-0.3,1.1c-1,0.1-2.2,0.4-3.6,0.8c-0.3,1-0.5,1.8-0.6,2.3c-0.1,0.6,0.1,0.8,0.8,0.6
	c0.7-0.1,1.2-0.3,1.6-0.6c0.4-0.3,0.8-0.3,1.1-0.2c0.3,0.1,0.7,0.4,1.1,0.6c0.4,0.3,0.4,0.6,0.2,0.8c-0.3,0.3-0.4,1.3-0.3,3.1
	c0.1,1.8,0,3.3-0.2,4.6c-0.2,1.3-0.7,2.3-1.5,2.9c-0.8,0.6-1.2,0.7-1.4,0.2c-0.1-0.5-0.6-1.1-1.4-1.7c-0.8-0.6-0.8-0.9,0-0.7
	c0.8,0.2,1.4,0.3,1.8,0.3c0.4,0,0.8-0.4,1-1.3c0.2-0.9,0.4-1.9,0.4-3.2c0-1.2,0-2.3-0.1-3.1c-0.1-0.8-0.4-1.3-0.8-1.3
	c-0.5,0-1.1,0.1-1.9,0.3c-0.8,0.2-1.4,0.5-1.6,0.7c-0.3,0.2-0.5,0.1-0.7-0.3c-0.2-0.5-0.1-0.9,0.3-1.3c0.4-0.4,0.7-1,0.8-1.7
	c0.2-0.8,0.1-1.4-0.3-1.8c-0.4-0.4-0.2-0.5,0.5-0.4c0.7,0.2,1.4,0.2,2.1-0.1s1.4-0.4,1.9-0.5"/>
<g>
	<path d="M-50.8,9.8c0.6-0.1,1.1-0.2,1.6-0.4c0.4-0.2,0.8-0.1,1.2,0.2c0.3,0.3,0.1,0.5-0.6,0.7c-0.7,0.2-1.5,0.3-2.1,0.3 M-51,13.9
		c0.7-0.1,1.5-0.2,2.1-0.3c0.7-0.1,1.3-0.1,1.8,0.1c0.1-2,0.2-3.8,0.2-5.2s-0.1-2.2-0.3-2.5c-0.2-0.2-1.4-0.2-3.7,0.3L-52.4,6
		c-0.3-0.6-0.3-0.8,0.1-0.8c0.4,0,0.7,0.1,0.9,0.3c0.2,0.1,0.5,0.2,0.8,0.2c0.3,0,0.8-0.1,1.4-0.2c0.6-0.1,1.2-0.2,1.6-0.5
		c0.4-0.3,0.9-0.3,1.3-0.2c0.4,0.2,0.9,0.4,1.3,0.8c0.4,0.4,0.5,0.8,0.2,1.2c-0.3,0.4-0.5,1-0.6,1.7s-0.1,2,0,3.8s-0.1,3.2-0.6,4.1
		c-0.5,0.9-0.8,1-1,0.4c-0.2-0.6-0.3-1.3-0.4-2c-1.4,0.1-2.6,0.2-3.7,0.3"/>
</g>
<g>
	<path d="M11.6,14.4c0.3-0.6,0.5-1.3,0.7-2.2c0.3-1.4,0.2-1.5-0.4-1.5c-0.4,0-1.1,0.3-1.4,0.5c-0.5,0.4-0.8,0.4-1,0
		c-0.2-0.4-0.1-0.8,0.4-1.2c0.5-0.3,0.9-1.1,1.8-3.9C12,5.4,11.9,5.3,10.6,6C9.9,6.4,9.5,6.4,9,6.1C7.8,5.6,7.8,5.3,9,5.3
		c0.7,0,2.2-0.5,2.8-1c0.6-0.6,1-0.6,2,0.1c1,0.7,1,0.9,0.3,1.4c-0.3,0.2-1.3,1.3-2.6,3.7c-0.4,0.7-0.4,0.8,0.4,0.5
		c0.9-0.3,1.2-0.3,1.8,0c1.1,0.6,1.2,0.9,0.6,1.5c-0.2,0.3-0.4,0.5-0.8,1.8c-0.2,0.7-0.5,1.2-0.7,1.7l-0.5,0.8
		c-1.3,1.9-3.8,3.6-5.4,4c-1,0.2-1,0.1,0.5-0.9c1.4-0.8,3-2.2,3.9-3.7"/>
</g>
<g>
	<path d="M57.8,14.6c0.4-0.7,0.6-1.6,0.8-2.6c0.3-1.6,0.2-1.8-0.4-1.7c-0.4,0-1.3,0.4-1.6,0.6c-0.6,0.4-0.9,0.4-1.1,0
		c-0.2-0.4-0.1-0.9,0.5-1.4C56.5,9.1,57,8.2,58,5c0.2-0.7,0.1-0.8-1.4-0.1c-0.9,0.5-1.3,0.5-1.9,0.1c-1.3-0.6-1.3-1,0-1
		c0.8,0,2.5-0.5,3.2-1.2c0.7-0.7,1.1-0.7,2.3,0.1c1.1,0.8,1.2,1.1,0.4,1.6c-0.4,0.2-1.5,1.5-3,4.3c-0.5,0.8-0.4,0.9,0.4,0.6
		c1-0.4,1.3-0.4,2.1,0c1.3,0.7,1.4,1,0.7,1.8c-0.3,0.3-0.4,0.6-0.9,2c-0.3,0.8-0.5,1.4-0.8,2 M58.5,16.2c-1.5,2.1-4.4,4.2-6.2,4.6
		c-1.2,0.2-1.2,0.1,0.6-1c1.6-1,3.5-2.6,4.5-4.2"/>
</g>
<path d="M60.2,18.9c-1.5-1.7-3.1-3.6-4.2-5.1c-0.3-0.4-0.2-0.6,0.3-0.3c4.6,2.4,4.8,2.8,5,4.4C61.4,19,60.8,19.5,60.2,18.9z"/>
</svg>
