<?xml version="1.0" encoding="utf-8"?>
<!-- Generator: Adobe Illustrator 22.1.0, SVG Export Plug-In . SVG Version: 6.00 Build 0)  -->
<svg version="1.1" id="Layer_1" xmlns="http://www.w3.org/2000/svg" xmlns:xlink="http://www.w3.org/1999/xlink" x="0px" y="0px"
	 viewBox="0 0 22 22" style="enable-background:new 0 0 22 22;" xml:space="preserve">
<style type="text/css">
	.st0{enable-background:new    ;}
</style>
<g>
	<path d="M36.5,5.4c1.1-0.1,2-0.5,3.5-1.2c0.6-0.3,1.7-0.5,2.3-0.4c0.9,0.3,0.9,1.1,0.3,1.3c-2.2,0.8-3.8,1.1-4.9,1.1
		c0.1,1.1,0,1.7-0.4,3.1C38.6,9,39.6,8.7,40,8.5c0.4-0.2,0.8-0.1,1.3,0.4c0.9,0.9,1,1.2,0.7,1.8c-0.2,0.5-0.3,1.2-0.4,2
		c-0.3,3.6-0.6,5.2-1.6,6.5c-0.5,0.7-1.1,0.6-1.5-0.1c-0.4-1-0.8-1.7-1.3-2.4C37,16,37.1,15.6,37.7,16c1.3,0.7,2.1,0.6,2.2-0.3
		c0.3-1.5,0.5-3.8,0.4-5c0-0.8-0.4-1-1.4-0.9c-1,0.1-1.7,0.5-2.7,1.7c-0.4,0.6-0.7,0.5-0.9-0.2c-0.1-0.8,0-1.5,0.2-1.7
		c1-0.8,1.5-2.4,1.2-3.5c-0.2,0-0.5-0.1-0.7-0.2"/>
</g>
<g>
	<path d="M-16.8,15.2c-0.2-0.3-0.4-0.7-0.6-1.1c-3.1,1.6-4,2.2-4.8,3c-0.5,0.4-0.6,0.4-1-0.4c-0.4-0.7-0.3-1.1,0.1-1.2
		c0.6-0.2,1-0.7,1.9-2.8c0.6-1.2,0.8-2,0.7-2.6c-2.3,0.6-3.3,0.6-3.9,0.4c-0.5-0.2-0.4-0.4,0-0.5C-23,9.6-20.6,9-20,8.7
		c1.5-0.6,2.5-0.8,3.4-0.6c0.5,0.1,0.6,0.5,0.2,0.7c-0.4,0.2-1.5,0.6-3.2,1c0.8,0.7,0.8,1,0.4,1.4c-0.5,0.5-0.9,1.2-2.2,3.3
		c-0.2,0.4-0.1,0.5,0.3,0.4c0.6-0.2,2.5-0.9,3.5-1.4c-0.2-0.5-0.5-1-0.6-1.3c-0.2-0.4,0-0.5,0.5-0.2c1.5,0.9,2.1,1.9,2.1,2.9
		C-15.7,15.9-16.3,16-16.8,15.2z"/>
</g>
<path d="M-21.6,7.2C-22.1,6.8-22.5,6-22.9,5c-0.2-0.4-0.1-0.5,0.4-0.5c1.3,0.1,1.9,1.4,1.7,2.2C-20.9,7.2-21.3,7.4-21.6,7.2z"/>
<path d="M-17.1,5.8c-0.8,0.9-1.9,2-2.6,2.3c-0.4,0.2-0.6,0-0.3-0.3c2.3-2.7,2.7-3.9,2.5-4.6c-0.1-0.5,0.2-0.7,1-0.3
	c1.3,0.7,1.4,1.3,0.9,1.5C-16,4.6-16.4,4.9-17.1,5.8z"/>
<text transform="matrix(1 0 0 1 43.5837 19.4544)" style="font-family:'KaiTi'; font-size:23.8746px;">厸私</text>
<path d="M13.2,13.7c-0.3-0.6-0.6-1.2-0.8-1.7c-0.2-0.5-0.2-0.7,0-0.7c0.2,0.1,0.6,0.3,1.2,0.8c0.6,0.5,1,1,1.3,1.5
	c0.3,0.5,0.4,1.1,0.2,1.7c-0.1,0.6-0.3,0.9-0.6,0.8c-0.2-0.1-0.6-0.7-1.1-1.8c-1.3,0.3-2.4,0.7-3.4,1c-1,0.4-1.6,0.7-2,1
	c-0.4,0.3-0.6,0.2-0.8-0.4c-0.2-0.5,0-1,0.4-1.3c0.4-0.3,0.8-0.8,1.1-1.3c0.3-0.6,0.7-1.3,1-2.2c0.3-0.9,0.6-1.8,0.9-2.6
	c0.2-0.9,0.3-1.6,0.1-2.1c-0.1-0.6,0.1-0.7,0.6-0.5c0.5,0.2,0.9,0.4,1.2,0.7c0.3,0.2,0.3,0.5,0.1,0.8C12.3,7.7,12,8.3,11.7,9
	c-0.3,0.7-0.7,1.6-1.1,2.5c-0.4,0.9-0.8,1.9-1.3,2.8C9.9,14.3,11.2,14.1,13.2,13.7z"/>
</svg>
