<?xml version="1.0" encoding="utf-8"?>
<!-- Generator: Adobe Illustrator 22.1.0, SVG Export Plug-In . SVG Version: 6.00 Build 0)  -->
<svg version="1.1" id="Layer_1" xmlns="http://www.w3.org/2000/svg" xmlns:xlink="http://www.w3.org/1999/xlink" x="0px" y="0px"
	 viewBox="0 0 22 22" style="enable-background:new 0 0 22 22;" xml:space="preserve">
<g>
	<path d="M4.9,19.1c-0.6,0.5-0.8,0.2-0.4-0.3c1.5-1.9,2.4-4.3,2.8-6.9c0.4-2.7,0.4-4.4,0.1-5.3c-0.3-0.7,0-1,1.1-0.5
		c1.6-0.3,2.7-0.6,3.2-1C12,4.9,12.3,4.9,12.8,5c1.5,0.6,1.5,0.9,1.2,1.2c-0.5,0.5-0.6,1-1.3,3.2c-0.1,0.3-0.1,0.5,0.3,0.6
		c0.5,0.2,0.4,0.7-0.4,0.8c-1.5,0.2-2.7,0.4-2.9,0.5c-0.2,0-0.6,0.1-1,0.2C7.8,15.3,6.8,17.4,4.9,19.1z M8.6,10.9
		c0.8-0.2,1.8-0.4,2.4-0.6c0.4-0.1,0.6-0.6,0.9-3.3c0.1-0.6-0.2-0.8-0.8-0.7c-0.6,0.2-1.4,0.3-2.3,0.5C8.9,7.9,8.8,9.5,8.6,10.9z"/>
</g>
</svg>
