<?xml version="1.0" encoding="iso-8859-1"?>
<!-- Generator: Adobe Illustrator 22.1.0, SVG Export Plug-In . SVG Version: 6.00 Build 0)  -->
<svg version="1.1" id="&#x4E09;&#x58F0;" xmlns="http://www.w3.org/2000/svg" xmlns:xlink="http://www.w3.org/1999/xlink" x="0px"
	 y="0px" viewBox="0 0 22 22" style="enable-background:new 0 0 22 22;" xml:space="preserve">
<g>
	<path style="fill:#1D1D1B;" d="M11.474,1.603c0-0.35,0.319-0.319,0.961,0.087c0.64,0.408,0.96,0.873,0.96,1.397
		c0,0.467-0.117,0.772-0.349,0.917c-0.233,0.146-0.555-0.131-0.961-0.83C11.677,2.476,11.474,1.952,11.474,1.603z"/>
	<path style="fill:#1D1D1B;" d="M18.328,1.472c-0.262,0.146-0.67,0.567-1.223,1.266c-0.554,0.698-1.193,1.34-1.921,1.921
		c-0.729,0.583-0.845,0.539-0.349-0.131c0.493-0.668,0.917-1.411,1.266-2.227c0.35-0.814,0.509-1.397,0.48-1.746
		c-0.03-0.35,0.072-0.509,0.306-0.48c0.231,0.03,0.581,0.249,1.048,0.655C18.459,1.079,18.591,1.327,18.328,1.472z"/>
</g>
</svg>
