<?xml version="1.0" encoding="iso-8859-1"?>
<!-- Generator: Adobe Illustrator 22.1.0, SVG Export Plug-In . SVG Version: 6.00 Build 0)  -->
<svg version="1.1" id="Layer_1" xmlns="http://www.w3.org/2000/svg" xmlns:xlink="http://www.w3.org/1999/xlink" x="0px" y="0px"
	 viewBox="0 0 22 22" style="enable-background:new 0 0 22 22;" xml:space="preserve">
<g id="&#x56FE;&#x5C42;_5" style="display:none;">
	<g style="display:inline;">
		<path d="M37.641,15.748c0,0.699-0.103,1.02-0.306,0.961c-0.204-0.058-0.379-0.363-0.523-0.917
			c-0.146-0.553-0.38-1.382-0.699-2.488c-0.32-1.105-0.641-1.906-0.96-2.401c-0.321-0.494-0.277-0.728,0.131-0.699
			c0.406,0.03,0.756,0.087,1.048,0.175c0.29,0.087,0.829,0.074,1.615-0.044c0.786-0.116,1.747-0.291,2.882-0.524
			c1.136-0.232,1.862-0.437,2.184-0.611c0.318-0.174,0.668-0.188,1.048-0.043c0.378,0.146,0.756,0.349,1.135,0.611
			c0.378,0.262,0.422,0.598,0.131,1.004c-0.292,0.408-0.495,1.282-0.611,2.62c-0.117,1.34-0.379,2.301-0.786,2.882
			c-0.407,0.583-0.713,0.626-0.916,0.131c-0.205-0.494-0.424-0.917-0.655-1.266C40.784,15.312,39.213,15.517,37.641,15.748z
			 M43.099,7.541c-0.379,0.059-1.79,0.233-4.235,0.524c-0.117,0.466-0.262,0.611-0.437,0.437c-0.175-0.175-0.394-0.655-0.655-1.441
			c-0.262-0.786-0.51-1.354-0.742-1.703c-0.233-0.35-0.204-0.524,0.088-0.524c0.349,0,0.654,0.043,0.916,0.131
			c0.263,0.087,0.655,0.087,1.18,0c0.523-0.087,1.092-0.203,1.703-0.349c0.61-0.145,1.048-0.306,1.31-0.48s0.581-0.203,0.96-0.087
			c0.378,0.117,0.742,0.321,1.092,0.611c0.35,0.292,0.306,0.583-0.131,0.873c-0.437,0.292-0.801,0.729-1.092,1.31
			C43.462,7.25,43.477,7.483,43.099,7.541z M39.736,14.7v-1.483c-0.523,0.059-0.946,0.015-1.266-0.131
			c-0.321-0.146-0.35-0.276-0.088-0.394c0.263-0.116,0.713-0.263,1.354-0.437c0-0.874-0.117-1.367-0.349-1.485
			c-0.991,0.118-1.806,0.233-2.445,0.35c0.231,1.456,0.437,2.794,0.611,4.017C38.31,14.963,39.038,14.818,39.736,14.7z M44.06,1.297
			c0.437,0.146,0.465,0.349,0.087,0.611c-0.379,0.262-1.135,0.495-2.271,0.698C40.741,2.812,39.969,2.942,39.562,3
			c-0.408,0.059-0.889-0.014-1.441-0.218c-0.554-0.203-0.511-0.363,0.131-0.48c0.641-0.116,1.542-0.291,2.707-0.524
			C42.588,1.312,43.622,1.152,44.06,1.297z M41.92,6.929c0.116-0.291,0.218-0.699,0.306-1.223c0.087-0.524-0.103-0.742-0.567-0.655
			c-0.467,0.087-1.485,0.277-3.057,0.567c0.058,0.699,0.116,1.34,0.175,1.921C39.999,7.308,41.047,7.104,41.92,6.929z
			 M41.832,11.906c0.232,0.059,0.306,0.205,0.219,0.437c-0.087,0.233-0.511,0.467-1.267,0.698c-0.059,0.699-0.087,1.194-0.087,1.485
			c0.465-0.058,0.858-0.131,1.179-0.219c0.319-0.087,0.611-0.044,0.873,0.131c0.263,0.175,0.466-0.188,0.611-1.091
			c0.145-0.902,0.219-1.586,0.219-2.053c0-0.524-0.117-0.858-0.35-1.004c-0.233-0.145-0.523-0.204-0.873-0.175
			c-0.35,0.03-0.932,0.161-1.746,0.393c0.349,0.349,0.493,0.598,0.437,0.742c-0.059,0.146-0.118,0.393-0.175,0.742
			C41.278,11.878,41.599,11.849,41.832,11.906z M48.338,5.707c-0.146,0.349-0.205,1.31-0.175,2.882
			c0.029,1.572-0.015,2.707-0.131,3.405c-0.117,0.699-0.35,0.816-0.698,0.349c-0.35-0.465-0.48-1.091-0.394-1.877
			c0.088-0.786,0.131-1.703,0.131-2.75s-0.174-1.877-0.523-2.489c-0.35-0.611-0.248-0.858,0.306-0.742
			c0.553,0.118,0.974,0.262,1.266,0.437C48.41,5.095,48.482,5.357,48.338,5.707z M51.962,1.472
			c-0.233,0.379-0.364,1.615-0.394,3.711s0,4.178,0.088,6.244c0.087,2.067,0.145,3.362,0.175,3.885
			c0.028,0.524-0.044,1.078-0.219,1.659c-0.175,0.582-0.423,1.033-0.742,1.354c-0.32,0.319-0.611,0.16-0.873-0.479
			c-0.262-0.641-0.772-1.28-1.528-1.922c-0.757-0.64-0.714-0.814,0.131-0.523c0.844,0.292,1.367,0.364,1.572,0.218
			c0.203-0.145,0.334-0.727,0.393-1.746c0.058-1.018,0.072-3.288,0.044-6.811c-0.03-3.521-0.248-5.617-0.655-6.287
			c-0.408-0.668-0.292-0.917,0.35-0.742c0.64,0.174,1.135,0.379,1.484,0.611C52.137,0.816,52.193,1.093,51.962,1.472z"/>
		<path d="M57.463,6.405c0.058-0.524,0.306-0.35,0.742,0.524c0.437,0.873,0.48,1.951,0.131,3.231
			c-0.349,1.281-0.698,1.689-1.048,1.222c-0.349-0.465-0.451-0.989-0.306-1.572c0.146-0.581,0.247-1.164,0.306-1.746
			C57.346,7.483,57.404,6.929,57.463,6.405z M63.008,4.484c0.611,0.233,0.902,0.598,0.873,1.092
			c-0.029,0.495-0.32,0.554-0.873,0.174c-0.554-0.378-1.034-0.684-1.44-0.917c-0.059,3.377-0.074,5.938-0.044,7.684
			c0.029,1.746-0.044,3.23-0.218,4.453c-0.175,1.223-0.48,1.311-0.917,0.263s-0.567-1.819-0.394-2.314
			c0.175-0.494,0.335-1.862,0.48-4.104c0.145-2.24,0.188-4.351,0.131-6.331c-0.059-1.978-0.248-3.172-0.567-3.58
			c-0.32-0.407-0.393-0.655-0.218-0.742c0.174-0.087,0.581,0.015,1.222,0.306c0.641,0.292,0.888,0.567,0.742,0.83
			c-0.146,0.262-0.218,1.209-0.218,2.838C61.917,4.135,62.396,4.252,63.008,4.484z M70.3,4.702
			c-0.118,0.321-0.175,1.063-0.175,2.227c1.862-0.407,3.1-0.669,3.711-0.786c0.611-0.116,1.179,0.059,1.703,0.524
			c0.523,0.467,0.393,0.685-0.394,0.655c-0.785-0.028-2.46,0.131-5.021,0.48c0,3.086-0.016,5.56-0.044,7.422
			c-0.03,1.863-0.204,2.969-0.523,3.318c-0.321,0.35-0.511-0.336-0.568-2.052c-0.059-1.717-0.087-4.526-0.087-8.427
			c-2.154,0.524-3.421,0.829-3.799,0.917c-0.379,0.087-0.771,0-1.179-0.262c-0.408-0.262-0.539-0.407-0.393-0.437
			c0.145-0.029,0.494-0.087,1.048-0.175c0.553-0.087,1.207-0.203,1.965-0.349c0.756-0.145,1.541-0.334,2.357-0.568
			c0-1.513-0.146-2.532-0.437-3.056c-0.816,0.349-1.559,0.598-2.227,0.742c-0.67,0.146-0.67,0.043,0-0.306
			c0.668-0.349,1.354-0.799,2.052-1.354c0.698-0.552,1.148-0.989,1.354-1.31c0.203-0.319,0.291-0.611,0.262-0.874
			c-0.029-0.262,0.275-0.275,0.917-0.043c0.64,0.233,1.136,0.495,1.484,0.786c0.35,0.292,0.319,0.496-0.087,0.611
			c-0.408,0.118-0.816,0.262-1.223,0.437C70.59,3,69.979,3.32,69.164,3.786C70.037,4.078,70.415,4.383,70.3,4.702z"/>
		<path d="M80.123,7.104c-0.03-0.349,0.394-0.334,1.267,0.044c0.873,0.379,1.207,0.947,1.004,1.703
			c-0.204,0.757-0.626,0.729-1.266-0.087C80.486,8.007,80.152,7.453,80.123,7.104z M82.786,13.086
			c-0.232,0.96-0.423,2.125-0.567,3.492c-0.146,1.367-0.554,1.528-1.223,0.48c-0.67-1.048-0.873-1.615-0.611-1.703
			c0.263-0.087,0.611-0.509,1.048-1.266c0.438-0.756,0.975-1.775,1.616-3.057c0.64-1.28,0.814-1.484,0.523-0.611
			C83.28,11.238,83.019,12.125,82.786,13.086z M81.521,2.606c-0.088-0.378,0.306-0.465,1.179-0.262
			c0.873,0.205,1.28,0.713,1.223,1.528c-0.059,0.816-0.467,0.903-1.223,0.262C82.001,3.495,81.607,2.986,81.521,2.606z
			 M87.152,7.278l0.524,0.175c0.465,0.292,0.553,0.611,0.262,0.96c-0.292,0.349-0.582,0.801-0.873,1.354
			c-0.292,0.554-0.567,1.019-0.83,1.397c-0.262,0.379-0.218,0.568,0.132,0.568h1.571c0.291-0.407,0.538-0.843,0.742-1.31
			c0.203-0.465,0.291-0.814,0.262-1.048c-0.029-0.232,0.072-0.349,0.306-0.349c0.232,0,0.524,0.189,0.874,0.567
			c0.349,0.379,0.378,0.699,0.087,0.96c-0.292,0.262-0.583,0.554-0.873,0.874c-0.292,0.32-0.758,0.859-1.397,1.615
			c-0.642,0.758-1.092,1.311-1.354,1.659c-0.262,0.35-0.48,0.627-0.655,0.83c-0.174,0.205-0.146,0.306,0.088,0.306
			c0.231,0,0.96-0.175,2.183-0.524c-0.117-0.523-0.218-0.974-0.306-1.354c-0.087-0.378,0.116-0.362,0.611,0.044
			c0.494,0.408,0.814,0.786,0.961,1.136c0.145,0.349,0.145,0.742,0,1.179c-0.146,0.437-0.292,0.626-0.437,0.567
			c-0.146-0.058-0.364-0.437-0.655-1.136c-1.63,0.642-2.75,1.223-3.361,1.747c-0.611,0.523-0.961,0.45-1.048-0.219
			c-0.088-0.668,0.014-1.091,0.306-1.266c0.29-0.175,0.698-0.553,1.222-1.136c0.524-0.581,1.193-1.454,2.009-2.619
			c-1.223,0.174-2.009,0.408-2.357,0.698c-0.35,0.292-0.567,0.19-0.655-0.306c-0.087-0.494,0.058-0.887,0.437-1.179
			c0.378-0.291,0.771-0.858,1.179-1.703c0.407-0.843,0.582-1.644,0.524-2.401c-0.467,0.117-0.845,0.175-1.136,0.175
			c-0.292,0-0.641-0.131-1.048-0.393s-0.32-0.407,0.263-0.437c0.581-0.029,1.6-0.204,3.056-0.524
			c1.455-0.319,2.634-0.597,3.537-0.83c0.901-0.232,1.659-0.437,2.271-0.611c0.61-0.175,1.12-0.247,1.527-0.218
			c0.407,0.03,0.713,0.174,0.917,0.437c0.203,0.262,0.029,0.452-0.523,0.567c-0.555,0.118-1.849,0.408-3.886,0.874
			C89.917,6.697,88.433,6.988,87.152,7.278z M86.891,1.603c0-0.35,0.319-0.319,0.961,0.087c0.64,0.408,0.96,0.873,0.96,1.397
			c0,0.467-0.117,0.772-0.349,0.917c-0.233,0.146-0.555-0.131-0.961-0.83C87.094,2.476,86.891,1.952,86.891,1.603z M93.745,1.472
			c-0.262,0.146-0.67,0.567-1.223,1.266c-0.554,0.698-1.193,1.34-1.921,1.921c-0.729,0.583-0.845,0.539-0.349-0.131
			c0.493-0.668,0.917-1.411,1.266-2.227c0.35-0.814,0.509-1.397,0.48-1.746c-0.03-0.35,0.072-0.509,0.306-0.48
			c0.231,0.03,0.581,0.249,1.048,0.655C93.876,1.079,94.008,1.327,93.745,1.472z M94.4,9.811c0.116-0.406,0.188-0.756,0.219-1.048
			c0.028-0.291,0.275-0.262,0.742,0.087c0.465,0.349,0.712,0.611,0.742,0.786c0.028,0.174-0.118,0.423-0.437,0.742
			c-0.321,0.32-0.961,1.062-1.922,2.227c-0.96,1.165-1.646,1.964-2.052,2.4c-0.408,0.438-0.423,0.627-0.044,0.568
			c0.378-0.058,1.295-0.232,2.751-0.524c-0.642-1.164-0.829-1.731-0.567-1.702s0.668,0.248,1.223,0.654
			c0.552,0.408,0.974,0.917,1.266,1.528c0.291,0.611,0.35,1.193,0.175,1.746s-0.423,0.625-0.742,0.219
			c-0.32-0.407-0.685-1.077-1.092-2.009c-2.038,0.642-3.274,1.122-3.711,1.441c-0.437,0.32-0.742,0.174-0.917-0.437
			s-0.059-1.033,0.35-1.267c0.406-0.232,0.843-0.655,1.31-1.267c0.465-0.61,1.048-1.41,1.746-2.401
			c-1.455,0.175-2.313,0.349-2.575,0.524c-0.263,0.175-0.424,0.059-0.48-0.349c-0.059-0.407,0.072-0.743,0.393-1.004
			c0.319-0.262,0.64-0.843,0.961-1.747c0.319-0.902,0.45-1.498,0.393-1.79c-0.059-0.291,0.028-0.407,0.262-0.349
			c0.232,0.059,0.524,0.205,0.874,0.437c0.349,0.233,0.378,0.51,0.087,0.83c-0.292,0.321-0.567,0.699-0.83,1.135
			c-0.262,0.437-0.451,0.816-0.567,1.135c-0.117,0.32-0.043,0.495,0.219,0.524c0.262,0.03,0.8,0.074,1.615,0.131
			C94.08,10.626,94.283,10.219,94.4,9.811z"/>
		<path d="M108.939,14.875c1.192,0.292,2.794,0.583,4.803,0.873c2.009,0.292,3.914,0.321,5.72,0.088
			c1.804-0.232,2.445-0.203,1.921,0.087c-0.523,0.292-1.354,0.714-2.488,1.267c-1.136,0.553-2.009,0.8-2.62,0.742
			c-0.611-0.059-1.688-0.35-3.23-0.873c-1.543-0.524-2.854-0.945-3.93-1.267c-1.078-0.319-2.009-0.581-2.794-0.786
			c-0.786-0.203-1.456-0.145-2.009,0.175c-0.554,0.321-0.99,0.555-1.31,0.699c-0.321,0.146-0.714,0.043-1.179-0.306
			c-0.467-0.35-0.452-0.553,0.043-0.611c0.494-0.058,1.019-0.188,1.572-0.394c0.553-0.203,1.12-0.362,1.702-0.479
			c-0.059-0.873-0.248-1.629-0.567-2.271c-0.32-0.64-0.437-1.164-0.349-1.572c0.087-0.406,0.188-0.786,0.306-1.135
			c0.115-0.35-0.103-0.407-0.655-0.175c-0.554,0.233-1.048,0.262-1.484,0.087c-0.437-0.175-0.467-0.306-0.088-0.393
			c0.378-0.087,0.786-0.247,1.223-0.48c0.437-0.232,0.786-0.48,1.048-0.742c0.262-0.262,0.713-0.203,1.354,0.175
			c0.64,0.379,0.728,0.742,0.262,1.091c-0.466,0.35-0.757,0.83-0.873,1.441c-0.117,0.611,0.014,1.238,0.394,1.877
			c0.378,0.641,0.393,1.369,0.043,2.183C106.683,14.352,107.746,14.585,108.939,14.875z M103.482,2.039
			c-0.06-0.175,0.203-0.218,0.785-0.131c0.581,0.087,1.092,0.349,1.528,0.786s0.581,0.888,0.437,1.354
			c-0.146,0.467-0.437,0.568-0.873,0.306c-0.437-0.262-0.859-0.655-1.267-1.179C103.744,2.593,103.539,2.214,103.482,2.039z
			 M115.227,6.23c-0.146,0.292-0.598,1.456-1.354,3.493c1.455,1.223,2.401,2.111,2.838,2.664c0.437,0.554,0.524,1.062,0.263,1.528
			c-0.263,0.467-0.714,0.32-1.354-0.437c-0.642-0.756-1.428-1.572-2.358-2.445c-0.99,1.223-1.893,2.066-2.707,2.532
			c-0.815,0.467-1.514,0.742-2.096,0.83c-0.582,0.087-0.539-0.044,0.131-0.394c0.669-0.35,1.339-0.873,2.009-1.572
			c0.669-0.698,1.236-1.454,1.703-2.27c-1.165-1.048-2.023-1.804-2.576-2.271c-0.554-0.465-0.408-0.538,0.437-0.218
			c0.843,0.32,1.79,0.801,2.838,1.441c0.581-1.339,0.843-2.677,0.786-4.017c-1.515,0.233-2.62,0.452-3.318,0.655
			c-0.698,0.205-1.354,0.118-1.965-0.262c-0.611-0.378-0.655-0.568-0.131-0.568c0.581,0,1.382-0.087,2.401-0.262
			c1.018-0.175,1.935-0.349,2.751-0.524c0.814-0.175,1.629-0.378,2.444-0.611c0.814-0.232,1.484-0.16,2.009,0.218
			c0.523,0.379,0.437,0.611-0.262,0.699c-0.699,0.087-1.864,0.277-3.493,0.567C115.037,5.532,115.371,5.94,115.227,6.23z
			 M113.48,0.904c0.611,0.349,0.843,0.873,0.698,1.572c-0.146,0.699-0.654,0.655-1.528-0.131c-0.873-0.786-1.396-1.31-1.571-1.572
			c-0.175-0.262,0.028-0.393,0.611-0.393C112.271,0.38,112.869,0.555,113.48,0.904z"/>
	</g>
	<text transform="matrix(1 0 0 1 -92.2494 17.3203)" style="display:inline; font-family:'KaiTi'; font-size:22.3543px;">&#x526F;&#x5FCF;&#x806A;&#x8FD9;</text>
</g>
<g id="&#x4E00;&#x58F0;">
	<g>
		<path style="fill:#1D1D1B;" d="M17.591,1.841c-0.57,0.241-2.066,0.626-3.039,0.842c-1.662,0.361-2.019,0.361-2.873,0
			c-0.57-0.241-0.451-0.457,0.213-0.553c1.259-0.168,2.232-0.505,3.229-0.866c0.688-0.265,1.994-0.434,2.541-0.168
			C18.089,1.288,17.994,1.673,17.591,1.841z"/>
	</g>
</g>
<g id="&#x4E8C;&#x58F0;" style="display:none;">
	<path style="display:inline;fill:#00A651;" d="M13.966,3.33c-0.816,0.349-1.559,0.598-2.227,0.742c-0.67,0.146-0.67,0.043,0-0.306
		c0.668-0.349,1.354-0.799,2.052-1.354c0.698-0.552,1.148-0.989,1.354-1.31c0.203-0.319,0.291-0.611,0.262-0.874
		c-0.029-0.262,0.275-0.275,0.917-0.043c0.64,0.233,1.136,0.495,1.484,0.786c0.35,0.292,0.319,0.496-0.087,0.611
		c-0.408,0.118-0.816,0.262-1.223,0.437c-0.408,0.175-1.02,0.496-1.834,0.961"/>
</g>
<g id="&#x4E09;&#x58F0;" style="display:none;">
	<g style="display:inline;">
		<path style="fill:#00A651;" d="M11.474,1.603c0-0.35,0.319-0.319,0.961,0.087c0.64,0.408,0.96,0.873,0.96,1.397
			c0,0.467-0.117,0.772-0.349,0.917c-0.233,0.146-0.555-0.131-0.961-0.83C11.677,2.476,11.474,1.952,11.474,1.603z"/>
		<path style="fill:#00A651;" d="M18.328,1.472c-0.262,0.146-0.67,0.567-1.223,1.266c-0.554,0.698-1.193,1.34-1.921,1.921
			c-0.729,0.583-0.845,0.539-0.349-0.131c0.493-0.668,0.917-1.411,1.266-2.227c0.35-0.814,0.509-1.397,0.48-1.746
			c-0.03-0.35,0.072-0.509,0.306-0.48c0.231,0.03,0.581,0.249,1.048,0.655C18.459,1.079,18.591,1.327,18.328,1.472z"/>
	</g>
</g>
<g id="&#x56DB;&#x58F0;" style="display:none;">
	<path style="display:inline;fill:#00A651;" d="M15.147,0.904c0.611,0.349,0.843,0.873,0.698,1.572
		C15.7,3.174,15.191,3.13,14.317,2.345c-0.873-0.786-1.396-1.31-1.571-1.572s0.028-0.393,0.611-0.393
		C13.938,0.38,14.536,0.555,15.147,0.904z"/>
</g>
</svg>
