<?xml version="1.0" encoding="iso-8859-1"?>
<!-- Generator: Adobe Illustrator 22.1.0, SVG Export Plug-In . SVG Version: 6.00 Build 0)  -->
<svg version="1.1" id="&#x4E8C;&#x58F0;" xmlns="http://www.w3.org/2000/svg" xmlns:xlink="http://www.w3.org/1999/xlink" x="0px"
	 y="0px" viewBox="0 0 22 22" style="enable-background:new 0 0 22 22;" xml:space="preserve">
<path style="fill:#1D1D1B;" d="M13.966,3.33c-0.816,0.349-1.559,0.598-2.227,0.742c-0.67,0.146-0.67,0.043,0-0.306
	c0.668-0.349,1.354-0.799,2.052-1.354c0.698-0.552,1.148-0.989,1.354-1.31c0.203-0.319,0.291-0.611,0.262-0.874
	c-0.029-0.262,0.275-0.275,0.917-0.043c0.64,0.233,1.136,0.495,1.484,0.786c0.35,0.292,0.319,0.496-0.087,0.611
	c-0.408,0.118-0.816,0.262-1.223,0.437c-0.408,0.175-1.02,0.496-1.834,0.961"/>
</svg>
