<?xml version="1.0" encoding="iso-8859-1"?>
<!-- Generator: Adobe Illustrator 22.1.0, SVG Export Plug-In . SVG Version: 6.00 Build 0)  -->
<svg version="1.1" id="Layer_1" xmlns="http://www.w3.org/2000/svg" xmlns:xlink="http://www.w3.org/1999/xlink" x="0px" y="0px"
	 viewBox="0 0 22 22" style="enable-background:new 0 0 22 22;" xml:space="preserve">
<g>
	<path d="M14.631,11.31c-1.042-0.026-2.657,0.13-5.574,0.547c-1.198,3.959-3.49,7.163-6.642,8.492
		c-0.886,0.365-0.99,0.025-0.365-0.443c2.474-1.797,4.245-4.272,5.548-7.788c-2.683,0.521-2.969,0.495-3.542,0.234
		C3.457,12.065,3.535,11.7,4.447,11.7c0.547,0,1.797-0.208,3.464-0.521C8.458,9.2,8.562,7.845,8.38,7.012
		C7,7.168,6.634,7.116,5.957,6.908C5.28,6.673,5.385,6.309,6.01,6.257c0.547-0.078,3.724-0.834,4.453-1.068
		c2.006-0.677,2.553-0.781,3.257-0.625c1.015,0.234,1.042,0.859,0.025,1.25c-1.015,0.391-2.761,0.834-4.271,1.068
		c0.911,0.468,0.937,0.781,0.755,1.094c-0.104,0.208-0.625,1.849-0.911,2.891c0.911-0.182,1.745-0.391,2.319-0.547
		c2.344-0.651,3.073-0.625,3.672-0.313C16.507,10.632,16.377,11.362,14.631,11.31z M17.236,21.103
		c-1.667,0.886-4.636,0.912-6.252,0.313c-1.537-0.572-2.188-1.98-1.615-5.886c0.261-1.824,0.261-2.188,0.157-2.423
		c-0.261-0.599,0.052-0.859,0.703-0.416c0.756,0.52,0.808,0.911,0.495,1.641c-0.286,0.625-0.495,1.824-0.52,2.761
		c-0.052,2.137,0.286,2.683,1.328,2.918c0.859,0.182,2.266,0.182,3.178-0.052c1.589-0.416,1.953-0.938,2.396-3.282
		c0.13-0.651,0.468-0.625,0.495-0.025c0.025,0.547,0.261,1.719,0.52,2.604C18.382,20.088,18.121,20.608,17.236,21.103z"/>
</g>
</svg>
