<?xml version="1.0" encoding="iso-8859-1"?>
<!-- Generator: Adobe Illustrator 22.1.0, SVG Export Plug-In . SVG Version: 6.00 Build 0)  -->
<svg version="1.1" id="Layer_1" xmlns="http://www.w3.org/2000/svg" xmlns:xlink="http://www.w3.org/1999/xlink" x="0px" y="0px"
	 viewBox="0 0 22 22" style="enable-background:new 0 0 22 22;" xml:space="preserve">
<g>
	<path d="M16.877,21.594c-1.151,0.268-3.009,0.024-4.372-0.706c-1.01-0.535-1.951-1.411-2.092-2.627
		c-0.188-1.508-0.046-4.014,0.33-6.569c0.164-1.168,0.024-1.338-0.447-1.119c-1.034,0.487-2.655,0.681-3.055,0.559
		c-0.164,0.876-0.306,1.8-0.4,2.336c1.646-0.073,2.092,0.268,2.445,1.314c0.282,0.778-0.164,1.191-0.963,0.462
		c-0.705-0.657-1.152-1.022-1.551-1.265c-0.188,0.972-0.611,2.992-0.916,4.33c0.94-0.584,2.139-1.216,2.844-1.46
		c0.447-0.146,0.681,0.049,0.117,0.462c-3.243,2.385-3.925,3.066-4.207,3.528c-0.446,0.778-0.87,0.706-1.128-0.268
		c-0.282-0.998-0.235-1.289,0.423-1.582c0.611-0.291,1.152-1.241,1.857-4.963c0.611-3.309,0.587-5.742,0.399-6.569
		c-0.541,0-1.128-0.097-1.504-0.243C4.184,7.02,4.161,6.753,4.725,6.68c1.81-0.268,4.372-0.973,6.534-1.897
		c0.47-0.219,1.364-0.243,2.092,0.146c0.846,0.438,0.612,0.73-1.152,1.241C11.235,6.461,9.05,7.045,7.076,7.386
		c0.658,0.511,0.752,1.046,0.54,1.703c-0.07,0.243-0.164,0.633-0.282,1.508c0.4,0.024,0.799-0.097,1.363-0.268
		c0.587-0.17,1.387-0.438,1.763-0.706c0.728-0.511,0.893-0.559,1.715-0.097c0.964,0.535,0.917,1.07,0.165,1.581
		c-0.658,0.462-1.082,2.554-1.082,5.863c0,1.508,0.846,2.603,2.163,3.017c1.716,0.535,2.515,0.194,2.821-0.973
		c0.236-0.95,0.306-1.508,0.376-2.311c0.048-0.657,0.376-0.682,0.376,0.049c0,1.46,0.118,2.676,0.236,3.138
		C17.559,21.107,17.464,21.447,16.877,21.594z"/>
</g>
</svg>
