<?xml version="1.0" encoding="iso-8859-1"?>
<!-- Generator: Adobe Illustrator 22.1.0, SVG Export Plug-In . SVG Version: 6.00 Build 0)  -->
<svg version="1.1" id="Layer_1" xmlns="http://www.w3.org/2000/svg" xmlns:xlink="http://www.w3.org/1999/xlink" x="0px" y="0px"
	 viewBox="0 0 22 22" style="enable-background:new 0 0 22 22;" xml:space="preserve">
<g>
	<path d="M14.721,5.995c-1.437,0.023-3.187,0.139-4.714,0.325c1.257,0.79,1.303,1.277,0.853,1.719
		c-0.112,0.116-0.651,0.883-1.593,2.346c0.089,0.302,0.134,0.697,0.156,1.115c0.068,1.161,0.113,2.672,0.18,7.039
		c0.022,1.092-0.089,2.138-0.314,2.649c-0.247,0.558-0.695,0.628-0.965,0.023c-0.494-1.069-0.449-1.325-0.112-2.672
		c0.156-0.604,0.269-1.951,0.269-4.159c0-1.161,0-2.02-0.046-2.694c-1.705,2.346-3.524,3.856-4.713,4.414
		c-0.898,0.418-1.077,0.209-0.539-0.255c2.155-1.906,3.906-3.973,4.938-5.669c-0.068-0.139-0.157-0.256-0.247-0.325
		C7.314,9.364,7.471,9.015,8.594,9.364C9.491,7.645,9.716,6.878,9.447,6.39C8.481,6.506,7.605,6.646,7.044,6.785
		C6.079,7.017,5.428,7.041,5.092,6.855c-0.831-0.441-0.786-0.72,0-0.79c2.491-0.209,6.734-1.022,7.811-1.418
		c0.517-0.186,1.414-0.093,1.863,0.14C15.911,5.391,15.821,5.995,14.721,5.995z M15.125,16.403
		c-0.875-0.883-2.559-2.393-3.995-3.647c-0.808-0.674-0.628-0.86,0.426-0.511c3.928,1.37,4.848,2.346,4.938,3.625
		C16.562,16.775,16,17.286,15.125,16.403z"/>
</g>
</svg>
