<?xml version="1.0" encoding="iso-8859-1"?>
<!-- Generator: Adobe Illustrator 22.1.0, SVG Export Plug-In . SVG Version: 6.00 Build 0)  -->
<svg version="1.1" id="Layer_1" xmlns="http://www.w3.org/2000/svg" xmlns:xlink="http://www.w3.org/1999/xlink" x="0px" y="0px"
	 viewBox="0 0 22 22" style="enable-background:new 0 0 22 22;" xml:space="preserve">
<g>
	<path d="M11.956,14.134c-0.169,0.269-0.337,0.824-0.505,1.664c-0.169,0.841-0.236,1.699-0.201,2.571
		c0.032,0.874,0.285,1.446,0.756,1.714c0.469,0.269,1.21,0.387,2.218,0.353c1.009-0.034,1.765-0.202,2.269-0.505
		c0.504-0.303,0.822-0.806,0.957-1.512c0.134-0.706,0.268-1.26,0.403-1.664c0.134-0.403,0.218-0.201,0.252,0.605
		c0.034,0.806,0.101,1.43,0.202,1.865c0.101,0.439,0.251,0.824,0.453,1.16c0.201,0.337-0.135,0.655-1.009,0.957
		c-0.874,0.303-2.052,0.47-3.529,0.505c-1.479,0.032-2.505-0.219-3.075-0.756c-0.572-0.537-0.874-1.261-0.908-2.168
		c-0.035-0.908,0.034-1.949,0.202-3.126c0.167-1.176,0.151-2.067-0.05-2.672c-0.874,0.134-1.581,0.236-2.118,0.302
		c0.606,0.471,0.823,0.824,0.656,1.059c-0.17,0.237-0.455,0.74-0.858,1.512c-0.403,0.774-0.975,1.58-1.714,2.42
		c-0.74,0.841-1.714,1.512-2.924,2.017c-1.21,0.504-1.278,0.37-0.202-0.403c1.075-0.773,2.017-1.78,2.823-3.026
		c0.806-1.243,1.243-2.402,1.311-3.479c-0.337,0.136-0.673,0.186-1.009,0.152c-0.337-0.034-0.705-0.184-1.109-0.453
		c-0.403-0.268-0.302-0.419,0.303-0.455c0.605-0.034,1.646-0.201,3.126-0.504c1.478-0.303,2.672-0.588,3.58-0.857
		c0.907-0.268,1.629-0.217,2.168,0.151c0.537,0.37,0.504,0.639-0.102,0.806c-0.604,0.169-1.613,0.353-3.025,0.554
		C11.906,13.462,12.122,13.866,11.956,14.134z M5.452,9.395c-0.471,0.471-0.773,0.471-0.907,0c-0.135-0.47-0.118-0.907,0.051-1.311
		C4.762,7.68,4.93,7.261,5.099,6.823c0.167-0.436,0.268-0.89,0.303-1.361c0.033-0.47,0.167-0.57,0.403-0.303
		c0.235,0.27,0.419,0.572,0.555,0.907c1.143-0.202,2.503-0.504,4.084-0.907c1.578-0.403,2.655-0.706,3.227-0.907
		c0.57-0.202,1.091-0.184,1.563,0.05c0.469,0.237,0.94,0.59,1.412,1.059c0.469,0.471,0.519,0.74,0.151,0.807
		c-0.37,0.068-0.791,0.186-1.26,0.353c-0.471,0.169-1.025,0.453-1.664,0.857c-0.64,0.403-0.806,0.337-0.504-0.202
		c0.303-0.537,0.519-0.958,0.656-1.26c0.134-0.302,0.032-0.469-0.303-0.504c-0.337-0.034-1.462,0.151-3.379,0.555
		C8.427,6.37,7.099,6.606,6.359,6.672C6.224,8.018,5.922,8.925,5.452,9.395z M11.098,8.689c0.605-0.134,1.075-0.067,1.412,0.202
		c0.336,0.269,0.117,0.522-0.655,0.756c-0.774,0.237-1.58,0.421-2.42,0.555c-0.841,0.136-1.446,0.085-1.815-0.151
		C7.249,9.815,7.3,9.647,7.771,9.546c0.47-0.101,0.974-0.218,1.512-0.353C9.889,8.992,10.494,8.825,11.098,8.689z"/>
</g>
</svg>
