<?xml version="1.0" encoding="iso-8859-1"?>
<!-- Generator: Adobe Illustrator 22.1.0, SVG Export Plug-In . SVG Version: 6.00 Build 0)  -->
<svg version="1.1" id="Layer_1" xmlns="http://www.w3.org/2000/svg" xmlns:xlink="http://www.w3.org/1999/xlink" x="0px" y="0px"
	 viewBox="0 0 22 22" style="enable-background:new 0 0 22 22;" xml:space="preserve">
<g>
	<path d="M17.139,20.73c-2.407-0.383-7.465-0.301-11.869,0.765c-1.394,0.328-1.53,0.302-2.843-0.273
		c-0.957-0.438-0.984-0.738-0.191-0.793c1.832-0.082,4.731-0.383,7.33-0.711l0.109-5.223c-2.955,0.439-3.364,0.439-3.939,0.082
		c-0.465-0.301-0.41-0.464,0.165-0.547c0.71-0.082,2.298-0.438,3.774-0.793c0.027-2.625-0.029-4.02-0.247-4.649
		C8.059,8.78,6.719,8.862,6.091,8.698c-1.013-0.273-0.984-0.71-0.356-0.793c1.806-0.246,4.213-0.82,7.383-1.832
		c0.848-0.273,2.681-0.191,3.255,0.274c0.545,0.438,0.545,0.847-0.795,1.066c-1.147,0.191-2.051,0.355-4.976,0.956
		c1.231,0.602,1.34,1.231,0.931,1.942c-0.165,0.274-0.301,1.231-0.383,2.571c0.574-0.164,1.066-0.273,1.311-0.355
		c1.122-0.383,2.024-0.328,2.79,0.137c0.574,0.328,0.383,0.766-0.274,0.902c-0.766,0.165-2.051,0.411-3.883,0.684l-0.136,5.278
		c2.133-0.274,3.936-0.547,4.676-0.711c1.394-0.301,2.543-0.027,3.5,0.766C20.173,20.429,19.764,21.167,17.139,20.73z"/>
</g>
</svg>
