<?xml version="1.0" encoding="iso-8859-1"?>
<!-- Generator: Adobe Illustrator 22.1.0, SVG Export Plug-In . SVG Version: 6.00 Build 0)  -->
<svg version="1.1" id="Layer_1" xmlns="http://www.w3.org/2000/svg" xmlns:xlink="http://www.w3.org/1999/xlink" x="0px" y="0px"
	 viewBox="0 0 22 22" style="enable-background:new 0 0 22 22;" xml:space="preserve">
<g>
	<path d="M10.112,4.896c0.917-0.193,1.592-0.386,2.171-0.603c0.845-0.265,1.834-0.241,2.197-0.048
		c0.579,0.338,0.458,0.579-0.386,0.868c-1.013,0.338-2.317,0.628-3.982,0.941c0,0.531,0,1.134,0.024,1.81
		c0.507-0.121,0.965-0.217,1.182-0.289c0.58-0.193,1.594-0.169,1.858,0c0.459,0.265,0.338,0.651-0.096,0.796
		c-0.555,0.193-1.762,0.483-2.92,0.7c0,0.627,0,1.254,0,1.834c2.92-0.483,3.644-0.604,3.837-0.7
		c0.337-0.145,0.844-0.096,1.641,0.338c1.254,0.676,1.278,0.845,0.893,1.4c-0.386,0.531-0.483,0.845-0.628,2.027
		c-0.217,1.52-0.627,2.486-1.254,3.113c-0.627,0.603-0.869,0.603-1.352-0.048c-0.289-0.41-0.723-0.941-1.182-1.352
		c-0.435-0.386-0.266-0.531,0.072-0.459c1.568,0.386,1.81,0.29,2.171-0.893c0.218-0.748,0.29-1.182,0.314-2.002
		c0.024-0.917-0.048-1.039-1.11-1.039c-0.483,0-1.907,0.17-3.403,0.387c0.024,2.002,0.048,3.716,0.024,4.511
		c-0.048,1.979-0.289,4.295-0.386,4.705c-0.362,1.641-0.917,1.641-0.941-0.024c-0.024-1.254,0.048-2.51,0.121-8.976
		c-1.038,0.144-1.955,0.313-2.365,0.459c-1.304,0.409-1.617,0.459-2.003,0.193c-0.772-0.531-0.772-0.7,0.169-0.797
		c0.941-0.12,1.786-0.241,4.199-0.651c0-0.603,0-1.206,0-1.81c-1.134,0.145-2.003,0.121-2.365,0
		C5.817,8.998,5.865,8.733,6.492,8.637C7.071,8.54,8.037,8.347,8.978,8.13c-0.024-0.7-0.024-1.351-0.024-1.906
		C7.82,6.368,6.323,6.441,5.913,6.272C5.334,6.007,5.31,5.838,5.962,5.717c1.183-0.193,2.123-0.386,2.944-0.555"/>
</g>
</svg>
