<?xml version="1.0" encoding="iso-8859-1"?>
<!-- Generator: Adobe Illustrator 22.1.0, SVG Export Plug-In . SVG Version: 6.00 Build 0)  -->
<svg version="1.1" id="Layer_1" xmlns="http://www.w3.org/2000/svg" xmlns:xlink="http://www.w3.org/1999/xlink" x="0px" y="0px"
	 viewBox="0 0 22 22" style="enable-background:new 0 0 22 22;" xml:space="preserve">
<g>
	<path d="M19.181,21.086c-1.484,0.22-1.909,0.275-2.811,0.302c-1.829,0.054-2.095-0.137-3.341-1.647
		c-0.662-0.795-1.59-1.92-2.704-3.292c-1.272,1.729-4.295,3.705-6.813,4.253C2.479,20.894,2.399,20.51,3.3,20.099
		c2.545-1.152,5.09-2.991,6.204-4.775c-1.962-2.47-2.705-3.292-3.182-3.567c-1.246-0.604-1.272-0.933-0.345-0.933
		c1.061,0,1.67,0.467,2.386,1.482c0.584,0.796,1.14,1.509,1.591,2.031c1.007-2.552,1.351-5.022,0.795-6.119
		C9.504,8.492,8.311,8.766,7.489,9.041C6.614,9.315,5.978,9.342,5.528,9.178C4.679,8.794,4.679,8.547,5.607,8.383
		c1.008-0.192,4.878-1.207,7.556-2.113C14.196,5.885,15.416,5.775,16,5.968c1.272,0.466,1.139,1.125-1.193,1.454
		c-1.114,0.192-2.254,0.411-3.367,0.659c1.883,0.878,1.962,1.152,1.351,2.03c-0.239,0.329-0.609,1.536-0.742,2.112
		c-0.265,1.042-0.662,2.25-1.113,3.211c3.578,3.375,4.692,3.896,8.271,4.911C19.976,20.565,20.029,20.976,19.181,21.086z"/>
</g>
</svg>
