<?xml version="1.0" encoding="utf-8"?>
<!-- Generator: Adobe Illustrator 22.1.0, SVG Export Plug-In . SVG Version: 6.00 Build 0)  -->
<svg version="1.1" id="Layer_1" xmlns="http://www.w3.org/2000/svg" xmlns:xlink="http://www.w3.org/1999/xlink" x="0px" y="0px"
	 viewBox="0 0 22 22" style="enable-background:new 0 0 22 22;" xml:space="preserve">
<g>
	<path d="M-23.2,6.7c1.2,0.8,1.1,1.1,0.9,2.2c-0.1,0.3-0.2,1.6-0.3,2.4c1.5-0.3,2.9-0.3,3.2-0.5c1.2-0.5,1.4-0.5,2.3,0.1
		c1.2,0.8,1.3,1,0.8,1.5c-0.3,0.4-0.5,1.2-0.4,4.1c0,1.8-0.3,3.1-1.2,4.3c-0.4,0.6-0.7,0.6-1,0c-0.2-0.4-1.5-1.7-1.8-2
		c-0.5-0.4-0.3-0.6,0.2-0.5c1.9,0.4,2.1,0.4,2.5-1.4c0.2-0.8,0.2-2.8,0.1-4.3c-0.1-0.8-0.3-1-1.1-1c-1,0-2.7,0.1-3.7,0.3
		c-0.1,0.5-0.3,1.1-0.4,1.6c2.6,0.3,3,0.7,3.5,2c0.2,0.6-0.1,1.1-0.9,0.7c-0.3-0.2-0.6-0.5-1.1-0.9c-0.4-0.5-1.1-1-1.6-1.3
		c-0.6,1.6-1.5,2.8-2.9,3.6c-0.7,0.4-0.8,0.1-0.4-0.3c1.1-0.9,2.1-3.1,2.6-5.1c-1,0.1-2.5,0.3-3.5,0.4c0.2,1.6,0.3,4.5,0.2,5.5
		c0,0.5-0.2,1.2-0.3,1.5c-0.3,0.7-0.6,0.6-0.9-0.2c-0.3-0.6-0.3-1,0-1.9c0.3-1.2,0.2-4.2-0.3-5c-0.5-0.7-0.4-1.1,1-0.6
		c0.7,0.1,1.4,0.2,4-0.4c0.2-1.8,0.1-3.7-0.2-4.7"/>
</g>
<g>
	<path d="M16.1,17.1c0,1.8-0.3,3.1-1.2,4.3c-0.4,0.6-0.7,0.6-1,0c-0.2-0.4-1.4-1.7-1.8-2c-0.5-0.4-0.3-0.6,0.2-0.5
		c1.9,0.4,2.1,0.4,2.5-1.4c0.2-0.8,0.2-2.8,0.1-4.3c-0.1-0.8-0.3-1-1.1-1c-1,0-2.7,0.1-3.7,0.3c-0.1,0.5-0.3,1.1-0.4,1.6
		c2.6,0.3,3,0.7,3.5,2c0.2,0.6-0.1,1.1-0.9,0.7c-0.3-0.2-0.6-0.5-1.1-0.9c-0.4-0.5-1.1-1-1.6-1.3c-0.6,1.6-1.5,2.8-2.9,3.6
		c-0.7,0.4-0.8,0.1-0.4-0.3c1.1-0.9,2.1-3.1,2.6-5.1c-1,0.1-2.5,0.3-3.5,0.4c0.2,1.6,0.3,4.5,0.2,5.5c0,0.5-0.2,1.2-0.3,1.5
		c-0.3,0.7-0.6,0.6-0.9-0.2c-0.3-0.6-0.3-1,0-1.9c0.3-1.2,0.2-4.2-0.3-5c-0.5-0.7-0.4-1.1,1-0.6c0.7,0.1,1.4,0,4-0.4
		C9.1,11,9,9.9,8.7,9.2c-0.4,0-0.7,0-0.9,0c0,0.5-0.2,0.6-0.4,0.7c-0.3,0-0.4-0.1-0.7-1.5c-0.5-1.7-0.9-2.8-1.2-3
		C4.8,5,5.1,4.5,6.7,4.9c1.4,0,3.8-0.5,4.8-1c0.8-0.5,1.1-0.5,2.2,0.1C15,4.7,15,5,14.2,5.6c-0.5,0.4-0.9,1-1.2,1.6
		c-0.2,0.3-0.1,0.6,0.2,0.8c0.4,0.2,0.3,0.6-0.3,0.7C11.6,8.9,10.4,9,9.6,9.1c1.2,0.5,1.1,0.7,0.9,1.4c-0.1,0.2-0.2,1-0.3,1.5
		c1.5-0.2,2.9-0.5,3.2-0.6c1.2-0.5,1.4-0.5,2.3,0.1c1.2,0.8,1.3,1,0.8,1.5C16.2,13.4,16,14.2,16.1,17.1z M11.5,4.9
		c-0.7,0-1.7,0.2-2.1,0.3c-1,0.2-1.5,0.3-2.1,0.4c0.2,1,0.4,2.1,0.4,3c1-0.1,2.6-0.4,3.4-0.6c0.4-0.1,0.7-0.4,0.9-1.7
		C12.2,5,12.1,4.9,11.5,4.9z"/>
</g>
<g>
	<path d="M-19.9,7c-0.6,0.3-2.3,0.7-3.4,0.9c-1.9,0.4-2.3,0.4-3.2,0c-0.6-0.3-0.5-0.5,0.2-0.6c1.4-0.2,2.5-0.5,3.6-0.9
		c0.8-0.3,2.2-0.5,2.8-0.2C-19.4,6.5-19.5,6.9-19.9,7z"/>
</g>
<g>
	<path d="M38.3,16.3c-0.9,1.7-1,1.8-0.6,2c0.7,0.4,0.8,0.8-0.4,0.9c-0.6,0.1-3.1,0.3-6,0.5c0,0.6-0.2,1-0.4,1
		c-0.4,0.1-0.6-0.2-0.8-1.8c-0.1-1.5-0.3-2.7-0.4-3.5c-1,1.1-2.1,2.1-3.5,3c-0.9,0.6-1.1,0.3-0.3-0.5c1.2-1.1,3.3-3.5,4.4-5.6
		c1.3-2.4,1.6-3.2,1.6-4c-1.1,0.2-2.1,0.2-2.7,0c-1.1-0.3-1.1-0.8,0.3-0.9c1.1-0.1,5.1-1.2,6.1-1.6c1.1-0.4,1.9-0.6,2.7,0
		c0.6,0.5,0.5,0.9-1.6,1.3c-0.6,0.1-1.8,0.4-3.7,0.9c0.8,0.6,0.8,1,0.4,1.4c-0.2,0.2-0.5,0.7-1.3,2.1c-0.5,0.9-1,1.7-1.6,2.5
		l0.2,0.1c1.6-0.2,4.5-0.7,5.2-1.1c0.5-0.3,0.7-0.3,1.9,0.3c1.7,0.8,1.7,1,1.1,1.6C39,15.3,38.6,15.8,38.3,16.3z M36,14.5
		c-0.4-0.1-3.4,0.3-4.9,0.5c0.1,1.1,0.1,2.4,0.2,4c2.4-0.3,3.3-0.5,3.8-0.6c0.9-0.2,1.2-0.9,1.4-2.3C36.7,14.7,36.6,14.5,36,14.5z"
		/>
</g>
</svg>
