<?xml version="1.0" encoding="iso-8859-1"?>
<!-- Generator: Adobe Illustrator 22.1.0, SVG Export Plug-In . SVG Version: 6.00 Build 0)  -->
<svg version="1.1" xmlns="http://www.w3.org/2000/svg" xmlns:xlink="http://www.w3.org/1999/xlink" x="0px" y="0px"
	 viewBox="0 0 22 22" style="enable-background:new 0 0 22 22;" xml:space="preserve">
<g id="Layer_1">
	<path d="M12.422,4.908c-0.195-0.056-1.338-0.835-2.061-1.587C9.944,2.847,9.999,2.652,10.64,2.625
		c2.061-0.084,2.841,0.64,2.811,1.448C13.424,4.768,13.118,5.13,12.422,4.908z"/>
	<path d="M7.162,9.997c0.159-0.44,0.914,0.008,1.376-0.167c0.234-0.088,2.585-1.042,2.96-1.334c0.375-0.292,0.334-1.126,1.251-1.001
		c0.917,0.125,1.001,0.625,1.001,1.251s0.125,2.501-1.543,5.753s-3.208,4.756-3.752,5.044c-0.444,0.235-1.126,0.25-0.208-0.792
		s2.585-3.419,3.377-5.586s0.542-3.71,0.375-3.669c-0.167,0.042-2.464,1.369-3.293,1.459C7.685,11.067,6.961,10.551,7.162,9.997z"/>
</g>
<g id="&#x56FE;&#x5C42;_2">
</g>
</svg>
