<?xml version="1.0" encoding="iso-8859-1"?>
<!-- Generator: Adobe Illustrator 22.1.0, SVG Export Plug-In . SVG Version: 6.00 Build 0)  -->
<svg version="1.1" id="Layer_1" xmlns="http://www.w3.org/2000/svg" xmlns:xlink="http://www.w3.org/1999/xlink" x="0px" y="0px"
	 viewBox="0 0 22 22" style="enable-background:new 0 0 22 22;" xml:space="preserve">
<text transform="matrix(1 0 0 1 -28.125 19.0896)" style="font-family:'AdobeKaitiStd-Regular-GBpc-EUC-H'; font-size:22.4718px;">&#x5915;</text>
<g>
	<path d="M12.712,15.63c-0.292-0.292-1.82-2.338-2.562-3.349c-0.854,2.697-2.742,5.214-4.811,6.091
		c-0.427,0.18-0.517,0.022-0.067-0.36c2.046-1.888,3.012-3.596,3.956-6.652c0.719-2.27,0.899-4.81,0.382-5.462
		c-0.494-0.607-0.157-1.079,0.742-0.652c1.528,0.764,1.618,1.102,1.281,1.618c-0.136,0.225-0.315,0.877-0.405,1.416
		c-0.225,1.057-0.494,2-0.943,3.551c2.404,1.102,3.416,2.068,3.528,3.259C13.881,15.877,13.364,16.281,12.712,15.63z"/>
</g>
</svg>
