<?xml version="1.0" encoding="iso-8859-1"?>
<!-- Generator: Adobe Illustrator 22.1.0, SVG Export Plug-In . SVG Version: 6.00 Build 0)  -->
<svg version="1.1" id="Layer_1" xmlns="http://www.w3.org/2000/svg" xmlns:xlink="http://www.w3.org/1999/xlink" x="0px" y="0px"
	 viewBox="0 0 22 22" style="enable-background:new 0 0 22 22;" xml:space="preserve">
<g>
	<path d="M12.972,6.39c0.025,1.759-0.251,4.423-0.402,5.504c-0.502,3.618-1.733,6.408-4.875,8.092c-0.553,0.327-0.729,0-0.302-0.377
		c2.815-2.538,3.82-5.654,4.071-8.344c0.377-3.996,0.151-6.71-0.578-7.765c-0.502-0.754-0.075-1.005,1.081-0.402
		c1.332,0.679,1.356,0.854,1.181,1.332C13.022,4.732,12.972,5.636,12.972,6.39z M9.026,11.895c-0.653,1.03-1.307,0.829-1.382-0.302
		c-0.05-0.628-0.05-0.805,0.352-1.332c0.327-0.478,0.653-1.156,0.829-2.162c0.125-0.729,0.377-0.854,0.704-0.075
		C10.006,9.155,9.654,10.914,9.026,11.895z"/>
</g>
</svg>
