<?xml version="1.0" encoding="utf-8"?>
<!-- Generator: Adobe Illustrator 22.1.0, SVG Export Plug-In . SVG Version: 6.00 Build 0)  -->
<svg version="1.1" id="Layer_1" xmlns="http://www.w3.org/2000/svg" xmlns:xlink="http://www.w3.org/1999/xlink" x="0px" y="0px"
	 viewBox="0 0 22 22" style="enable-background:new 0 0 22 22;" xml:space="preserve">
<style type="text/css">
	.st0{enable-background:new    ;}
</style>
<g>
	<path d="M59.3,5.6c-1.8,0.8-2.5,0.9-3.8,0.5V10c2-0.7,2.4-0.8,2.8-0.4c0.7,0.6,0.5,0.8-0.2,0.8c-0.3,0-1.6,0.3-3.5,0.8
		c0.8,0.6,1.1,1,0.9,1.6c-0.1,0.3,0,3.6,0,5c0,1.7-0.1,2.2-0.8,3.3c-0.4,0.6-0.7,0.5-1-0.3c-0.2-0.5-0.6-1.5-1.1-2.2
		c-0.3-0.5-0.2-0.7,0.4-0.5c1.1,0.5,1.2,0.4,1.3-0.4c0.1-0.8,0.2-2.5,0.1-4.3c0-1.1-0.1-1.7-0.5-2.2c-1,0.3-2.1,0.7-3.6,1.4
		c-0.5,0.2-0.9,0.1-1.2-0.2c-0.7-0.7-0.6-0.9,0.1-1c1.1-0.2,3.8-0.8,5.2-1.2c0-6.7-0.1-7.5-0.8-8.7c-0.5-0.9-0.4-1.1,0.9-0.7
		c1.4,0.5,1.6,0.9,1.2,1.8c-0.1,0.3-0.3,1.9-0.3,2.9c0.7-0.1,1.1-0.2,1.6-0.6c1-0.7,1.8-0.7,2.2-0.5C60.2,4.8,60.1,5.3,59.3,5.6z
		 M50.6,18.9c-0.3,0.3-0.7,0.2-0.8-0.2C49.6,18,49.7,17.6,50,17c0.4-0.7,0.9-1.9,1-2.6c0.1-0.3,0.3-0.4,0.5,0
		c0.3,0.7,0.4,1.1,0.2,2.2C51.5,17.3,51,18.4,50.6,18.9z M57.8,16.1c-0.3-0.3-0.9-1.2-1.3-2c-0.3-0.6-0.1-0.8,0.4-0.6
		c1.5,0.4,1.8,1,1.9,1.9C59,16.5,58.4,16.8,57.8,16.1z M69,20c-0.9,0.2-2.1,0.3-2.8,0.3c-1.1,0-1.4,0-2.2-1.4
		c-0.5-0.9-1.1-1.8-1.5-2.7c-1.2,1.4-3.5,2.8-4.8,2.8c-0.5,0-0.6-0.2,0-0.5c1.5-0.7,3.2-2.1,4.1-3.4c-0.4-0.9-0.9-1.7-1.3-2.5
		c-0.4-0.8-0.9-1.6-1.2-1.9c-0.4-0.4-0.2-0.7,0.2-0.5c0.9,0.3,1.2,0.7,1.6,1.7c0.3,0.7,0.7,1.7,1.1,2.4c0.5-1.3,1.2-4,1.3-5.3
		c0.1-0.9-0.5-1-2.3-0.2c-0.8,0.4-1.3,0.4-1.8,0.2c-0.7-0.3-0.6-0.6,0.2-0.7c0.9-0.1,2.4-0.8,3.4-1.5c0.6-0.4,0.9-0.4,1.8,0.2
		c1.2,0.8,1.2,1.1,0.7,1.6C65.4,8.8,65.3,9.1,65,10c-0.7,2.3-1.3,4.1-1.9,5.1c1.9,2.4,2.7,3,6,4.2C69.7,19.6,69.7,19.9,69,20z"/>
	<path d="M78.7,16c-2.6,2.8-4.2,3.7-6,4.4c-0.5,0.2-0.5-0.1-0.1-0.4c1.3-0.9,3.1-2.5,4.1-3.8c1-1.3,1.2-2.1,1.1-2.4
		c-0.1-0.4,0.3-0.6,1-0.2c1.4,0.9,1.6,1.1,0.8,1.6C79.5,15.2,79.3,15.3,78.7,16z M85.6,8.4c-0.1,0.3-0.2,0.6,0.1,0.8
		c0.4,0.3,0.4,0.7-0.2,0.8c-1.3,0.2-4.6,0.8-6.5,1c-0.1,1-0.7,0.7-0.9-0.4c-0.8-4.1-1.1-4.8-1.7-5.4c-0.7-0.8-0.4-1.5,1.5-0.6
		c1.6,0.1,5.5-0.9,6.7-1.4c0.6-0.2,0.9-0.2,2.2,0.5c1.4,0.8,1.4,1.2,0.8,1.7C87,5.8,86.4,6.5,85.6,8.4z M82,4.7
		c-2.3,0.5-3.1,0.6-3.6,0.7c0.2,1.3,0.4,3.3,0.6,4.9c1.3-0.2,3.5-0.6,4.6-0.9c0.6-0.2,0.9-0.6,1.3-4.1C85,4.4,84.5,4.1,82,4.7z
		 M88.1,19.4c-1.6-2.1-3.3-4.3-4.6-6.1c-0.3-0.4-0.2-0.7,0.3-0.4c5,2.8,5.2,3.3,5.5,5.3C89.4,19.7,88.7,20.2,88.1,19.4z"/>
	<path d="M111.9,5c-2-0.1-4.2,0.1-7.9,0.6c-0.5,1.1-1.1,2.2-1.7,3.3c0.1,0,0.2,0.1,0.3,0.2c1.4-0.2,3-0.6,4.1-1
		c0.6-0.3,0.9-0.3,1.8,0.2c0.9,0.5,1.1,0.7,0.8,1.4c-0.2,0.5-0.3,1.1-0.2,2.4c0.1,2,0.4,5.5,0.4,6.5c0.1,1.5-0.2,2.7-0.8,3.6
		c-0.6,0.9-0.9,0.9-1.2,0.2c-0.3-0.7-0.9-1.8-1.3-2.3c-0.5-0.6-0.4-0.8,0.2-0.6c1.3,0.5,1.5,0.3,1.6-0.4c0.2-1.5,0.1-7.7-0.5-9.5
		c-0.2-0.5-1-0.6-2-0.4c-1.3,0.4-1.8,0.5-2.6,0.5c0,0.8,0,1.6,0,2.5c1.2-0.2,1.9-0.4,2.3-0.6c0.4-0.1,0.8-0.1,1,0
		c0.8,0.2,0.7,0.8,0,0.9c-1.1,0.3-2.3,0.4-3.4,0.2c0,0.9-0.1,1.8-0.1,2.7c1.2-0.2,2-0.4,2.5-0.5c0.6-0.2,0.9-0.2,1.1-0.1
		c0.8,0.2,0.7,0.7,0,1c-1.2,0.4-2.6,0.4-3.6,0.2c-0.1,1.4-0.3,2.6-0.4,3.2c-0.6,2.1-1.1,2.4-1.4,1.5c-0.2-0.6-0.3-1.2,0-2
		c0.8-2,0.9-4.6,1-7.1c0-0.9,0-1.5-0.1-1.9c-2.2,3.4-4.8,5.8-6.9,6.9c-0.7,0.3-0.9,0-0.1-0.6c3.3-2.7,6.3-6.6,7.8-10.3
		c-2.7,0.4-3.7,0.6-4.3,0.7c-1.2,0.4-1.6,0.2-2.4-0.3c-0.6-0.4-0.6-0.6,0.2-0.6c0.3,0,1.6-0.1,3.1-0.3c1.4-0.2,2.7-0.3,3.8-0.5
		c0.8-2.4,0.9-3.6,0.6-4.1c-0.4-0.8-0.1-1.1,1.1-0.5c1.2,0.6,1.6,1,1.1,1.5c-0.3,0.3-0.6,1.1-1.4,2.9c1.8-0.3,3.5-0.5,5.7-1
		c2.1-0.4,2.4-0.4,3.6,0.2C114.7,4.4,114.3,5.2,111.9,5z"/>
	<path d="M123.8,8.7c-0.3,0.7-0.3,1.1-0.2,1.3c0.3,0.4,0.1,0.7-0.2,0.8c-0.7,0.2-1.5,0.3-3.1,0.4c0.1,1.7-0.1,2.1-0.5,2.1
		c-0.3,0-0.5-0.3-0.5-1.5c-0.1-2.7-0.4-4.7-1-5.6c-0.5-0.7-0.2-1,1.1-0.3c0.8,0.1,1.5-0.2,2.7-0.7c0.6-0.3,0.9-0.3,1.8,0.2
		c1.3,0.7,1.3,0.9,0.6,1.6C124.5,7.1,124.2,7.8,123.8,8.7z M132.8,5.8c-0.3,0.4-0.3,0.8,0,1c0.5,0.3,0.4,0.6-0.2,0.7
		c-0.2,0-1.8,0.4-2.7,0.7c-1.2,0.4-1.6,0.4-2.4,0.3c-0.3,1.7-0.8,3.3-1.1,4.3c-1.1,3.2-2.8,5.4-5.5,7.1c-0.8,0.6-1.2,0.3-0.3-0.5
		c2.4-2,4-4.6,4.9-7c1.1-3.2,1.6-7.9,1.2-8.5c-0.4-0.6,0-0.9,1.2-0.3c1.6-0.1,3.4-0.7,4.2-1.4c0.5-0.5,0.6-0.5,1.7,0.2
		c1.4,0.8,1.5,1.2,0.8,1.6C134,4.1,133.7,4.4,132.8,5.8z M121.7,6.2c-0.7,0.2-1.1,0.2-1.5,0.3c0.1,1.1,0.2,2.6,0.3,4.1
		c1.9-0.4,2-0.5,2.1-1c0.2-0.7,0.4-1.9,0.4-2.7C122.9,6.1,122.8,5.9,121.7,6.2z M131.2,3.5c-1.6,0.5-2.1,0.6-3,0.6
		c-0.1,1-0.3,2.3-0.5,3.7c0.9-0.1,1.6-0.3,3.1-0.8c0.7-0.3,0.8-0.4,1.3-2.6C132.2,3.4,132,3.2,131.2,3.5z M136.4,19.9
		c-1.7,0.6-3.5,0.7-5.1,0.4c-1.6-0.4-2.9-1.8-2.8-4.2c0.2-3.5,0.2-4.8-0.1-5.4c-0.4-0.8-0.1-1,0.8-0.5c1.1,0.6,0.9,0.7,0.7,1.7
		c-0.2,0.8-0.3,1.8-0.4,2.7c1.7-1.3,3.5-3.4,3.5-3.9c0-0.5,0.3-0.7,1.3-0.2c1.2,0.7,1.2,1,0.3,1.2c-0.2,0.1-1.1,0.6-5.2,3.4
		c0,0.7,0,1.4,0,1.9c0.2,1.4,0.7,1.8,2.3,2.1c0.9,0.2,2.2,0,3.1-0.3c1.3-0.5,1.5-0.9,2.2-3.1c0.4-1.4,0.6-1.5,0.6,0
		c0,0.9,0.2,2,0.4,2.5C138.3,18.6,138.1,19.2,136.4,19.9z"/>
</g>
<path d="M32,9.1c-0.3,0.8-0.3,1.3-0.2,1.4c0.3,0.5,0.2,0.8-0.2,0.9c-0.8,0.2-1.8,0.3-3.5,0.5c0,0.9-0.1,1.1-0.5,1.1
	c-0.3,0-0.5-0.2-0.6-1c-0.1-1.8-0.4-4.8-1.2-5.8c-0.5-0.7-0.2-1.1,1.3-0.3c0.9,0.1,1.8-0.2,3.1-0.8c0.7-0.4,1-0.3,2.1,0.3
	c1.5,0.8,1.5,1,0.7,1.8C32.8,7.3,32.4,8,32,9.1z M29.6,6.2c-0.8,0.2-1.2,0.3-1.8,0.3c0.1,1.3,0.2,2.9,0.3,4.7
	c2.1-0.5,2.3-0.6,2.4-1.1c0.2-0.8,0.4-2.2,0.4-3C31,6.1,30.9,5.9,29.6,6.2z"/>
<path d="M-10.2,17.6c-0.3,0.3-0.7,0.2-0.8-0.2c-0.1-0.7-0.1-1.1,0.2-1.7c0.4-0.7,0.9-1.9,1-2.6c0.1-0.3,0.3-0.4,0.5,0
	c0.3,0.7,0.4,1.1,0.2,2.2C-9.3,16.1-9.8,17.2-10.2,17.6z"/>
<path d="M31,16c-0.3-0.3-1-1.3-1.4-2.1c-0.3-0.6-0.1-0.8,0.5-0.6c1.6,0.5,1.9,1,2,2.1C32.3,16.3,31.6,16.7,31,16z"/>
<text transform="matrix(1 0 0 1 61.9157 16.0049)" style="font-family:'AdobeKaitiStd-Regular-GBpc-EUC-H'; font-size:18.9184px;">å…</text>
<path d="M26.4,18.9c-0.3,0.3-0.8,0.2-0.9-0.2c-0.2-0.7-0.1-1.2,0.2-1.9c0.4-0.8,1-2.1,1.1-2.9c0.1-0.3,0.4-0.4,0.6,0
	c0.3,0.8,0.4,1.2,0.2,2.5C27.5,17.2,26.9,18.4,26.4,18.9z"/>
<g>
	<path d="M-21.9,16.1c0.4-0.6,0.6-1.3,0.8-2.2c0.3-1.4,0.2-1.5-0.4-1.5c-0.4,0-1.3,0.3-1.6,0.5c-0.6,0.4-0.9,0.4-1.1,0
		c-0.2-0.4-0.1-0.8,0.5-1.2c0.5-0.3,1-1.1,2.1-3.8c0.2-0.6,0.1-0.7-1.4-0.1C-24,8.3-24.4,8.3-25,8c-1.3-0.6-1.3-0.8,0-0.9
		c0.8,0,2.5-0.5,3.2-1c0.7-0.6,1.1-0.6,2.3,0.1c1.1,0.7,1.2,0.9,0.4,1.4c-0.4,0.2-1.5,1.3-3,3.7c-0.5,0.7-0.4,0.8,0.4,0.5
		c1-0.3,1.3-0.3,2.1,0c1.3,0.6,1.4,0.9,0.7,1.5c-0.3,0.3-0.4,0.5-0.9,1.7c-0.3,0.7-0.5,1.2-0.8,1.7l-0.6,0.8
		c-1.5,1.8-4.4,3.6-6.2,3.9c-1.2,0.2-1.2,0,0.6-0.9c1.6-0.8,3.5-2.2,4.5-3.6"/>
</g>
<path d="M-22.7,4C-24,4.1-24.6,4-25,3.8c-0.4-0.2-0.4-0.4,0-0.5c0.6-0.2,1.9-0.6,2.2-0.8c1-0.5,1.8-0.5,2.2-0.3
	c0.5,0.2,0.6,0.6,0.2,0.8C-20.7,3.4-22.2,3.9-22.7,4z"/>
<path d="M13.8,16.5c-0.2-1-0.3-1.4-1.7-2.3c0.2-0.4,0.4-0.9,0.6-1.4c0.4-1.2,0.5-1.4,0.7-1.7c0.6-0.6,0.5-0.9-0.6-1.4
	c-0.6-0.3-0.9-0.3-1.7,0c-0.7,0.3-0.8,0.2-0.4-0.5c1.3-2.3,2.1-3.3,2.5-3.5c0.7-0.4,0.6-0.7-0.3-1.3c-0.9-0.7-1.3-0.6-1.9-0.1
	c-0.6,0.5-2,0.9-2.6,1c-1.1,0-1.1,0.3,0,0.8C9,6.3,9.3,6.3,10,5.9c1.2-0.6,1.3-0.6,1.1,0c-0.9,2.6-1.3,3.3-1.7,3.7
	C9,10,8.9,10.4,9.1,10.8c0.2,0.3,0.5,0.4,0.9,0c0.2-0.2,1-0.4,1.3-0.5c0.6,0,0.6,0.1,0.4,1.4c-0.1,0.7-0.3,1.4-0.6,1.9
	c-0.4-0.2-0.9-0.5-1.4-0.7c-0.4-0.2-0.5,0-0.2,0.3c0.3,0.4,0.7,0.9,1.1,1.4l0,0.1c-0.8,1.4-2.4,2.7-3.7,3.5c-1.5,0.9-1.4,1-0.5,0.8
	c1.5-0.3,3.6-1.8,4.9-3.5c0.5,0.7,1.1,1.3,1.7,2C13.4,17.9,14,17.5,13.8,16.5z"/>
</svg>
