<?xml version="1.0" encoding="iso-8859-1"?>
<!-- Generator: Adobe Illustrator 22.1.0, SVG Export Plug-In . SVG Version: 6.00 Build 0)  -->
<svg version="1.1" id="Layer_1" xmlns="http://www.w3.org/2000/svg" xmlns:xlink="http://www.w3.org/1999/xlink" x="0px" y="0px"
	 viewBox="0 0 22 22" style="enable-background:new 0 0 22 22;" xml:space="preserve">
<g>
	<path d="M17.155,20.511c-1.032,0.491-2.752,0.859-4.004,0.737c-3.318-0.344-3.882-1.523-3.882-4.028
		c0-1.474,0.049-2.679,0.123-3.416c0.098-0.884,0.123-2.358-0.221-2.703c-0.663,0.148-1.424,0.344-2.333,0.565
		c1.278,0.835,1.253,0.958,0.884,1.548c-0.098,0.172-0.319,0.811-0.393,1.056c-1.13,3.809-3.587,6.339-6.314,7.174
		c-0.835,0.246-1.032,0.074-0.098-0.466c2.039-1.204,3.685-2.973,4.889-5.675c0.516-1.229,0.958-3.071,0.565-3.513
		c-0.393,0.049-0.884,0.074-1.228,0c-0.958-0.221-1.106-0.516,0.492-0.835c0.958-0.196,4.986-1.154,5.87-1.474
		c1.229-0.466,1.622-0.466,2.605-0.196c0.787,0.246,1.008,0.933-0.786,1.13c-1.351,0.147-2.236,0.27-3.637,0.565
		c1.253,1.106,1.302,1.302,1.032,1.99c-0.417,0.983-0.589,3.047-0.54,4.619c0.049,1.769,0.859,2.309,2.849,2.186
		c2.629-0.172,3.244-0.614,3.735-3.562c0.147-0.885,0.319-0.909,0.417-0.221c0.221,1.499,0.417,2.432,0.589,2.899
		C18.064,19.724,18.015,20.117,17.155,20.511z M11.947,6.236c-3.758,1.155-4.201,1.155-4.913,0.86
		C6.198,6.728,6.149,6.408,7.255,6.261c0.491-0.074,1.449-0.344,2.284-0.639c2.04-0.687,2.285-0.712,2.948-0.516
		C13.249,5.327,13.101,5.893,11.947,6.236z"/>
</g>
</svg>
