<?xml version="1.0" encoding="iso-8859-1"?>
<!-- Generator: Adobe Illustrator 22.1.0, SVG Export Plug-In . SVG Version: 6.00 Build 0)  -->
<svg version="1.1" id="Layer_1" xmlns="http://www.w3.org/2000/svg" xmlns:xlink="http://www.w3.org/1999/xlink" x="0px" y="0px"
	 viewBox="0 0 22 22" style="enable-background:new 0 0 22 22;" xml:space="preserve">
<g>
	<path d="M17.058,13.558c-1.195-0.092-2.894-0.062-4.779,0.061c-0.955,0.061-3.318,0.305-5.255,0.58
		c-0.027,1.835-0.133,3.609-0.212,4.313c1.38-0.123,3.875-0.428,4.937-0.611c2.495-0.398,2.947-0.306,3.611,0.152
		c1.061,0.703,0.611,1.652-0.372,1.56c-2.309-0.214-4.593-0.183-6.584,0.061c-1.353,0.153-1.672,0.275-2.097,0.735
		c-0.478,0.489-0.849,0.397-1.248-0.398c-0.212-0.428-0.239-0.855,0.027-1.376c0.372-0.703,0.664-2.079,0.716-4.251
		c-0.558,0.091-1.008,0.183-1.3,0.275c-0.718,0.183-0.903,0.153-1.407-0.306c-0.452-0.458-0.531-0.886,0.292-0.947
		c0.716-0.061,1.54-0.153,2.442-0.245c-0.027-2.997-0.213-4.434-0.505-5.045C4.98,7.473,5.245,6.983,6.891,7.778
		c1.434,0,2.787-0.336,4.433-1.008c1.195-0.489,1.832-0.489,2.575-0.184c0.822,0.367,0.822,1.04-0.292,1.316
		c-0.452,0.091-2.231,0.458-3.822,0.733C8.484,8.848,7.687,8.879,6.971,8.726c0.106,0.825,0.133,2.537,0.08,4.282
		c2.707-0.306,5.494-0.703,6.291-0.857c2.309-0.459,3.079-0.459,4.008,0C18.969,12.916,18.518,13.68,17.058,13.558z"/>
</g>
<g>
	<path d="M42.519,9.397c0,0.79-0.025,1.682-0.05,2.65c1.4-0.917,1.68-0.994,1.834-0.841c0.127,0.128-0.178,0.535-1.834,1.936
		c0,1.63,0.077,4.382,0.102,5.171c0.05,1.91-0.052,3.082-0.765,4.025c-0.305,0.383-0.483,0.408-0.738-0.051
		c-0.357-0.663-1.4-1.91-1.834-2.395c-0.305-0.331-0.153-0.535,0.332-0.382c1.425,0.408,1.603,0.229,1.707-0.764
		c0.075-0.79,0.151-2.725,0.203-4.739c-2.294,1.936-3.006,2.65-3.439,3.184c-0.738,0.867-1.095,0.841-1.91,0.103
		c-0.867-0.79-0.944-1.121-0.027-1.274c0.714-0.153,1.759-0.764,5.426-3.311c0.027-0.994,0.027-2.064,0.077-3.083
		c-2.547,0.561-3.006,0.51-3.796,0.153c-0.714-0.306-0.662-0.535-0.077-0.637c1.325-0.255,2.624-0.586,3.897-0.994
		c0.104-3.948-0.228-5.477-0.711-6.089c-0.535-0.662-0.255-0.994,1.172-0.509c1.222,0.434,1.4,0.688,1.095,1.58
		c-0.129,0.331-0.384,1.961-0.587,4.739c1.147-0.306,1.529-0.332,2.039-0.178c0.535,0.152,0.535,0.738,0.102,0.943
		C44.303,8.837,43.539,9.117,42.519,9.397z M54.721,16.072c-0.203,1.12-0.228,1.248,0.332,1.706c0.662,0.51,0.483,1.096-0.409,1.121
		c-1.987,0.077-5.86,0.332-8.05,0.764c-1.043,0.204-1.655,0.152-2.24-0.382c-0.51-0.459-0.51-0.689,0.151-0.714
		c0.689-0.051,1.274-0.077,2.089-0.128c0.689-0.051,4.586-0.586,5.096-0.688c0.942-0.178,1.197-0.535,1.4-1.146
		c0.434-1.452,0.867-5.961,0.815-7.184c-0.025-0.994-0.23-1.121-1.35-1.044c-1.172,0.077-3.464,0.509-4.433,0.764
		c-0.637,0.178-1.323,0.152-1.858-0.178c-0.51-0.331-0.458-0.663,0.127-0.688c2.064-0.128,5.986-0.918,7.032-1.452
		c0.714-0.383,0.967-0.332,2.139,0.432c1.732,1.146,1.732,1.324,0.969,2.14C55.995,9.983,55.715,10.67,54.721,16.072z
		 M49.754,14.212c-1.96,0.254-2.624,0.178-3.387-0.229c-0.434-0.229-0.485-0.612,0.102-0.663c0.612-0.051,3.057-0.382,3.796-0.586
		c1.427-0.382,1.782-0.382,2.317-0.152c0.74,0.305,0.842,0.943,0.129,1.095C51.971,13.855,50.697,14.084,49.754,14.212z"/>
	<path d="M67.702,16.352c-3.184,2.089-4.381,2.955-4.611,3.184c-0.535,0.51-0.867,0.535-1.784-0.28c-0.738-0.663-0.61-1.095,0-1.121
		c0.969-0.051,1.605-0.229,3.644-1.223l0.075-4.407c-1.425,0.408-2.342,0.458-2.827,0.204c-0.508-0.255-0.585-0.484,0-0.612
		c0.56-0.128,1.962-0.586,2.854-0.968c0.05-3.337-0.129-5.146-0.714-6.267c-0.434-0.789-0.153-1.172,1.375-0.483
		c1.045,0.483,1.095,0.917,0.917,1.554c-0.102,0.306-0.228,2.344-0.332,4.636c0.639-0.229,1.276-0.357,1.529-0.331
		c0.944,0.051,1.045,0.56,0.255,1.018c-0.332,0.204-1.095,0.561-1.834,0.841l-0.129,4.203c1.759-0.892,2.269-0.994,2.396-0.866
		C68.67,15.587,68.569,15.766,67.702,16.352z M79.852,21.09c-1.529,0.382-3.897,0.509-5.783,0.177
		c-2.394-0.458-3.489-1.554-3.87-3.541c-0.153-0.815-0.23-2.47-0.153-3.897c-0.28,0.178-0.51,0.306-0.637,0.408
		c-0.664,0.458-1.122,0.586-1.605,0.357c-0.535-0.254-0.458-0.509,0.025-0.663c0.458-0.127,1.274-0.56,2.267-1.069
		c0.027-1.376-0.102-3.337-0.407-3.847c-0.409-0.688-0.23-0.917,0.585-0.56c1.147,0.458,1.325,0.994,1.172,1.578
		c-0.05,0.204-0.178,1.147-0.255,2.242c0.74-0.408,1.529-0.866,2.294-1.324c0.025-1.147,0.05-3.643,0-5.248
		c-0.052-1.961-0.307-2.981-0.664-3.465c-0.56-0.764-0.228-1.172,1.301-0.56c1.35,0.535,1.427,0.917,1.043,1.834
		c-0.102,0.255-0.458,4.943-0.458,5.63c0,0.357,0,0.712-0.025,1.044c1.427-0.866,2.497-1.58,2.572-1.732
		c0.307-0.586,0.637-0.689,1.759-0.178c1.095,0.483,1.145,0.917,0.738,1.324c-0.483,0.484-0.587,0.637-1.045,2.904
		c-0.483,2.318-0.738,3.031-1.4,3.745c-0.585,0.611-0.892,0.535-1.07-0.026c-0.102-0.357-0.637-1.529-0.714-1.63
		c-0.357-0.484-0.203-0.688,0.357-0.408c0.689,0.331,0.867,0.331,1.07-0.28c0.357-1.044,0.535-2.293,0.612-3.77
		c0.025-0.383-0.23-0.434-0.535-0.255c-0.815,0.458-1.63,0.892-2.396,1.324c-0.102,2.267-0.357,4.254-0.61,5.248
		c-0.255,1.044-0.738,0.994-0.714-0.432c0-0.434,0.102-2.981,0.153-4.127c-0.892,0.483-1.657,0.917-2.319,1.298
		c-0.102,1.885-0.102,3.541,0.05,4.127c0.46,1.809,1.021,2.242,3.032,2.548c1.298,0.203,3.846,0.076,5.374-0.434
		c2.014-0.663,2.19-1.018,2.676-4.203c0.151-0.943,0.434-0.994,0.508-0.051c0.077,1.044,0.434,2.598,0.714,3.21
		C83.928,19.306,83.418,20.249,79.852,21.09z"/>
</g>
</svg>
