<?xml version="1.0" encoding="iso-8859-1"?>
<!-- Generator: Adobe Illustrator 22.1.0, SVG Export Plug-In . SVG Version: 6.00 Build 0)  -->
<svg version="1.1" id="Layer_1" xmlns="http://www.w3.org/2000/svg" xmlns:xlink="http://www.w3.org/1999/xlink" x="0px" y="0px"
	 viewBox="0 0 22 22" style="enable-background:new 0 0 22 22;" xml:space="preserve">
<g>
	<path d="M15.391,11.971c-2.364-0.054-3.45-0.027-6.297,0.483c1.279,0.966,1.158,1.154,0.482,1.906
		c-0.241,0.269-0.675,0.832-1.616,2.201c-0.651,0.886-0.917,1.234-1.809,2.656c1.881-0.456,4.125-0.966,5.742-1.342
		c-0.507-0.993-0.772-1.503-1.134-2.094c-0.266-0.456-0.145-0.697,0.435-0.349c2.653,1.664,3.739,3.382,3.521,4.966
		c-0.192,1.422-0.893,1.315-1.303,0.483c-0.507-1.021-0.916-1.825-1.23-2.443c-3.377,0.993-5.379,1.906-6.754,2.711
		c-0.531,0.322-0.796,0.242-1.206-0.644c-0.386-0.832-0.266-1.154,0.121-1.289c0.555-0.214,1.158-0.725,1.472-1.153
		c0.627-0.859,1.037-1.449,1.568-2.55c0.772-1.477,0.989-2.282,0.917-2.926c-0.917,0.161-1.351,0.268-2.388,0.563
		c-0.893,0.241-1.278,0.241-1.978-0.188c-0.603-0.375-0.531-0.59-0.072-0.644c0.241-0.027,0.724-0.107,1.712-0.242
		c1.81-0.241,6.2-1.154,7.479-1.476c1.688-0.43,2.002-0.376,2.895,0.188C16.887,11.435,16.645,11.998,15.391,11.971z M9.408,7.543
		C7.405,7.972,6.875,7.784,6.175,7.301C5.789,7.033,5.837,6.737,6.392,6.684c0.989-0.107,2.654-0.483,3.353-0.725
		c1.713-0.644,2.605-0.805,3.185-0.483c0.41,0.269,0.386,0.671,0.072,0.886C12.399,6.791,11.748,7.033,9.408,7.543z"/>
</g>
</svg>
