<?xml version="1.0" standalone="no"?>
<!DOCTYPE svg PUBLIC "-//W3C//DTD SVG 20010904//EN"
 "http://www.w3.org/TR/2001/REC-SVG-20010904/DTD/svg10.dtd">
<svg version="1.0" xmlns="http://www.w3.org/2000/svg"
 width="1080.000000pt" height="1080.000000pt" viewBox="0 0 1080.000000 1080.000000"
 preserveAspectRatio="xMidYMid meet">
<metadata>
Created by potrace 1.14, written by Peter Selinger 2001-2017
</metadata>
<g transform="translate(0.000000,1080.000000) scale(0.100000,-0.100000)"
fill="#000000" stroke="none">
<path d="M0 7110 c0 -2029 2 -3690 5 -3690 2 0 11 15 20 34 17 36 69 64 81 45
12 -20 -14 -151 -96 -487 -6 -26 -10 -243 -10 -583 0 -499 2 -550 20 -657 12
-64 23 -125 26 -135 6 -20 82 -116 126 -159 15 -15 28 -32 28 -38 0 -11 32
-48 106 -123 48 -50 102 -158 118 -241 9 -47 21 -71 63 -121 28 -34 73 -77 98
-94 62 -42 180 -101 201 -101 9 0 32 13 51 30 33 29 70 38 88 22 17 -15 145
-58 255 -86 211 -54 408 -109 525 -148 130 -44 148 -46 336 -33 171 11 214 0
286 -71 76 -76 102 -88 182 -80 36 3 95 12 131 21 111 25 216 29 304 11 49
-10 97 -14 127 -10 55 7 168 -15 256 -51 32 -12 78 -26 103 -29 25 -4 66 -12
93 -18 54 -12 68 -5 92 46 20 42 63 66 131 73 54 6 56 7 80 54 14 29 36 55 54
64 36 19 37 34 9 130 -39 129 -38 140 22 228 37 55 76 97 134 143 l81 64 -1
143 c-2 108 -6 151 -18 179 -25 55 -21 118 14 221 44 133 105 217 233 323 46
39 52 49 83 145 18 57 33 112 33 121 0 10 4 37 10 60 5 24 17 84 26 133 23
130 83 328 131 435 14 30 29 65 34 77 4 12 31 57 59 99 28 43 58 90 66 106 13
25 30 48 69 92 6 6 41 47 80 91 87 101 92 105 152 152 28 21 83 64 122 96 39
33 110 79 158 104 100 51 117 63 106 74 -7 6 -75 33 -308 121 -44 16 -89 34
-100 38 -11 5 -31 11 -45 14 -14 3 -32 11 -40 16 -13 9 -11 13 10 27 14 9 57
49 96 88 64 65 73 79 89 141 11 38 31 96 47 129 15 33 28 65 28 70 0 12 66
119 96 158 22 28 48 35 59 17 16 -26 26 -7 20 38 -4 32 -1 58 9 83 12 30 15
90 15 332 0 262 -2 298 -17 315 -9 11 -39 47 -65 81 -26 34 -63 71 -82 83 -21
11 -35 28 -35 39 0 10 -3 19 -8 19 -11 0 -48 106 -72 210 -12 52 -27 109 -33
127 -7 23 -8 39 0 55 6 13 7 32 3 44 -12 31 41 133 83 162 18 12 42 22 53 22
10 0 52 -20 93 -44 63 -37 78 -43 100 -35 49 17 80 -4 169 -116 4 -5 11 -19
15 -29 7 -17 10 -18 21 -5 41 42 106 250 106 336 0 68 9 108 29 130 9 11 21
28 27 39 6 10 27 27 46 36 20 9 45 33 56 52 12 20 25 36 30 36 10 0 67 85 80
121 6 13 8 56 5 94 -4 60 -1 77 20 117 13 27 36 57 51 69 14 11 26 26 26 33 0
17 49 40 140 66 41 11 83 25 92 30 22 12 277 12 373 0 91 -11 186 -36 195 -51
5 -7 23 -10 44 -7 28 3 36 0 36 -12 0 -35 57 -53 228 -72 6 -1 12 -5 12 -10 0
-4 6 -8 13 -8 6 0 25 -7 41 -15 16 -8 45 -17 65 -20 19 -2 37 -9 39 -15 2 -6
9 -16 15 -23 7 -6 13 -21 15 -32 2 -16 -1 -14 -16 8 -17 25 -20 26 -33 11 -11
-14 -11 -18 4 -29 9 -7 17 -22 17 -35 0 -16 4 -20 15 -16 8 3 15 1 15 -5 0 -5
12 -14 26 -19 19 -7 25 -16 22 -33 -2 -12 5 -31 15 -42 11 -11 16 -30 14 -42
-2 -13 0 -23 6 -23 5 0 15 -7 22 -16 11 -16 14 -16 43 2 31 18 44 46 20 42 -7
-2 -13 3 -12 10 1 6 2 33 3 60 1 47 1 47 15 20 8 -15 17 -42 21 -60 3 -18 10
-44 15 -58 5 -14 11 -44 14 -68 6 -42 6 -42 -21 -36 -16 4 -32 10 -37 14 -14
13 -70 -9 -96 -38 -14 -15 -41 -39 -60 -52 -52 -37 -70 -53 -70 -65 0 -6 -29
-28 -65 -48 -36 -21 -65 -43 -65 -49 0 -6 -3 -8 -7 -5 -14 14 -32 -31 -33 -80
0 -80 52 -255 97 -322 57 -87 73 -100 73 -61 0 23 20 70 30 70 4 0 19 -9 33
-20 19 -15 40 -20 86 -20 34 0 61 4 61 8 0 11 49 34 60 27 4 -3 13 1 18 8 8 9
5 24 -13 54 l-23 42 35 16 c41 20 51 14 63 -41 14 -60 42 -431 37 -477 -9 -80
-45 -180 -71 -199 -5 -3 -11 -12 -12 -20 -4 -19 -25 -77 -46 -125 -10 -24 -18
-48 -18 -53 0 -6 -4 -9 -8 -6 -4 2 -18 -33 -31 -80 -22 -78 -46 -115 -65 -97
-15 15 -5 43 15 43 11 0 17 5 14 10 -3 6 -17 7 -31 4 -20 -5 -24 -2 -24 15 0
12 7 24 15 27 8 3 19 22 26 42 16 51 20 56 30 41 6 -10 9 -6 9 12 0 15 -7 29
-15 33 -8 3 -15 1 -15 -5 0 -6 -5 -7 -10 -4 -6 4 -10 12 -9 18 5 27 -14 65
-34 71 -18 5 -19 8 -8 15 12 8 10 12 -12 22 -33 15 -33 20 -4 47 19 18 26 20
47 9 17 -8 26 -23 28 -42 2 -17 10 -34 18 -38 8 -4 14 -15 14 -22 0 -18 31
-20 48 -3 7 7 12 18 12 25 0 8 9 26 20 41 24 34 37 82 21 82 -6 0 -11 -7 -11
-17 0 -15 -1 -15 -18 0 -24 22 -80 22 -103 1 -26 -23 -41 -9 -33 32 4 22 2 34
-5 34 -6 0 -11 -4 -11 -10 0 -5 -4 -10 -10 -10 -5 0 -10 11 -10 25 0 17 -8 29
-25 37 -21 9 -30 7 -62 -15 -66 -45 -118 -60 -179 -53 -42 5 -54 3 -54 -7 0
-8 11 -19 25 -25 17 -8 25 -20 25 -37 0 -25 2 -26 47 -23 46 3 47 2 47 -27 1
-25 6 -31 30 -35 33 -6 52 -30 43 -54 -10 -26 -81 -18 -85 9 -2 11 -10 25 -17
30 -7 6 -15 19 -18 30 -3 14 -5 11 -6 -10 0 -17 -6 -36 -12 -42 -6 -6 -11 -17
-13 -24 -4 -27 -21 -46 -46 -52 -14 -3 -50 -13 -80 -22 -30 -9 -86 -25 -125
-37 -87 -25 -163 -34 -178 -19 -28 28 -92 -9 -99 -59 -6 -39 4 -46 82 -54 116
-13 119 -12 95 34 -15 30 -15 33 2 46 10 7 34 13 53 14 159 0 217 -2 294 -10
49 -6 93 -13 97 -16 12 -7 11 -34 0 -34 -5 0 -22 -10 -38 -23 -66 -53 -139
-54 -310 -2 -13 4 -35 4 -50 0 -28 -7 -28 -7 16 -27 24 -11 60 -22 80 -25 69
-11 78 -24 79 -113 1 -59 -4 -91 -18 -123 -23 -49 -25 -86 -7 -92 6 -2 41 -6
76 -9 35 -3 68 -9 74 -15 11 -11 0 -34 -13 -26 -18 11 -32 -26 -26 -65 6 -39
6 -40 -24 -40 -19 0 -30 -5 -29 -12 1 -7 1 -25 0 -40 -1 -23 -6 -28 -26 -28
-19 0 -25 -5 -25 -21 0 -16 -5 -20 -19 -16 -26 6 -39 -4 -44 -33 -2 -14 -10
-38 -16 -55 -11 -25 -10 -44 4 -110 9 -44 20 -104 25 -133 9 -59 30 -97 69
-127 14 -11 62 -56 106 -101 76 -77 164 -134 208 -134 9 0 36 -8 59 -19 24
-10 60 -24 81 -31 21 -6 66 -28 100 -47 34 -20 79 -44 99 -55 20 -10 102 -60
181 -112 135 -88 144 -95 156 -137 13 -42 50 -97 99 -146 13 -13 30 -40 39
-61 8 -20 23 -48 32 -62 23 -33 84 -180 106 -255 46 -156 53 -184 63 -235 25
-132 32 -178 32 -208 0 -17 4 -41 9 -54 22 -57 57 -347 76 -628 21 -301 37
-455 69 -625 8 -44 17 -93 19 -110 3 -16 14 -64 25 -105 12 -41 24 -86 27
-100 4 -14 10 -34 15 -45 4 -11 18 -54 30 -95 27 -90 39 -128 50 -155 7 -17
32 -111 70 -262 l11 -43 959 0 960 0 0 3970 c0 2184 -2 3970 -4 3970 -3 0 -56
-33 -118 -74 -247 -160 -514 -292 -818 -402 l-105 -38 -155 -150 c-160 -156
-253 -233 -400 -333 -266 -182 -569 -319 -876 -397 -71 -18 -212 -46 -233 -46
-8 0 7 21 34 47 154 151 255 378 255 576 0 99 -4 105 -64 111 -209 20 -385 38
-409 43 -27 5 -27 5 -21 69 l7 64 -27 0 c-22 0 -26 4 -26 29 0 26 -3 28 -37
27 -42 -1 -41 -5 -26 89 12 79 2 154 -23 171 -64 44 -86 63 -111 96 -15 21
-35 40 -43 43 -8 3 -41 29 -72 57 -123 114 -150 128 -244 128 -29 0 -58 6 -70
15 -10 8 -24 15 -30 15 -6 0 -38 16 -69 35 -32 19 -74 38 -94 41 -20 4 -72 25
-116 46 -73 36 -85 39 -140 34 -88 -8 -88 -8 -115 -1 -21 5 -30 0 -55 -34 -23
-31 -39 -41 -70 -47 -22 -3 -76 -17 -119 -31 -55 -17 -91 -23 -117 -19 -23 4
-55 0 -81 -8 -24 -8 -66 -18 -94 -22 l-51 -6 -119 105 c-606 535 -996 1230
-1123 1997 -26 155 -32 227 -38 423 l-6 207 -2388 0 -2389 0 0 -3690z m2125
110 c19 -11 38 -20 43 -19 50 3 189 -54 197 -82 7 -20 18 -24 88 -34 35 -5 59
-16 93 -46 25 -21 52 -39 60 -39 8 0 14 -4 14 -8 0 -13 41 -56 73 -75 15 -10
27 -24 27 -32 0 -8 4 -15 10 -15 5 0 17 -17 27 -37 19 -41 107 -133 127 -133
25 0 176 -119 176 -139 0 -10 7 -24 15 -31 8 -7 15 -18 15 -24 0 -6 8 -27 19
-46 21 -40 21 -104 -1 -126 -11 -11 -74 -16 -298 -22 -157 -4 -315 -6 -353 -4
-40 2 -117 -5 -190 -17 -67 -11 -158 -25 -202 -32 -44 -6 -84 -16 -89 -20 -6
-5 -17 -9 -25 -9 -31 0 -158 -71 -206 -115 -49 -44 -72 -52 -140 -47 -11 1
-42 2 -69 2 -27 1 -61 7 -75 14 -41 21 -299 49 -375 41 -57 -6 -66 -5 -66 9 0
9 5 16 11 16 5 0 8 4 4 9 -16 26 118 77 225 86 94 7 134 18 138 37 5 27 -28
51 -106 77 -67 23 -78 24 -160 14 -48 -6 -93 -12 -101 -14 -23 -7 -29 41 -20
172 5 89 14 145 32 200 35 102 70 181 90 198 10 7 17 19 17 26 0 8 33 47 73
87 71 73 142 118 186 118 12 0 40 9 62 21 48 24 191 31 249 12 63 -21 123 -25
202 -12 43 7 76 15 73 17 -2 2 6 13 18 23 29 24 68 24 112 -1z m5492 -482 c-3
-7 -5 -2 -5 12 0 14 2 19 5 13 2 -7 2 -19 0 -25z m-10 -55 c-3 -10 -5 -4 -5
12 0 17 2 24 5 18 2 -7 2 -21 0 -30z m-3736 -411 c9 -11 33 -29 52 -41 39 -24
69 -77 88 -155 15 -60 6 -290 -15 -388 -24 -108 -99 -204 -215 -272 -35 -20
-70 -43 -78 -52 -9 -9 -23 -12 -32 -9 -9 4 -50 9 -91 10 -99 5 -130 17 -130
51 0 14 -16 59 -35 100 -19 40 -36 84 -36 96 -1 19 -3 18 -9 -7 l-8 -30 -1 33
c0 17 4 32 9 32 6 0 8 20 4 53 -4 35 -1 66 10 95 8 23 13 48 10 56 -3 7 2 16
10 19 9 4 16 18 16 32 0 14 5 25 10 25 6 0 10 7 10 15 0 8 -6 14 -12 13 -21
-5 -13 25 49 169 13 31 44 52 102 68 13 4 40 22 60 40 63 57 110 77 165 71 30
-3 56 -13 67 -24z m3846 20 c17 -2 22 -10 28 -50 3 -26 2 -58 -4 -72 -9 -24
-10 -24 -10 -2 -1 12 -5 22 -11 22 -5 0 -10 7 -10 16 0 23 -58 43 -111 37 -50
-6 -70 7 -49 32 16 19 71 24 167 17z m-5307 -67 c118 -33 137 -59 161 -220 5
-38 7 -105 3 -148 -5 -64 -12 -86 -38 -125 -29 -44 -37 -49 -131 -81 -97 -33
-105 -34 -260 -35 -152 -1 -162 0 -200 23 -22 13 -53 37 -69 53 -15 15 -32 28
-37 28 -4 0 -12 15 -17 33 -6 17 -13 41 -18 52 -6 18 -4 17 19 -4 15 -13 29
-32 33 -43 3 -10 14 -18 25 -18 19 0 20 4 14 58 -5 42 -16 71 -43 112 -21 30
-44 55 -52 55 -21 0 -30 29 -19 62 18 57 22 63 34 63 7 0 15 6 18 13 3 8 36
28 74 47 70 34 142 54 248 70 33 5 78 13 100 18 59 14 62 14 155 -13z m5218
-128 c2 -18 -3 -29 -18 -37 -33 -18 -45 1 -25 39 19 37 39 36 43 -2z m-248 -4
c-1 -5 -7 -19 -15 -33 l-15 -25 4 30 c5 38 4 35 16 35 6 0 10 -3 10 -7z
m-4193 -44 c14 -21 33 -52 42 -68 9 -16 29 -46 45 -66 23 -29 27 -40 19 -54
-7 -11 -7 -25 -1 -41 13 -32 11 -134 -2 -138 -6 -2 -10 -12 -10 -22 0 -10 -5
-20 -12 -22 -12 -4 -29 -116 -17 -120 3 -2 9 -38 12 -80 4 -56 2 -78 -6 -78
-7 0 -13 -17 -14 -40 -2 -22 2 -40 7 -40 6 0 10 -18 10 -40 0 -22 -4 -40 -10
-40 -14 0 -13 -157 1 -162 5 -2 7 -11 4 -21 -4 -9 -11 -14 -16 -12 -10 7 -17
-22 -22 -85 -3 -44 -35 -118 -64 -152 -9 -10 -13 -24 -10 -33 6 -15 3 -20 -46
-56 -15 -12 -26 -23 -23 -26 7 -7 -27 -43 -41 -43 -7 0 -18 -10 -24 -22 -18
-33 -27 -40 -101 -77 -38 -19 -68 -38 -68 -42 0 -5 -9 -9 -20 -9 -11 0 -20 -4
-20 -8 0 -5 -18 -15 -40 -22 -22 -7 -40 -17 -40 -22 0 -4 -7 -8 -15 -8 -8 0
-15 -5 -15 -12 0 -6 -3 -9 -6 -6 -7 7 -163 -57 -174 -72 -8 -10 -107 -50 -124
-50 -9 0 -16 -4 -16 -9 0 -5 -12 -11 -27 -14 -78 -16 -113 -26 -170 -50 -58
-25 -72 -27 -227 -28 -99 0 -166 -4 -168 -10 -2 -6 -26 -11 -54 -13 -27 -1
-54 -5 -60 -8 -15 -10 -86 30 -126 70 -29 28 -37 45 -38 72 -1 54 -35 151 -94
269 -29 58 -90 179 -135 269 -75 149 -149 345 -197 521 -17 62 -48 111 -72
112 -13 0 -11 3 6 12 18 8 28 8 43 -1 26 -17 68 -15 187 8 56 11 115 20 130
20 43 1 78 38 139 150 11 19 28 60 38 90 48 149 59 176 77 195 17 18 21 19 45
5 23 -14 73 -90 138 -213 14 -26 44 -67 68 -91 39 -41 47 -44 133 -60 88 -15
93 -15 149 4 32 11 74 20 94 20 45 0 190 35 205 50 5 5 19 10 31 10 21 0 98
73 128 122 9 15 17 40 17 54 0 15 4 41 9 58 5 17 14 49 20 71 23 89 23 88 32
74 5 -8 9 -9 9 -3 0 6 10 9 23 7 22 -4 38 -1 182 37 44 11 89 19 100 16 11 -3
36 -1 55 3 76 17 99 12 127 -30z m-1899 12 c10 -6 10 -10 -1 -20 -10 -8 -14
-30 -13 -69 1 -57 1 -57 33 -60 18 -2 60 4 94 13 34 8 64 13 67 10 3 -2 5 -53
6 -112 1 -120 -12 -178 -54 -231 -43 -54 -163 -102 -297 -117 -66 -7 -72 -3
-48 29 22 29 21 299 0 340 -14 26 -14 30 1 41 16 11 15 14 -5 34 -18 18 -19
24 -9 41 10 15 10 26 0 53 -21 57 -21 57 101 57 61 0 118 -4 125 -9z m-410
-92 c9 -1 3 -6 -14 -11 -33 -11 -64 -53 -64 -87 0 -20 1 -21 25 -5 14 9 32 13
45 9 20 -6 21 -8 4 -26 -17 -19 -17 -63 2 -194 6 -48 48 -133 78 -158 21 -18
21 -18 -14 -12 -43 9 -95 32 -110 50 -6 7 -27 51 -46 96 -36 88 -41 141 -25
243 7 41 16 57 52 90 36 33 44 38 47 24 2 -10 11 -18 20 -19z m2429 -465 c2
-6 -3 -11 -12 -11 -8 0 -15 7 -15 15 0 15 22 12 27 -4z m4233 -668 c0 -3 -4
-8 -10 -11 -5 -3 -10 -1 -10 4 0 6 5 11 10 11 6 0 10 -2 10 -4z m-42 -66 c-5
-17 -14 -33 -19 -36 -5 -3 -7 -10 -4 -15 3 -5 -1 -6 -9 -3 -12 5 -16 -1 -17
-22 0 -28 -1 -28 -9 -6 -11 26 -3 52 15 52 7 0 18 14 25 30 16 39 32 39 18 0z
m-95 -222 c-8 -46 -13 -48 -13 -5 0 21 4 37 10 37 5 0 7 -14 3 -32z m-26 -70
c-3 -8 -6 -5 -6 6 -1 11 2 17 5 13 3 -3 4 -12 1 -19z m-3724 -60 c49 -15 77
-54 117 -166 32 -89 33 -96 26 -195 -3 -56 -11 -115 -16 -132 -5 -16 -16 -56
-26 -89 -9 -32 -35 -93 -56 -135 -91 -174 -133 -249 -173 -311 -23 -36 -70
-110 -105 -165 -67 -107 -126 -196 -187 -285 -38 -56 -47 -71 -78 -145 -9 -22
-23 -53 -31 -69 -8 -16 -14 -37 -14 -47 0 -10 -4 -21 -10 -24 -5 -3 -10 -14
-10 -23 0 -10 -9 -35 -20 -57 -11 -22 -20 -49 -20 -62 0 -12 -4 -25 -10 -28
-5 -3 -10 -15 -10 -26 0 -24 -19 -55 -84 -136 -27 -35 -57 -63 -65 -63 -9 1
-32 14 -51 30 -88 76 -214 -3 -215 -135 0 -44 -3 -50 -22 -53 -20 -3 -23 1
-25 30 0 18 -1 40 0 48 0 8 -8 51 -20 95 -11 44 -24 112 -29 150 -11 90 -28
174 -41 202 -22 45 11 323 47 398 14 30 25 61 25 69 0 18 102 126 119 126 36
0 -18 70 -104 135 -22 17 -51 42 -65 56 -14 14 -59 39 -100 55 -66 25 -88 29
-180 29 -104 0 -106 0 -160 -36 -74 -49 -117 -94 -141 -145 -32 -71 -23 -103
32 -117 52 -13 73 -40 79 -103 4 -33 17 -115 29 -184 l22 -124 -22 -71 c-12
-38 -32 -83 -43 -98 -34 -46 -139 -158 -158 -168 -34 -18 -67 72 -113 311 -7
36 -22 101 -34 145 -11 44 -21 99 -21 123 0 24 -4 51 -9 60 -5 9 -11 100 -15
201 l-5 183 29 11 c18 7 34 24 44 46 19 46 40 156 32 169 -3 5 1 44 9 87 8 42
15 126 15 186 l0 109 50 0 c47 0 51 -2 78 -42 16 -24 38 -59 49 -79 37 -70
177 -235 249 -294 41 -33 74 -62 74 -65 1 -12 68 -76 94 -90 27 -14 29 -13 52
15 14 17 21 36 18 45 -4 8 -6 30 -5 48 1 17 -3 32 -9 32 -5 0 -10 7 -10 15 0
11 -12 15 -49 15 -40 0 -50 -4 -54 -20 -4 -17 -8 -18 -31 -7 -14 7 -35 29 -48
50 -13 21 -29 45 -35 52 -7 7 -13 19 -13 25 0 6 -12 34 -26 62 -26 51 -26 94
-2 109 13 8 58 -10 58 -23 0 -4 35 -8 78 -8 47 0 95 -6 124 -17 41 -14 52 -15
87 -3 23 7 41 18 41 24 0 12 37 31 82 41 15 4 32 13 39 21 6 8 26 14 44 14 18
0 38 7 46 16 7 9 22 14 36 11 15 -3 30 4 45 20 20 21 123 76 181 97 10 3 16
10 13 15 -8 12 62 48 109 57 29 5 39 13 47 35 6 19 21 32 44 41 19 6 34 16 34
20 0 16 26 7 38 -13 7 -11 19 -18 27 -15 10 4 13 -4 10 -34 -2 -22 1 -42 6
-46 8 -4 9 1 4 17 -6 20 -5 22 6 12 20 -19 57 -16 91 8 82 59 108 105 108 196
l0 58 23 -33 c13 -19 37 -37 60 -44z m3474 -130 c-3 -8 -6 -5 -6 6 -1 11 2 17
5 13 3 -3 4 -12 1 -19z"/>
<path d="M2350 6630 c0 -5 -13 -10 -29 -10 -36 0 -41 -7 -34 -43 8 -42 53 -62
109 -48 27 7 51 8 67 2 21 -8 26 -6 30 9 6 22 -10 38 -40 43 -11 1 -37 15 -56
30 -39 29 -47 32 -47 17z"/>
<path d="M2180 6595 c-14 -8 -45 -17 -70 -20 -114 -15 -210 -64 -196 -100 5
-14 14 -16 42 -12 20 3 42 13 48 23 13 17 53 28 169 46 60 10 67 13 67 34 0
32 -29 46 -60 29z"/>
<path d="M3770 6239 c-12 -8 -8 -9 13 -4 16 3 35 1 42 -5 9 -8 14 -7 18 3 6
17 -51 22 -73 6z"/>
<path d="M3664 6137 c-9 -24 6 -44 18 -22 7 11 6 21 -1 28 -7 7 -12 6 -17 -6z"/>
<path d="M3637 5964 c-25 -25 6 -93 37 -81 7 3 37 -1 66 -10 28 -8 53 -13 56
-11 12 13 -32 72 -63 84 -46 20 -87 27 -96 18z"/>
<path d="M3560 5857 c0 -7 7 -22 15 -33 8 -10 15 -26 15 -35 0 -9 7 -33 15
-53 14 -32 18 -35 35 -26 31 16 26 68 -11 118 -30 40 -69 57 -69 29z"/>
<path d="M3576 5634 c-3 -9 -6 -27 -6 -41 0 -18 5 -24 18 -21 9 2 17 9 16 16
-1 6 -2 23 -2 37 -2 28 -17 33 -26 9z"/>
<path d="M2171 6191 c-18 -12 -20 -69 -3 -103 14 -30 21 -30 132 -2 30 8 69
15 85 17 21 3 31 10 33 24 2 16 -8 24 -55 41 -67 24 -172 37 -192 23z"/>
<path d="M2040 6151 c0 -5 -8 -12 -17 -15 -21 -7 -51 -56 -45 -74 6 -19 50
-14 61 7 6 10 8 21 4 24 -3 4 2 18 11 31 20 31 20 36 1 36 -8 0 -15 -4 -15 -9z"/>
<path d="M1775 5381 c-44 -11 -70 -30 -89 -66 -12 -22 -30 -37 -56 -45 -43
-14 -62 -6 -100 43 -37 47 -100 27 -86 -28 10 -38 53 -56 107 -44 24 6 62 9
84 8 50 -2 86 7 150 38 29 14 77 27 113 30 34 3 65 10 68 14 3 5 -3 9 -13 9
-10 0 -40 11 -67 25 -52 26 -62 28 -111 16z"/>
<path d="M2000 5350 c0 -5 7 -7 15 -4 8 4 15 8 15 10 0 2 -7 4 -15 4 -8 0 -15
-4 -15 -10z"/>
<path d="M3210 5240 c0 -22 5 -40 10 -40 6 0 10 18 10 40 0 22 -4 40 -10 40
-5 0 -10 -18 -10 -40z"/>
<path d="M1826 5033 c-2 -2 -21 -4 -42 -5 -46 -1 -74 -13 -74 -33 0 -23 18
-27 42 -11 24 17 70 20 103 7 23 -10 83 16 69 29 -9 8 -92 19 -98 13z"/>
<path d="M1960 5001 c0 -21 28 -32 54 -20 14 7 23 16 20 20 -7 12 -74 12 -74
0z"/>
<path d="M1525 4988 c-42 -15 -125 -104 -125 -133 0 -8 15 -22 33 -31 17 -9
39 -22 47 -29 24 -19 120 -46 141 -40 27 9 14 25 -21 25 -35 0 -39 6 -47 68
-6 51 1 60 72 97 11 6 20 19 20 30 0 17 -8 20 -45 22 -25 1 -58 -3 -75 -9z"/>
<path d="M2090 4977 c0 -22 37 -49 65 -49 14 0 30 -8 35 -19 8 -15 15 -16 42
-8 18 5 40 17 50 27 16 16 17 19 2 40 -14 20 -23 22 -105 22 -68 0 -89 -3 -89
-13z"/>
<path d="M2113 4865 c-3 -9 -3 -18 0 -22 10 -10 37 6 37 22 0 20 -29 20 -37 0z"/>
<path d="M1149 5977 c-13 -12 -27 -21 -32 -19 -5 1 -5 -3 -1 -9 3 -6 1 -15 -6
-19 -11 -7 -10 -12 3 -25 28 -27 77 13 77 64 0 30 -14 33 -41 8z"/>
<path d="M6532 6484 c-20 -10 -21 -12 -7 -18 9 -3 41 -6 71 -6 53 0 54 0 54
-30 0 -17 -5 -30 -12 -31 -28 -1 40 -20 74 -21 28 0 46 -9 77 -38 29 -27 37
-40 29 -48 -8 -8 -5 -14 12 -20 22 -8 18 -10 -30 -22 -30 -7 -61 -13 -69 -13
-8 0 -16 -9 -19 -19 -3 -14 -14 -18 -48 -18 -23 0 -46 -4 -49 -10 -3 -5 -22
-10 -41 -10 -38 0 -134 -41 -155 -66 -22 -26 8 -34 117 -33 119 3 219 -22 228
-56 3 -11 -1 -23 -8 -27 -7 -4 -23 -15 -35 -25 l-21 -18 28 -32 c21 -26 36
-33 62 -33 65 0 109 20 167 75 46 44 58 62 66 102 13 63 12 147 -1 203 -8 37
-7 50 6 72 13 22 13 29 3 42 -9 11 -10 16 -2 16 6 0 11 7 11 14 0 25 -62 62
-126 74 -74 15 -194 16 -194 2 0 -14 -56 -13 -79 2 -15 9 -26 9 -47 -1 -15 -6
-30 -8 -33 -3 -3 4 -16 3 -29 -4z m313 -340 c30 -20 31 -28 6 -53 -26 -26 -71
-17 -71 14 0 55 21 68 65 39z"/>
<path d="M5430 5903 c-42 -18 -119 -94 -122 -120 -2 -33 2 -53 12 -53 6 0 10
11 10 24 0 32 74 107 114 115 22 5 32 13 34 29 4 25 0 26 -48 5z"/>
<path d="M7427 5748 c-6 -17 12 -68 25 -68 4 0 3 12 -2 28 -5 15 -10 34 -12
41 -4 12 -5 12 -11 -1z"/>
<path d="M5532 5613 c2 -9 9 -18 16 -21 18 -6 15 25 -4 32 -11 4 -14 1 -12
-11z"/>
<path d="M7134 5440 c-11 -4 -34 -24 -52 -44 -22 -25 -40 -36 -59 -36 -22 0
-25 -2 -13 -10 8 -5 25 -10 36 -10 28 0 80 26 62 32 -7 3 10 13 37 22 96 34
100 37 84 47 -17 11 -67 11 -95 -1z"/>
<path d="M6620 4238 c-25 -27 -25 -30 0 -59 13 -16 19 -19 20 -9 0 30 27 -14
45 -75 17 -59 35 -92 35 -66 0 7 4 10 9 7 22 -14 34 -187 14 -193 -7 -3 -28
-15 -48 -29 -40 -27 -65 -30 -83 -12 -9 9 -17 10 -30 2 -21 -13 -98 6 -95 24
2 6 -4 9 -12 6 -8 -4 -17 1 -21 10 -6 16 -54 19 -54 4 0 -4 -12 -8 -27 -9 -16
0 -23 -3 -17 -5 11 -5 43 -32 128 -106 17 -16 36 -28 43 -28 7 0 13 -4 13 -9
0 -5 27 -26 60 -46 33 -20 64 -43 68 -51 13 -24 83 17 141 84 78 89 119 175
142 300 11 59 25 122 31 141 8 25 7 43 -2 70 -12 36 -12 36 -72 39 -34 1 -90
9 -125 17 -92 22 -138 20 -163 -7z"/>
<path d="M6823 3631 c-13 -11 -23 -22 -23 -26 0 -11 -55 -75 -65 -75 -36 -2
-85 -96 -89 -170 -1 -19 -5 -42 -8 -50 -14 -33 -15 -120 -2 -131 8 -6 14 -20
14 -30 0 -10 5 -21 10 -24 6 -4 10 10 10 33 0 60 75 202 117 222 17 8 34 25
38 38 5 22 25 31 25 12 0 -20 19 -10 23 13 3 16 5 13 6 -10 0 -18 -3 -33 -9
-33 -5 0 -10 -4 -10 -10 0 -5 7 -10 16 -10 22 0 64 -46 64 -70 0 -10 -4 -30
-10 -44 -6 -17 -6 -26 0 -26 6 0 10 8 10 19 0 10 7 24 15 31 11 9 15 32 15 80
0 57 -3 67 -17 67 -10 0 -22 -5 -26 -11 -5 -7 -7 -3 -5 9 2 16 -5 21 -39 28
-47 11 -58 31 -41 78 11 32 35 49 69 49 18 0 20 2 8 16 -11 13 -62 45 -71 44
-2 -1 -13 -9 -25 -19z m-113 -296 c0 -8 -4 -15 -10 -15 -5 0 -10 7 -10 15 0 8
5 15 10 15 6 0 10 -7 10 -15z"/>
<path d="M6528 3588 c-8 -13 -18 -30 -21 -38 -4 -8 -15 -27 -25 -41 -61 -92
-72 -110 -72 -124 0 -9 5 -13 10 -10 6 4 16 2 23 -3 7 -5 36 -12 64 -15 56 -6
88 9 77 38 -4 8 6 24 22 38 36 31 36 70 0 131 -30 51 -55 59 -78 24z"/>
<path d="M6972 3524 c2 -15 9 -29 16 -32 10 -3 13 4 10 24 -2 15 -9 29 -16 32
-10 3 -13 -4 -10 -24z"/>
<path d="M6961 3204 c0 -11 3 -14 6 -6 3 7 2 16 -1 19 -3 4 -6 -2 -5 -13z"/>
<path d="M6859 3123 c-13 -16 -12 -17 4 -4 9 7 17 15 17 17 0 8 -8 3 -21 -13z"/>
<path d="M6916 3124 c-11 -28 -7 -35 14 -24 23 12 27 40 6 40 -8 0 -17 -7 -20
-16z"/>
<path d="M6975 3099 c-11 -33 -46 -79 -61 -79 -7 0 -20 7 -29 16 -12 13 -19
14 -30 4 -8 -7 -24 -10 -36 -7 -25 7 -69 -11 -69 -28 0 -7 -7 -18 -15 -25 -19
-16 -19 -46 0 -135 28 -136 37 -157 62 -150 16 4 23 1 23 -9 0 -20 -17 -29
-24 -14 -4 7 -4 -5 0 -27 3 -22 7 -52 8 -68 2 -15 17 -47 35 -70 17 -23 39
-58 47 -77 9 -19 27 -60 41 -90 43 -95 65 -171 52 -186 -6 -8 -15 -12 -19 -9
-24 15 -15 -87 10 -119 60 -74 58 -73 67 -49 8 22 9 21 32 -12 13 -19 29 -51
37 -72 7 -21 13 -32 14 -25 0 10 5 9 17 -3 20 -21 36 -108 18 -101 -17 6 -4
-60 21 -102 47 -83 54 -98 48 -117 -6 -19 -6 -19 12 -3 28 25 43 9 53 -53 12
-70 19 -87 42 -100 11 -5 19 -19 19 -29 0 -17 -7 -20 -52 -20 -63 0 -74 6 -83
43 -10 37 -35 35 -35 -3 0 -24 -5 -31 -27 -36 -16 -3 -33 -7 -40 -9 -7 -2 -15
0 -18 5 -8 13 -126 4 -136 -12 -14 -21 -10 -45 8 -64 15 -14 31 -16 115 -11
103 6 128 3 128 -17 0 -7 19 -33 43 -57 119 -126 142 -168 119 -217 -5 -9 -19
-38 -32 -64 -12 -27 -26 -48 -31 -48 -26 0 -68 -143 -69 -233 0 -87 41 -155
56 -89 9 44 13 52 23 52 10 0 17 -27 26 -110 8 -73 36 -170 49 -170 6 0 5 -4
-3 -9 -11 -7 -11 -29 -2 -132 7 -68 14 -132 17 -141 5 -15 18 -18 90 -18 l84
0 -20 40 c-11 22 -25 40 -30 40 -6 0 -10 8 -10 18 0 10 -5 23 -12 30 -7 7 -8
12 -3 12 10 0 125 -122 125 -132 0 -5 43 -8 95 -8 77 0 95 3 95 15 0 19 -20
103 -31 132 -10 26 -29 31 -29 8 0 -13 -4 -14 -21 -5 -11 7 -23 9 -27 6 -3 -3
0 -6 6 -6 20 0 48 -68 35 -81 -9 -9 -18 -4 -37 17 -14 16 -26 34 -26 41 0 6
-3 13 -7 15 -14 5 -60 72 -67 96 -4 12 -18 34 -32 49 -13 14 -24 35 -24 47 1
20 2 20 14 4 7 -10 18 -18 25 -18 6 0 11 -6 11 -14 0 -8 14 -30 30 -48 35 -38
38 -33 9 16 -16 28 -18 39 -9 56 6 11 7 26 3 33 -5 8 -9 1 -13 -18 l-5 -30
-24 38 c-13 21 -21 41 -17 44 3 4 6 1 6 -6 0 -7 4 -10 9 -7 5 4 12 0 14 -6 4
-9 6 -10 6 -1 1 6 -4 24 -11 40 -34 84 -44 123 -34 133 7 7 5 10 -7 10 -9 0
-17 7 -17 15 0 8 -18 26 -40 40 -41 26 -43 30 -44 112 -1 28 3 43 12 43 14 0
16 19 3 38 -6 11 -13 7 -29 -15 -14 -20 -18 -34 -11 -44 21 -34 5 -24 -42 26
l-52 55 19 27 c10 16 25 43 35 62 l16 34 33 -59 c19 -33 47 -77 62 -98 15 -21
28 -46 28 -54 0 -25 53 -97 93 -125 20 -15 43 -38 49 -52 14 -31 28 -32 28 -2
0 41 -43 173 -70 217 -9 14 -22 39 -30 55 -8 17 -32 47 -52 67 -21 21 -38 47
-38 57 0 11 -5 23 -11 27 -8 5 -8 8 0 13 7 5 3 12 -12 20 -13 7 -32 28 -41 47
-18 38 -22 94 -6 94 6 0 10 12 10 26 0 35 22 26 34 -14 5 -18 14 -32 21 -32
16 0 75 -75 75 -95 0 -9 5 -13 10 -10 16 10 12 49 -10 100 -11 26 -20 58 -20
71 0 14 -11 69 -25 122 -14 53 -29 127 -34 163 -6 42 -19 81 -34 105 -14 22
-29 53 -32 69 -4 17 -10 39 -15 50 -5 11 -16 43 -25 70 -9 28 -29 73 -45 101
-16 28 -36 78 -45 110 -9 33 -33 93 -53 133 -31 63 -37 71 -42 52 -5 -23 -6
-23 -31 10 -14 19 -40 59 -59 89 -18 30 -43 66 -56 80 -27 32 -47 70 -40 78
10 10 56 -21 56 -38 0 -16 18 -40 31 -40 4 0 2 14 -4 30 -6 17 -15 30 -19 30
-7 0 -38 53 -38 65 0 3 5 3 10 0 15 -9 12 8 -9 58 -22 52 -116 157 -141 157
-9 0 -22 11 -29 24 -7 13 -28 30 -46 39 -29 14 -37 26 -54 83 -31 98 -31 97
31 108 33 6 42 3 75 -27 21 -18 50 -41 66 -50 15 -10 27 -26 27 -36 0 -18 26
-48 35 -39 2 2 0 44 -6 94 -6 49 -13 116 -15 149 -6 67 -18 89 -29 54z m-84
-432 c-1 -12 -15 -9 -19 4 -3 6 1 10 8 8 6 -3 11 -8 11 -12z m137 -432 c21
-24 29 -45 16 -45 -9 0 -64 54 -64 62 0 17 28 7 48 -17z m129 -165 c29 -40 50
-76 47 -81 -8 -14 -41 12 -58 48 -8 18 -28 47 -43 64 -16 17 -31 40 -36 51
-15 40 35 -5 90 -82z m203 -325 c0 -8 4 -15 9 -15 12 0 41 -57 41 -79 0 -9 -7
-3 -16 14 -8 16 -18 32 -22 35 -14 10 -32 60 -22 60 6 0 10 -7 10 -15z m8
-507 c13 -13 17 -68 5 -68 -10 0 -73 62 -73 72 0 13 55 9 68 -4z"/>
<path d="M7107 1588 c4 -18 15 -46 25 -63 l18 -30 0 37 c0 20 -4 40 -10 43 -5
3 -10 15 -10 26 0 10 -7 19 -15 19 -11 0 -13 -8 -8 -32z"/>
<path d="M156 204 c-28 -13 -56 -24 -63 -24 -7 0 -13 -4 -13 -8 0 -13 -48 -32
-65 -26 -13 5 -15 -6 -15 -70 l0 -76 296 0 296 0 -7 32 c-10 46 -8 45 -68 51
-30 3 -73 16 -97 29 -23 12 -55 30 -72 40 -25 14 -27 17 -11 21 17 4 17 5 0 6
-11 0 -32 10 -48 22 -42 30 -77 30 -133 3z"/>
<path d="M551 194 c0 -11 3 -14 6 -6 3 7 2 16 -1 19 -3 4 -6 -2 -5 -13z"/>
<path d="M370 180 c0 -5 24 -10 54 -10 30 0 58 5 61 10 4 6 -17 10 -54 10 -34
0 -61 -4 -61 -10z"/>
</g>
</svg>
